%FSLAX45Y45*%
G04 Gerber Fmt 4.5, Leading zero omitted, Abs format (unit mm)*
G04 Created by KiCad (PCBNEW (5.1.10)-1) date 2021-10-20 08:09:59*
%MOMM*%
%LPD*%
G01*
G04 APERTURE LIST*
%TA.AperFunction,Profile*%
%ADD10C,0.050000*%
%TD*%
%ADD11C,0.200000*%
%ADD12C,0.300000*%
G04 APERTURE END LIST*
D10*
X18138648Y-14800072D02*
X18138235Y-6109877D01*
X9950450Y-14816582D02*
X9950035Y-6126067D01*
X17806416Y-15148814D02*
X10299192Y-15148814D01*
X18138809Y-14800231D02*
G75*
G02*
X17806416Y-15148814I-338489J-10001D01*
G01*
X10299192Y-15148814D02*
G75*
G02*
X9950609Y-14816421I-10001J338489D01*
G01*
X17789652Y-5777484D02*
G75*
G02*
X18138235Y-6109877I10001J-338489D01*
G01*
X9950035Y-6126067D02*
G75*
G02*
X10282428Y-5777484I338489J10001D01*
G01*
X10282428Y-5777484D02*
X17789652Y-5777484D01*
D11*
D12*
X10233816Y-15617176D02*
X10233816Y-15317176D01*
X10305244Y-15317176D01*
X10348101Y-15331462D01*
X10376673Y-15360033D01*
X10390958Y-15388605D01*
X10405244Y-15445748D01*
X10405244Y-15488605D01*
X10390958Y-15545748D01*
X10376673Y-15574319D01*
X10348101Y-15602890D01*
X10305244Y-15617176D01*
X10233816Y-15617176D01*
X10533816Y-15617176D02*
X10533816Y-15417176D01*
X10533816Y-15474319D02*
X10548101Y-15445748D01*
X10562387Y-15431462D01*
X10590958Y-15417176D01*
X10619530Y-15417176D01*
X10719530Y-15617176D02*
X10719530Y-15417176D01*
X10719530Y-15317176D02*
X10705244Y-15331462D01*
X10719530Y-15345748D01*
X10733816Y-15331462D01*
X10719530Y-15317176D01*
X10719530Y-15345748D01*
X10905244Y-15617176D02*
X10876673Y-15602890D01*
X10862387Y-15574319D01*
X10862387Y-15317176D01*
X11062387Y-15617176D02*
X11033816Y-15602890D01*
X11019530Y-15574319D01*
X11019530Y-15317176D01*
X11405244Y-15617176D02*
X11405244Y-15317176D01*
X11505244Y-15531462D01*
X11605244Y-15317176D01*
X11605244Y-15617176D01*
X11876673Y-15617176D02*
X11876673Y-15460033D01*
X11862387Y-15431462D01*
X11833815Y-15417176D01*
X11776673Y-15417176D01*
X11748101Y-15431462D01*
X11876673Y-15602890D02*
X11848101Y-15617176D01*
X11776673Y-15617176D01*
X11748101Y-15602890D01*
X11733815Y-15574319D01*
X11733815Y-15545748D01*
X11748101Y-15517176D01*
X11776673Y-15502890D01*
X11848101Y-15502890D01*
X11876673Y-15488605D01*
X12019530Y-15417176D02*
X12019530Y-15717176D01*
X12019530Y-15431462D02*
X12048101Y-15417176D01*
X12105244Y-15417176D01*
X12133815Y-15431462D01*
X12148101Y-15445748D01*
X12162387Y-15474319D01*
X12162387Y-15560033D01*
X12148101Y-15588605D01*
X12133815Y-15602890D01*
X12105244Y-15617176D01*
X12048101Y-15617176D01*
X12019530Y-15602890D01*
X12290958Y-15588605D02*
X12305244Y-15602890D01*
X12290958Y-15617176D01*
X12276673Y-15602890D01*
X12290958Y-15588605D01*
X12290958Y-15617176D01*
X12290958Y-15431462D02*
X12305244Y-15445748D01*
X12290958Y-15460033D01*
X12276673Y-15445748D01*
X12290958Y-15431462D01*
X12290958Y-15460033D01*
M02*
