M48
; DRILL file {KiCad (5.1.10)-1} date 10/20/21 08:10:00
; FORMAT={-:-/ absolute / inch / decimal}
; #@! TF.CreationDate,2021-10-20T08:10:00-05:00
; #@! TF.GenerationSoftware,Kicad,Pcbnew,(5.1.10)-1
; #@! TF.FileFunction,Plated,1,2,PTH
FMAT,2
INCH
T1C0.0299
T2C0.0472
T3C0.0512
T4C0.1260
%
G90
G05
T1
X4.0702Y-2.8557
X4.0702Y-3.4892
X4.0702Y-4.1226
X4.0702Y-4.7561
X4.0702Y-5.3896
X4.645Y-2.8557
X4.645Y-3.4892
X4.645Y-4.1226
X4.645Y-4.7561
X4.645Y-5.3896
X4.7476Y-2.8557
X4.7476Y-3.4892
X4.7476Y-4.1226
X4.7476Y-4.7561
X4.7476Y-5.3896
X5.3224Y-2.8557
X5.3224Y-3.4892
X5.3224Y-4.1226
X5.3224Y-4.7561
X5.3224Y-5.3896
X5.4249Y-2.8557
X5.4249Y-3.4892
X5.4249Y-4.1226
X5.4249Y-4.7561
X5.4249Y-5.3896
X5.9997Y-2.8557
X5.9997Y-3.4892
X5.9997Y-4.1226
X5.9997Y-4.7561
X5.9997Y-5.3896
X6.1023Y-2.8557
X6.1023Y-3.4892
X6.1023Y-4.1226
X6.1023Y-4.7561
X6.1023Y-5.3896
X6.6771Y-2.8557
X6.6771Y-3.4892
X6.6771Y-4.1226
X6.6771Y-4.7561
X6.6771Y-5.3896
T2
X4.2602Y-2.6081
X4.2602Y-3.1001
X4.2602Y-3.2416
X4.2602Y-3.7336
X4.2602Y-3.875
X4.2602Y-4.367
X4.2602Y-4.5085
X4.2602Y-5.0005
X4.2602Y-5.142
X4.2602Y-5.634
X4.457Y-2.6081
X4.457Y-3.1001
X4.457Y-3.2416
X4.457Y-3.7336
X4.457Y-3.875
X4.457Y-4.367
X4.457Y-4.5085
X4.457Y-5.0005
X4.457Y-5.142
X4.457Y-5.634
X4.9376Y-2.6081
X4.9376Y-3.1001
X4.9376Y-3.2416
X4.9376Y-3.7336
X4.9376Y-3.875
X4.9376Y-4.367
X4.9376Y-4.5085
X4.9376Y-5.0005
X4.9376Y-5.142
X4.9376Y-5.634
X5.1344Y-2.6081
X5.1344Y-3.1001
X5.1344Y-3.2416
X5.1344Y-3.7336
X5.1344Y-3.875
X5.1344Y-4.367
X5.1344Y-4.5085
X5.1344Y-5.0005
X5.1344Y-5.142
X5.1344Y-5.634
X5.6149Y-2.6081
X5.6149Y-3.1001
X5.6149Y-3.2416
X5.6149Y-3.7336
X5.6149Y-3.875
X5.6149Y-4.367
X5.6149Y-4.5085
X5.6149Y-5.0005
X5.6149Y-5.142
X5.6149Y-5.634
X5.8117Y-2.6081
X5.8117Y-3.1001
X5.8117Y-3.2416
X5.8117Y-3.7336
X5.8117Y-3.875
X5.8117Y-4.367
X5.8117Y-4.5085
X5.8117Y-5.0005
X5.8117Y-5.142
X5.8117Y-5.634
X6.2923Y-2.6081
X6.2923Y-3.1001
X6.2923Y-3.2416
X6.2923Y-3.7336
X6.2923Y-3.875
X6.2923Y-4.367
X6.2923Y-4.5085
X6.2923Y-5.0005
X6.2923Y-5.142
X6.2923Y-5.634
X6.4891Y-2.6081
X6.4891Y-3.1001
X6.4891Y-3.2416
X6.4891Y-3.7336
X6.4891Y-3.875
X6.4891Y-4.367
X6.4891Y-4.5085
X6.4891Y-5.0005
X6.4891Y-5.142
X6.4891Y-5.634
T3
X6.9584Y-2.8585
X6.9584Y-3.0554
X6.9584Y-3.2522
X6.9584Y-3.4491
X6.9584Y-4.6528
X6.9584Y-4.8497
X6.9584Y-5.0465
X6.9584Y-5.2434
X6.9584Y-5.4402
T4
X4.0443Y-2.3979
X4.0459Y-5.8382
X7.0127Y-2.4005
X7.0143Y-5.8408
T0
M30
