%TF.GenerationSoftware,KiCad,Pcbnew,(5.1.10)-1*%
%TF.CreationDate,2021-10-20T08:10:08-05:00*%
%TF.ProjectId,Mk3,4d6b332e-6b69-4636-9164-5f7063625858,3*%
%TF.SameCoordinates,Original*%
%TF.FileFunction,Copper,L1,Top*%
%TF.FilePolarity,Positive*%
%FSLAX46Y46*%
G04 Gerber Fmt 4.6, Leading zero omitted, Abs format (unit mm)*
G04 Created by KiCad (PCBNEW (5.1.10)-1) date 2021-10-20 08:10:08*
%MOMM*%
%LPD*%
G01*
G04 APERTURE LIST*
%TA.AperFunction,ComponentPad*%
%ADD10C,5.700000*%
%TD*%
%TA.AperFunction,ComponentPad*%
%ADD11C,2.500000*%
%TD*%
%TA.AperFunction,ComponentPad*%
%ADD12R,2.500000X2.500000*%
%TD*%
%TA.AperFunction,ComponentPad*%
%ADD13C,2.159000*%
%TD*%
%TA.AperFunction,ComponentPad*%
%ADD14C,1.700000*%
%TD*%
%TA.AperFunction,ComponentPad*%
%ADD15R,1.700000X2.000000*%
%TD*%
%TA.AperFunction,Conductor*%
%ADD16C,0.152400*%
%TD*%
G04 APERTURE END LIST*
D10*
%TO.P,REF\u002A\u002A,1*%
%TO.N,N/C*%
X178163220Y-148356320D03*
%TD*%
%TO.P,REF\u002A\u002A,1*%
%TO.N,N/C*%
X102765860Y-148290280D03*
%TD*%
%TO.P,REF\u002A\u002A,1*%
%TO.N,N/C*%
X102725220Y-60906660D03*
%TD*%
%TO.P,REF\u002A\u002A,1*%
%TO.N,N/C*%
X178122580Y-60972700D03*
%TD*%
D11*
%TO.P,ST-ROW-1,5*%
%TO.N,Net-(ST-ROW-1-Pad5)*%
X176743360Y-138181120D03*
%TO.P,ST-ROW-1,4*%
%TO.N,Net-(ST-ROW-1-Pad4)*%
X176743360Y-133181120D03*
%TO.P,ST-ROW-1,3*%
%TO.N,Net-(ST-ROW-1-Pad3)*%
X176743360Y-128181120D03*
%TO.P,ST-ROW-1,2*%
%TO.N,Net-(ST-ROW-1-Pad2)*%
X176743360Y-123181120D03*
D12*
%TO.P,ST-ROW-1,1*%
%TO.N,Net-(ST-ROW-1-Pad1)*%
X176743360Y-118181120D03*
%TD*%
D11*
%TO.P,ST-COL-1,4*%
%TO.N,Net-(DO-12-Pad1)*%
X176743360Y-87605900D03*
%TO.P,ST-COL-1,3*%
%TO.N,Net-(DO-11-Pad1)*%
X176743360Y-82605900D03*
%TO.P,ST-COL-1,2*%
%TO.N,Net-(DO-10-Pad1)*%
X176743360Y-77605900D03*
D12*
%TO.P,ST-COL-1,1*%
%TO.N,Net-(DO-1-Pad1)*%
X176743360Y-72605900D03*
%TD*%
D13*
%TO.P,TS-20,1*%
%TO.N,Net-(DO-20-Pad2)*%
X164822800Y-130605740D03*
%TO.P,TS-20,2*%
%TO.N,N/C*%
X164822800Y-143102540D03*
%TO.P,TS-20,3*%
%TO.N,Net-(ST-ROW-1-Pad5)*%
X159824080Y-130605740D03*
%TO.P,TS-20,4*%
%TO.N,N/C*%
X159824080Y-143102540D03*
%TD*%
%TO.P,TS-19,1*%
%TO.N,Net-(DO-19-Pad2)*%
X147617800Y-130605740D03*
%TO.P,TS-19,2*%
%TO.N,N/C*%
X147617800Y-143102540D03*
%TO.P,TS-19,3*%
%TO.N,Net-(ST-ROW-1-Pad5)*%
X142619080Y-130605740D03*
%TO.P,TS-19,4*%
%TO.N,N/C*%
X142619080Y-143102540D03*
%TD*%
%TO.P,TS-18,1*%
%TO.N,Net-(DO-18-Pad2)*%
X130412800Y-130605740D03*
%TO.P,TS-18,2*%
%TO.N,N/C*%
X130412800Y-143102540D03*
%TO.P,TS-18,3*%
%TO.N,Net-(ST-ROW-1-Pad5)*%
X125414080Y-130605740D03*
%TO.P,TS-18,4*%
%TO.N,N/C*%
X125414080Y-143102540D03*
%TD*%
%TO.P,TS-17,1*%
%TO.N,Net-(DO-17-Pad2)*%
X113207800Y-130605740D03*
%TO.P,TS-17,2*%
%TO.N,N/C*%
X113207800Y-143102540D03*
%TO.P,TS-17,3*%
%TO.N,Net-(ST-ROW-1-Pad5)*%
X108209080Y-130605740D03*
%TO.P,TS-17,4*%
%TO.N,N/C*%
X108209080Y-143102540D03*
%TD*%
%TO.P,TS-16,1*%
%TO.N,Net-(DO-16-Pad2)*%
X164822800Y-114515740D03*
%TO.P,TS-16,2*%
%TO.N,N/C*%
X164822800Y-127012540D03*
%TO.P,TS-16,3*%
%TO.N,Net-(ST-ROW-1-Pad4)*%
X159824080Y-114515740D03*
%TO.P,TS-16,4*%
%TO.N,N/C*%
X159824080Y-127012540D03*
%TD*%
%TO.P,TS-15,1*%
%TO.N,Net-(DO-15-Pad2)*%
X147617800Y-114515740D03*
%TO.P,TS-15,2*%
%TO.N,N/C*%
X147617800Y-127012540D03*
%TO.P,TS-15,3*%
%TO.N,Net-(ST-ROW-1-Pad4)*%
X142619080Y-114515740D03*
%TO.P,TS-15,4*%
%TO.N,N/C*%
X142619080Y-127012540D03*
%TD*%
%TO.P,TS-14,1*%
%TO.N,Net-(DO-14-Pad2)*%
X130412800Y-114515740D03*
%TO.P,TS-14,2*%
%TO.N,N/C*%
X130412800Y-127012540D03*
%TO.P,TS-14,3*%
%TO.N,Net-(ST-ROW-1-Pad4)*%
X125414080Y-114515740D03*
%TO.P,TS-14,4*%
%TO.N,N/C*%
X125414080Y-127012540D03*
%TD*%
%TO.P,TS-13,1*%
%TO.N,Net-(DO-13-Pad2)*%
X113207800Y-114515740D03*
%TO.P,TS-13,2*%
%TO.N,N/C*%
X113207800Y-127012540D03*
%TO.P,TS-13,3*%
%TO.N,Net-(ST-ROW-1-Pad4)*%
X108209080Y-114515740D03*
%TO.P,TS-13,4*%
%TO.N,N/C*%
X108209080Y-127012540D03*
%TD*%
%TO.P,TS-12,1*%
%TO.N,Net-(DO-12-Pad2)*%
X164822800Y-98425740D03*
%TO.P,TS-12,2*%
%TO.N,N/C*%
X164822800Y-110922540D03*
%TO.P,TS-12,3*%
%TO.N,Net-(ST-ROW-1-Pad3)*%
X159824080Y-98425740D03*
%TO.P,TS-12,4*%
%TO.N,N/C*%
X159824080Y-110922540D03*
%TD*%
%TO.P,TS-11,1*%
%TO.N,Net-(DO-11-Pad2)*%
X147617800Y-98425740D03*
%TO.P,TS-11,2*%
%TO.N,N/C*%
X147617800Y-110922540D03*
%TO.P,TS-11,3*%
%TO.N,Net-(ST-ROW-1-Pad3)*%
X142619080Y-98425740D03*
%TO.P,TS-11,4*%
%TO.N,N/C*%
X142619080Y-110922540D03*
%TD*%
%TO.P,TS-10,1*%
%TO.N,Net-(DO-10-Pad2)*%
X130412800Y-98425740D03*
%TO.P,TS-10,2*%
%TO.N,N/C*%
X130412800Y-110922540D03*
%TO.P,TS-10,3*%
%TO.N,Net-(ST-ROW-1-Pad3)*%
X125414080Y-98425740D03*
%TO.P,TS-10,4*%
%TO.N,N/C*%
X125414080Y-110922540D03*
%TD*%
%TO.P,TS-9,1*%
%TO.N,Net-(DO-9-Pad2)*%
X113207800Y-98425740D03*
%TO.P,TS-9,2*%
%TO.N,N/C*%
X113207800Y-110922540D03*
%TO.P,TS-9,3*%
%TO.N,Net-(ST-ROW-1-Pad3)*%
X108209080Y-98425740D03*
%TO.P,TS-9,4*%
%TO.N,N/C*%
X108209080Y-110922540D03*
%TD*%
%TO.P,TS-8,1*%
%TO.N,Net-(DO-8-Pad2)*%
X164822800Y-82335740D03*
%TO.P,TS-8,2*%
%TO.N,N/C*%
X164822800Y-94832540D03*
%TO.P,TS-8,3*%
%TO.N,Net-(ST-ROW-1-Pad2)*%
X159824080Y-82335740D03*
%TO.P,TS-8,4*%
%TO.N,N/C*%
X159824080Y-94832540D03*
%TD*%
%TO.P,TS-7,1*%
%TO.N,Net-(DO-7-Pad2)*%
X147617800Y-82335740D03*
%TO.P,TS-7,2*%
%TO.N,N/C*%
X147617800Y-94832540D03*
%TO.P,TS-7,3*%
%TO.N,Net-(ST-ROW-1-Pad2)*%
X142619080Y-82335740D03*
%TO.P,TS-7,4*%
%TO.N,N/C*%
X142619080Y-94832540D03*
%TD*%
%TO.P,TS-6,1*%
%TO.N,Net-(DO-6-Pad2)*%
X130412800Y-82335740D03*
%TO.P,TS-6,2*%
%TO.N,N/C*%
X130412800Y-94832540D03*
%TO.P,TS-6,3*%
%TO.N,Net-(ST-ROW-1-Pad2)*%
X125414080Y-82335740D03*
%TO.P,TS-6,4*%
%TO.N,N/C*%
X125414080Y-94832540D03*
%TD*%
%TO.P,TS-5,1*%
%TO.N,Net-(DO-5-Pad2)*%
X113207800Y-82335740D03*
%TO.P,TS-5,2*%
%TO.N,N/C*%
X113207800Y-94832540D03*
%TO.P,TS-5,3*%
%TO.N,Net-(ST-ROW-1-Pad2)*%
X108209080Y-82335740D03*
%TO.P,TS-5,4*%
%TO.N,N/C*%
X108209080Y-94832540D03*
%TD*%
%TO.P,TS-4,1*%
%TO.N,Net-(DO-4-Pad2)*%
X164822800Y-66245740D03*
%TO.P,TS-4,2*%
%TO.N,N/C*%
X164822800Y-78742540D03*
%TO.P,TS-4,3*%
%TO.N,Net-(ST-ROW-1-Pad1)*%
X159824080Y-66245740D03*
%TO.P,TS-4,4*%
%TO.N,N/C*%
X159824080Y-78742540D03*
%TD*%
%TO.P,TS-3,1*%
%TO.N,Net-(DO-3-Pad2)*%
X147617800Y-66245740D03*
%TO.P,TS-3,2*%
%TO.N,N/C*%
X147617800Y-78742540D03*
%TO.P,TS-3,3*%
%TO.N,Net-(ST-ROW-1-Pad1)*%
X142619080Y-66245740D03*
%TO.P,TS-3,4*%
%TO.N,N/C*%
X142619080Y-78742540D03*
%TD*%
%TO.P,TS-2,1*%
%TO.N,Net-(DO-2-Pad2)*%
X130412800Y-66245740D03*
%TO.P,TS-2,2*%
%TO.N,N/C*%
X130412800Y-78742540D03*
%TO.P,TS-2,3*%
%TO.N,Net-(ST-ROW-1-Pad1)*%
X125414080Y-66245740D03*
%TO.P,TS-2,4*%
%TO.N,N/C*%
X125414080Y-78742540D03*
%TD*%
D14*
%TO.P,DO-20,2*%
%TO.N,Net-(DO-20-Pad2)*%
X169598600Y-136894780D03*
D15*
%TO.P,DO-20,1*%
%TO.N,Net-(DO-12-Pad1)*%
X154998600Y-136894780D03*
%TD*%
D14*
%TO.P,DO-19,2*%
%TO.N,Net-(DO-19-Pad2)*%
X152393600Y-136894780D03*
D15*
%TO.P,DO-19,1*%
%TO.N,Net-(DO-11-Pad1)*%
X137793600Y-136894780D03*
%TD*%
D14*
%TO.P,DO-18,2*%
%TO.N,Net-(DO-18-Pad2)*%
X135188600Y-136894780D03*
D15*
%TO.P,DO-18,1*%
%TO.N,Net-(DO-10-Pad1)*%
X120588600Y-136894780D03*
%TD*%
D14*
%TO.P,DO-17,2*%
%TO.N,Net-(DO-17-Pad2)*%
X117983600Y-136894780D03*
D15*
%TO.P,DO-17,1*%
%TO.N,Net-(DO-1-Pad1)*%
X103383600Y-136894780D03*
%TD*%
D14*
%TO.P,DO-16,2*%
%TO.N,Net-(DO-16-Pad2)*%
X169598600Y-120804780D03*
D15*
%TO.P,DO-16,1*%
%TO.N,Net-(DO-12-Pad1)*%
X154998600Y-120804780D03*
%TD*%
D14*
%TO.P,DO-15,2*%
%TO.N,Net-(DO-15-Pad2)*%
X152393600Y-120804780D03*
D15*
%TO.P,DO-15,1*%
%TO.N,Net-(DO-11-Pad1)*%
X137793600Y-120804780D03*
%TD*%
D14*
%TO.P,DO-14,2*%
%TO.N,Net-(DO-14-Pad2)*%
X135188600Y-120804780D03*
D15*
%TO.P,DO-14,1*%
%TO.N,Net-(DO-10-Pad1)*%
X120588600Y-120804780D03*
%TD*%
D14*
%TO.P,DO-13,2*%
%TO.N,Net-(DO-13-Pad2)*%
X117983600Y-120804780D03*
D15*
%TO.P,DO-13,1*%
%TO.N,Net-(DO-1-Pad1)*%
X103383600Y-120804780D03*
%TD*%
D14*
%TO.P,DO-12,2*%
%TO.N,Net-(DO-12-Pad2)*%
X169598600Y-104714780D03*
D15*
%TO.P,DO-12,1*%
%TO.N,Net-(DO-12-Pad1)*%
X154998600Y-104714780D03*
%TD*%
D14*
%TO.P,DO-11,2*%
%TO.N,Net-(DO-11-Pad2)*%
X152393600Y-104714780D03*
D15*
%TO.P,DO-11,1*%
%TO.N,Net-(DO-11-Pad1)*%
X137793600Y-104714780D03*
%TD*%
D14*
%TO.P,DO-10,2*%
%TO.N,Net-(DO-10-Pad2)*%
X135188600Y-104714780D03*
D15*
%TO.P,DO-10,1*%
%TO.N,Net-(DO-10-Pad1)*%
X120588600Y-104714780D03*
%TD*%
D14*
%TO.P,DO-9,2*%
%TO.N,Net-(DO-9-Pad2)*%
X117983600Y-104714780D03*
D15*
%TO.P,DO-9,1*%
%TO.N,Net-(DO-1-Pad1)*%
X103383600Y-104714780D03*
%TD*%
D14*
%TO.P,DO-8,2*%
%TO.N,Net-(DO-8-Pad2)*%
X169598600Y-88624780D03*
D15*
%TO.P,DO-8,1*%
%TO.N,Net-(DO-12-Pad1)*%
X154998600Y-88624780D03*
%TD*%
D14*
%TO.P,DO-7,2*%
%TO.N,Net-(DO-7-Pad2)*%
X152393600Y-88624780D03*
D15*
%TO.P,DO-7,1*%
%TO.N,Net-(DO-11-Pad1)*%
X137793600Y-88624780D03*
%TD*%
D14*
%TO.P,DO-6,2*%
%TO.N,Net-(DO-6-Pad2)*%
X135188600Y-88624780D03*
D15*
%TO.P,DO-6,1*%
%TO.N,Net-(DO-10-Pad1)*%
X120588600Y-88624780D03*
%TD*%
D14*
%TO.P,DO-5,2*%
%TO.N,Net-(DO-5-Pad2)*%
X117983600Y-88624780D03*
D15*
%TO.P,DO-5,1*%
%TO.N,Net-(DO-1-Pad1)*%
X103383600Y-88624780D03*
%TD*%
D14*
%TO.P,DO-4,2*%
%TO.N,Net-(DO-4-Pad2)*%
X169598600Y-72534780D03*
D15*
%TO.P,DO-4,1*%
%TO.N,Net-(DO-12-Pad1)*%
X154998600Y-72534780D03*
%TD*%
D14*
%TO.P,DO-3,2*%
%TO.N,Net-(DO-3-Pad2)*%
X152393600Y-72534780D03*
D15*
%TO.P,DO-3,1*%
%TO.N,Net-(DO-11-Pad1)*%
X137793600Y-72534780D03*
%TD*%
D14*
%TO.P,DO-2,2*%
%TO.N,Net-(DO-2-Pad2)*%
X135188600Y-72534780D03*
D15*
%TO.P,DO-2,1*%
%TO.N,Net-(DO-10-Pad1)*%
X120588600Y-72534780D03*
%TD*%
D13*
%TO.P,TS-1,4*%
%TO.N,N/C*%
X108209080Y-78742540D03*
%TO.P,TS-1,3*%
%TO.N,Net-(ST-ROW-1-Pad1)*%
X108209080Y-66245740D03*
%TO.P,TS-1,2*%
%TO.N,N/C*%
X113207800Y-78742540D03*
%TO.P,TS-1,1*%
%TO.N,Net-(DO-1-Pad2)*%
X113207800Y-66245740D03*
%TD*%
D15*
%TO.P,DO-1,1*%
%TO.N,Net-(DO-1-Pad1)*%
X103383600Y-72534780D03*
D14*
%TO.P,DO-1,2*%
%TO.N,Net-(DO-1-Pad2)*%
X117983600Y-72534780D03*
%TD*%
D16*
%TO.N,Net-(ST-ROW-1-Pad1)*%
X158515979Y-64937639D02*
X159824080Y-66245740D01*
X108209080Y-66245740D02*
X109517181Y-64937639D01*
X123789440Y-66245740D02*
X122481339Y-64937639D01*
X125414080Y-66245740D02*
X123789440Y-66245740D01*
X109517181Y-64937639D02*
X122481339Y-64937639D01*
X140649960Y-66245740D02*
X139341859Y-64937639D01*
X142619080Y-66245740D02*
X140649960Y-66245740D01*
X139341859Y-64937639D02*
X158515979Y-64937639D01*
X122481339Y-64937639D02*
X139341859Y-64937639D01*
X168519999Y-109957759D02*
X176743360Y-118181120D01*
X168519999Y-74941659D02*
X168519999Y-109957759D01*
X159824080Y-66245740D02*
X168519999Y-74941659D01*
%TO.N,Net-(ST-ROW-1-Pad2)*%
X158515979Y-81027639D02*
X159824080Y-82335740D01*
X108209080Y-82335740D02*
X109517181Y-81027639D01*
X123858922Y-82335740D02*
X122550821Y-81027639D01*
X125414080Y-82335740D02*
X123858922Y-82335740D01*
X109517181Y-81027639D02*
X122550821Y-81027639D01*
X140979260Y-82335740D02*
X139671159Y-81027639D01*
X142619080Y-82335740D02*
X140979260Y-82335740D01*
X139671159Y-81027639D02*
X158515979Y-81027639D01*
X122550821Y-81027639D02*
X139671159Y-81027639D01*
X166769879Y-113207639D02*
X176743360Y-123181120D01*
X165171909Y-113207639D02*
X166769879Y-113207639D01*
X163514699Y-111550429D02*
X165171909Y-113207639D01*
X163514699Y-100180369D02*
X163514699Y-111550429D01*
X159516170Y-96181840D02*
X163514699Y-100180369D01*
X159237390Y-96181840D02*
X159516170Y-96181840D01*
X158515979Y-83643841D02*
X158515979Y-95460429D01*
X158515979Y-95460429D02*
X159237390Y-96181840D01*
X159824080Y-82335740D02*
X158515979Y-83643841D01*
%TO.N,Net-(ST-ROW-1-Pad3)*%
X158515979Y-97117639D02*
X159824080Y-98425740D01*
X108209080Y-98425740D02*
X109517181Y-97117639D01*
X123780020Y-98425740D02*
X122471919Y-97117639D01*
X125414080Y-98425740D02*
X123780020Y-98425740D01*
X109517181Y-97117639D02*
X122471919Y-97117639D01*
X140825960Y-98425740D02*
X139517859Y-97117639D01*
X142619080Y-98425740D02*
X140825960Y-98425740D01*
X139517859Y-97117639D02*
X158515979Y-97117639D01*
X122471919Y-97117639D02*
X139517859Y-97117639D01*
X174975594Y-128181120D02*
X176743360Y-128181120D01*
X161132181Y-114337707D02*
X174975594Y-128181120D01*
X161132181Y-99733841D02*
X161132181Y-114337707D01*
X159824080Y-98425740D02*
X161132181Y-99733841D01*
%TO.N,Net-(ST-ROW-1-Pad4)*%
X158515979Y-113207639D02*
X159824080Y-114515740D01*
X108209080Y-114515740D02*
X109517181Y-113207639D01*
X123847700Y-114515740D02*
X122539599Y-113207639D01*
X125414080Y-114515740D02*
X123847700Y-114515740D01*
X109517181Y-113207639D02*
X122539599Y-113207639D01*
X142619080Y-114515740D02*
X141087002Y-114515740D01*
X141087002Y-114515740D02*
X139778901Y-113207639D01*
X139778901Y-113207639D02*
X158515979Y-113207639D01*
X122539599Y-113207639D02*
X139778901Y-113207639D01*
X159824080Y-116261840D02*
X176743360Y-133181120D01*
X159824080Y-114515740D02*
X159824080Y-116261840D01*
%TO.N,Net-(ST-ROW-1-Pad5)*%
X158515979Y-129297639D02*
X159824080Y-130605740D01*
X108209080Y-130605740D02*
X109517181Y-129297639D01*
X123864162Y-130605740D02*
X122556061Y-129297639D01*
X125414080Y-130605740D02*
X123864162Y-130605740D01*
X109517181Y-129297639D02*
X122556061Y-129297639D01*
X141085780Y-130605740D02*
X139777679Y-129297639D01*
X142619080Y-130605740D02*
X141085780Y-130605740D01*
X139777679Y-129297639D02*
X158515979Y-129297639D01*
X122556061Y-129297639D02*
X139777679Y-129297639D01*
X170476081Y-131913841D02*
X176743360Y-138181120D01*
X161132181Y-131913841D02*
X170476081Y-131913841D01*
X159824080Y-130605740D02*
X161132181Y-131913841D01*
%TD*%
M02*
