%FSLAX45Y45*%
G04 Gerber Fmt 4.5, Leading zero omitted, Abs format (unit mm)*
G04 Created by KiCad (PCBNEW (5.1.10)-1) date 2021-10-20 08:09:59*
%MOMM*%
%LPD*%
G01*
G04 APERTURE LIST*
%TA.AperFunction,Profile*%
%ADD10C,0.050000*%
%TD*%
%ADD11C,0.200000*%
%ADD12C,0.300000*%
G04 APERTURE END LIST*
D10*
X18138648Y-14800072D02*
X18138235Y-6109877D01*
X9950450Y-14816582D02*
X9950035Y-6126067D01*
X17806416Y-15148814D02*
X10299192Y-15148814D01*
X18138809Y-14800231D02*
G75*
G02*
X17806416Y-15148814I-338489J-10001D01*
G01*
X10299192Y-15148814D02*
G75*
G02*
X9950609Y-14816421I-10001J338489D01*
G01*
X17789652Y-5777484D02*
G75*
G02*
X18138235Y-6109877I10001J-338489D01*
G01*
X9950035Y-6126067D02*
G75*
G02*
X10282428Y-5777484I338489J10001D01*
G01*
X10282428Y-5777484D02*
X17789652Y-5777484D01*
D11*
X10300360Y-7215478D02*
X10376360Y-7291478D01*
X10376360Y-7215478D02*
X10300360Y-7291478D01*
X10300360Y-8824478D02*
X10376360Y-8900478D01*
X10376360Y-8824478D02*
X10300360Y-8900478D01*
X10300360Y-10433478D02*
X10376360Y-10509478D01*
X10376360Y-10433478D02*
X10300360Y-10509478D01*
X10300360Y-12042478D02*
X10376360Y-12118478D01*
X10376360Y-12042478D02*
X10300360Y-12118478D01*
X10300360Y-13651478D02*
X10376360Y-13727478D01*
X10376360Y-13651478D02*
X10300360Y-13727478D01*
X11760360Y-7215478D02*
X11836360Y-7291478D01*
X11836360Y-7215478D02*
X11760360Y-7291478D01*
X11760360Y-8824478D02*
X11836360Y-8900478D01*
X11836360Y-8824478D02*
X11760360Y-8900478D01*
X11760360Y-10433478D02*
X11836360Y-10509478D01*
X11836360Y-10433478D02*
X11760360Y-10509478D01*
X11760360Y-12042478D02*
X11836360Y-12118478D01*
X11836360Y-12042478D02*
X11760360Y-12118478D01*
X11760360Y-13651478D02*
X11836360Y-13727478D01*
X11836360Y-13651478D02*
X11760360Y-13727478D01*
X12020860Y-7215478D02*
X12096860Y-7291478D01*
X12096860Y-7215478D02*
X12020860Y-7291478D01*
X12020860Y-8824478D02*
X12096860Y-8900478D01*
X12096860Y-8824478D02*
X12020860Y-8900478D01*
X12020860Y-10433478D02*
X12096860Y-10509478D01*
X12096860Y-10433478D02*
X12020860Y-10509478D01*
X12020860Y-12042478D02*
X12096860Y-12118478D01*
X12096860Y-12042478D02*
X12020860Y-12118478D01*
X12020860Y-13651478D02*
X12096860Y-13727478D01*
X12096860Y-13651478D02*
X12020860Y-13727478D01*
X13480860Y-7215478D02*
X13556860Y-7291478D01*
X13556860Y-7215478D02*
X13480860Y-7291478D01*
X13480860Y-8824478D02*
X13556860Y-8900478D01*
X13556860Y-8824478D02*
X13480860Y-8900478D01*
X13480860Y-10433478D02*
X13556860Y-10509478D01*
X13556860Y-10433478D02*
X13480860Y-10509478D01*
X13480860Y-12042478D02*
X13556860Y-12118478D01*
X13556860Y-12042478D02*
X13480860Y-12118478D01*
X13480860Y-13651478D02*
X13556860Y-13727478D01*
X13556860Y-13651478D02*
X13480860Y-13727478D01*
X13741360Y-7215478D02*
X13817360Y-7291478D01*
X13817360Y-7215478D02*
X13741360Y-7291478D01*
X13741360Y-8824478D02*
X13817360Y-8900478D01*
X13817360Y-8824478D02*
X13741360Y-8900478D01*
X13741360Y-10433478D02*
X13817360Y-10509478D01*
X13817360Y-10433478D02*
X13741360Y-10509478D01*
X13741360Y-12042478D02*
X13817360Y-12118478D01*
X13817360Y-12042478D02*
X13741360Y-12118478D01*
X13741360Y-13651478D02*
X13817360Y-13727478D01*
X13817360Y-13651478D02*
X13741360Y-13727478D01*
X15201360Y-7215478D02*
X15277360Y-7291478D01*
X15277360Y-7215478D02*
X15201360Y-7291478D01*
X15201360Y-8824478D02*
X15277360Y-8900478D01*
X15277360Y-8824478D02*
X15201360Y-8900478D01*
X15201360Y-10433478D02*
X15277360Y-10509478D01*
X15277360Y-10433478D02*
X15201360Y-10509478D01*
X15201360Y-12042478D02*
X15277360Y-12118478D01*
X15277360Y-12042478D02*
X15201360Y-12118478D01*
X15201360Y-13651478D02*
X15277360Y-13727478D01*
X15277360Y-13651478D02*
X15201360Y-13727478D01*
X15461860Y-7215478D02*
X15537860Y-7291478D01*
X15537860Y-7215478D02*
X15461860Y-7291478D01*
X15461860Y-8824478D02*
X15537860Y-8900478D01*
X15537860Y-8824478D02*
X15461860Y-8900478D01*
X15461860Y-10433478D02*
X15537860Y-10509478D01*
X15537860Y-10433478D02*
X15461860Y-10509478D01*
X15461860Y-12042478D02*
X15537860Y-12118478D01*
X15537860Y-12042478D02*
X15461860Y-12118478D01*
X15461860Y-13651478D02*
X15537860Y-13727478D01*
X15537860Y-13651478D02*
X15461860Y-13727478D01*
X16921860Y-7215478D02*
X16997860Y-7291478D01*
X16997860Y-7215478D02*
X16921860Y-7291478D01*
X16921860Y-8824478D02*
X16997860Y-8900478D01*
X16997860Y-8824478D02*
X16921860Y-8900478D01*
X16921860Y-10433478D02*
X16997860Y-10509478D01*
X16997860Y-10433478D02*
X16921860Y-10509478D01*
X16921860Y-12042478D02*
X16997860Y-12118478D01*
X16997860Y-12042478D02*
X16921860Y-12118478D01*
X16921860Y-13651478D02*
X16997860Y-13727478D01*
X16997860Y-13651478D02*
X16921860Y-13727478D01*
X10880852Y-6624574D02*
G75*
G03*
X10880852Y-6624574I-59944J0D01*
G01*
X10880852Y-7874254D02*
G75*
G03*
X10880852Y-7874254I-59944J0D01*
G01*
X10880852Y-8233574D02*
G75*
G03*
X10880852Y-8233574I-59944J0D01*
G01*
X10880852Y-9483254D02*
G75*
G03*
X10880852Y-9483254I-59944J0D01*
G01*
X10880852Y-9842574D02*
G75*
G03*
X10880852Y-9842574I-59944J0D01*
G01*
X10880852Y-11092254D02*
G75*
G03*
X10880852Y-11092254I-59944J0D01*
G01*
X10880852Y-11451574D02*
G75*
G03*
X10880852Y-11451574I-59944J0D01*
G01*
X10880852Y-12701254D02*
G75*
G03*
X10880852Y-12701254I-59944J0D01*
G01*
X10880852Y-13060574D02*
G75*
G03*
X10880852Y-13060574I-59944J0D01*
G01*
X10880852Y-14310254D02*
G75*
G03*
X10880852Y-14310254I-59944J0D01*
G01*
X11380724Y-6624574D02*
G75*
G03*
X11380724Y-6624574I-59944J0D01*
G01*
X11380724Y-7874254D02*
G75*
G03*
X11380724Y-7874254I-59944J0D01*
G01*
X11380724Y-8233574D02*
G75*
G03*
X11380724Y-8233574I-59944J0D01*
G01*
X11380724Y-9483254D02*
G75*
G03*
X11380724Y-9483254I-59944J0D01*
G01*
X11380724Y-9842574D02*
G75*
G03*
X11380724Y-9842574I-59944J0D01*
G01*
X11380724Y-11092254D02*
G75*
G03*
X11380724Y-11092254I-59944J0D01*
G01*
X11380724Y-11451574D02*
G75*
G03*
X11380724Y-11451574I-59944J0D01*
G01*
X11380724Y-12701254D02*
G75*
G03*
X11380724Y-12701254I-59944J0D01*
G01*
X11380724Y-13060574D02*
G75*
G03*
X11380724Y-13060574I-59944J0D01*
G01*
X11380724Y-14310254D02*
G75*
G03*
X11380724Y-14310254I-59944J0D01*
G01*
X12601352Y-6624574D02*
G75*
G03*
X12601352Y-6624574I-59944J0D01*
G01*
X12601352Y-7874254D02*
G75*
G03*
X12601352Y-7874254I-59944J0D01*
G01*
X12601352Y-8233574D02*
G75*
G03*
X12601352Y-8233574I-59944J0D01*
G01*
X12601352Y-9483254D02*
G75*
G03*
X12601352Y-9483254I-59944J0D01*
G01*
X12601352Y-9842574D02*
G75*
G03*
X12601352Y-9842574I-59944J0D01*
G01*
X12601352Y-11092254D02*
G75*
G03*
X12601352Y-11092254I-59944J0D01*
G01*
X12601352Y-11451574D02*
G75*
G03*
X12601352Y-11451574I-59944J0D01*
G01*
X12601352Y-12701254D02*
G75*
G03*
X12601352Y-12701254I-59944J0D01*
G01*
X12601352Y-13060574D02*
G75*
G03*
X12601352Y-13060574I-59944J0D01*
G01*
X12601352Y-14310254D02*
G75*
G03*
X12601352Y-14310254I-59944J0D01*
G01*
X13101224Y-6624574D02*
G75*
G03*
X13101224Y-6624574I-59944J0D01*
G01*
X13101224Y-7874254D02*
G75*
G03*
X13101224Y-7874254I-59944J0D01*
G01*
X13101224Y-8233574D02*
G75*
G03*
X13101224Y-8233574I-59944J0D01*
G01*
X13101224Y-9483254D02*
G75*
G03*
X13101224Y-9483254I-59944J0D01*
G01*
X13101224Y-9842574D02*
G75*
G03*
X13101224Y-9842574I-59944J0D01*
G01*
X13101224Y-11092254D02*
G75*
G03*
X13101224Y-11092254I-59944J0D01*
G01*
X13101224Y-11451574D02*
G75*
G03*
X13101224Y-11451574I-59944J0D01*
G01*
X13101224Y-12701254D02*
G75*
G03*
X13101224Y-12701254I-59944J0D01*
G01*
X13101224Y-13060574D02*
G75*
G03*
X13101224Y-13060574I-59944J0D01*
G01*
X13101224Y-14310254D02*
G75*
G03*
X13101224Y-14310254I-59944J0D01*
G01*
X14321852Y-6624574D02*
G75*
G03*
X14321852Y-6624574I-59944J0D01*
G01*
X14321852Y-7874254D02*
G75*
G03*
X14321852Y-7874254I-59944J0D01*
G01*
X14321852Y-8233574D02*
G75*
G03*
X14321852Y-8233574I-59944J0D01*
G01*
X14321852Y-9483254D02*
G75*
G03*
X14321852Y-9483254I-59944J0D01*
G01*
X14321852Y-9842574D02*
G75*
G03*
X14321852Y-9842574I-59944J0D01*
G01*
X14321852Y-11092254D02*
G75*
G03*
X14321852Y-11092254I-59944J0D01*
G01*
X14321852Y-11451574D02*
G75*
G03*
X14321852Y-11451574I-59944J0D01*
G01*
X14321852Y-12701254D02*
G75*
G03*
X14321852Y-12701254I-59944J0D01*
G01*
X14321852Y-13060574D02*
G75*
G03*
X14321852Y-13060574I-59944J0D01*
G01*
X14321852Y-14310254D02*
G75*
G03*
X14321852Y-14310254I-59944J0D01*
G01*
X14821724Y-6624574D02*
G75*
G03*
X14821724Y-6624574I-59944J0D01*
G01*
X14821724Y-7874254D02*
G75*
G03*
X14821724Y-7874254I-59944J0D01*
G01*
X14821724Y-8233574D02*
G75*
G03*
X14821724Y-8233574I-59944J0D01*
G01*
X14821724Y-9483254D02*
G75*
G03*
X14821724Y-9483254I-59944J0D01*
G01*
X14821724Y-9842574D02*
G75*
G03*
X14821724Y-9842574I-59944J0D01*
G01*
X14821724Y-11092254D02*
G75*
G03*
X14821724Y-11092254I-59944J0D01*
G01*
X14821724Y-11451574D02*
G75*
G03*
X14821724Y-11451574I-59944J0D01*
G01*
X14821724Y-12701254D02*
G75*
G03*
X14821724Y-12701254I-59944J0D01*
G01*
X14821724Y-13060574D02*
G75*
G03*
X14821724Y-13060574I-59944J0D01*
G01*
X14821724Y-14310254D02*
G75*
G03*
X14821724Y-14310254I-59944J0D01*
G01*
X16042352Y-6624574D02*
G75*
G03*
X16042352Y-6624574I-59944J0D01*
G01*
X16042352Y-7874254D02*
G75*
G03*
X16042352Y-7874254I-59944J0D01*
G01*
X16042352Y-8233574D02*
G75*
G03*
X16042352Y-8233574I-59944J0D01*
G01*
X16042352Y-9483254D02*
G75*
G03*
X16042352Y-9483254I-59944J0D01*
G01*
X16042352Y-9842574D02*
G75*
G03*
X16042352Y-9842574I-59944J0D01*
G01*
X16042352Y-11092254D02*
G75*
G03*
X16042352Y-11092254I-59944J0D01*
G01*
X16042352Y-11451574D02*
G75*
G03*
X16042352Y-11451574I-59944J0D01*
G01*
X16042352Y-12701254D02*
G75*
G03*
X16042352Y-12701254I-59944J0D01*
G01*
X16042352Y-13060574D02*
G75*
G03*
X16042352Y-13060574I-59944J0D01*
G01*
X16042352Y-14310254D02*
G75*
G03*
X16042352Y-14310254I-59944J0D01*
G01*
X16542224Y-6624574D02*
G75*
G03*
X16542224Y-6624574I-59944J0D01*
G01*
X16542224Y-7874254D02*
G75*
G03*
X16542224Y-7874254I-59944J0D01*
G01*
X16542224Y-8233574D02*
G75*
G03*
X16542224Y-8233574I-59944J0D01*
G01*
X16542224Y-9483254D02*
G75*
G03*
X16542224Y-9483254I-59944J0D01*
G01*
X16542224Y-9842574D02*
G75*
G03*
X16542224Y-9842574I-59944J0D01*
G01*
X16542224Y-11092254D02*
G75*
G03*
X16542224Y-11092254I-59944J0D01*
G01*
X16542224Y-11451574D02*
G75*
G03*
X16542224Y-11451574I-59944J0D01*
G01*
X16542224Y-12701254D02*
G75*
G03*
X16542224Y-12701254I-59944J0D01*
G01*
X16542224Y-13060574D02*
G75*
G03*
X16542224Y-13060574I-59944J0D01*
G01*
X16542224Y-14310254D02*
G75*
G03*
X16542224Y-14310254I-59944J0D01*
G01*
X17674336Y-7195590D02*
X17674336Y-7325590D01*
X17609336Y-7260590D02*
X17739336Y-7260590D01*
X17674336Y-7695590D02*
X17674336Y-7825590D01*
X17609336Y-7760590D02*
X17739336Y-7760590D01*
X17674336Y-8195590D02*
X17674336Y-8325590D01*
X17609336Y-8260590D02*
X17739336Y-8260590D01*
X17674336Y-8695590D02*
X17674336Y-8825590D01*
X17609336Y-8760590D02*
X17739336Y-8760590D01*
X17674336Y-11753112D02*
X17674336Y-11883112D01*
X17609336Y-11818112D02*
X17739336Y-11818112D01*
X17674336Y-12253112D02*
X17674336Y-12383112D01*
X17609336Y-12318112D02*
X17739336Y-12318112D01*
X17674336Y-12753112D02*
X17674336Y-12883112D01*
X17609336Y-12818112D02*
X17739336Y-12818112D01*
X17674336Y-13253112D02*
X17674336Y-13383112D01*
X17609336Y-13318112D02*
X17739336Y-13318112D01*
X17674336Y-13753112D02*
X17674336Y-13883112D01*
X17609336Y-13818112D02*
X17739336Y-13818112D01*
X10385660Y-6203804D02*
X10385660Y-5977528D01*
X10159384Y-5977528D01*
X10159384Y-6203804D01*
X10385660Y-6203804D01*
X10389724Y-14942166D02*
X10389724Y-14715890D01*
X10163448Y-14715890D01*
X10163448Y-14942166D01*
X10389724Y-14942166D01*
X17925396Y-6210408D02*
X17925396Y-5984132D01*
X17699120Y-5984132D01*
X17699120Y-6210408D01*
X17925396Y-6210408D01*
X17929460Y-14948770D02*
X17929460Y-14722494D01*
X17703184Y-14722494D01*
X17703184Y-14948770D01*
X17929460Y-14948770D01*
D12*
X10233816Y-15617176D02*
X10233816Y-15317176D01*
X10305244Y-15317176D01*
X10348101Y-15331462D01*
X10376673Y-15360033D01*
X10390958Y-15388605D01*
X10405244Y-15445748D01*
X10405244Y-15488605D01*
X10390958Y-15545748D01*
X10376673Y-15574319D01*
X10348101Y-15602890D01*
X10305244Y-15617176D01*
X10233816Y-15617176D01*
X10533816Y-15617176D02*
X10533816Y-15417176D01*
X10533816Y-15474319D02*
X10548101Y-15445748D01*
X10562387Y-15431462D01*
X10590958Y-15417176D01*
X10619530Y-15417176D01*
X10719530Y-15617176D02*
X10719530Y-15417176D01*
X10719530Y-15317176D02*
X10705244Y-15331462D01*
X10719530Y-15345748D01*
X10733816Y-15331462D01*
X10719530Y-15317176D01*
X10719530Y-15345748D01*
X10905244Y-15617176D02*
X10876673Y-15602890D01*
X10862387Y-15574319D01*
X10862387Y-15317176D01*
X11062387Y-15617176D02*
X11033816Y-15602890D01*
X11019530Y-15574319D01*
X11019530Y-15317176D01*
X11405244Y-15617176D02*
X11405244Y-15317176D01*
X11505244Y-15531462D01*
X11605244Y-15317176D01*
X11605244Y-15617176D01*
X11876673Y-15617176D02*
X11876673Y-15460033D01*
X11862387Y-15431462D01*
X11833815Y-15417176D01*
X11776673Y-15417176D01*
X11748101Y-15431462D01*
X11876673Y-15602890D02*
X11848101Y-15617176D01*
X11776673Y-15617176D01*
X11748101Y-15602890D01*
X11733815Y-15574319D01*
X11733815Y-15545748D01*
X11748101Y-15517176D01*
X11776673Y-15502890D01*
X11848101Y-15502890D01*
X11876673Y-15488605D01*
X12019530Y-15417176D02*
X12019530Y-15717176D01*
X12019530Y-15431462D02*
X12048101Y-15417176D01*
X12105244Y-15417176D01*
X12133815Y-15431462D01*
X12148101Y-15445748D01*
X12162387Y-15474319D01*
X12162387Y-15560033D01*
X12148101Y-15588605D01*
X12133815Y-15602890D01*
X12105244Y-15617176D01*
X12048101Y-15617176D01*
X12019530Y-15602890D01*
X12290958Y-15588605D02*
X12305244Y-15602890D01*
X12290958Y-15617176D01*
X12276673Y-15602890D01*
X12290958Y-15588605D01*
X12290958Y-15617176D01*
X12290958Y-15431462D02*
X12305244Y-15445748D01*
X12290958Y-15460033D01*
X12276673Y-15445748D01*
X12290958Y-15431462D01*
X12290958Y-15460033D01*
X9871387Y-16073462D02*
X9947387Y-16149462D01*
X9947387Y-16073462D02*
X9871387Y-16149462D01*
X10290958Y-15947176D02*
X10319530Y-15947176D01*
X10348101Y-15961462D01*
X10362387Y-15975748D01*
X10376673Y-16004319D01*
X10390958Y-16061462D01*
X10390958Y-16132890D01*
X10376673Y-16190033D01*
X10362387Y-16218605D01*
X10348101Y-16232890D01*
X10319530Y-16247176D01*
X10290958Y-16247176D01*
X10262387Y-16232890D01*
X10248101Y-16218605D01*
X10233816Y-16190033D01*
X10219530Y-16132890D01*
X10219530Y-16061462D01*
X10233816Y-16004319D01*
X10248101Y-15975748D01*
X10262387Y-15961462D01*
X10290958Y-15947176D01*
X10519530Y-16218605D02*
X10533816Y-16232890D01*
X10519530Y-16247176D01*
X10505244Y-16232890D01*
X10519530Y-16218605D01*
X10519530Y-16247176D01*
X10633816Y-15947176D02*
X10833816Y-15947176D01*
X10705244Y-16247176D01*
X11076673Y-15947176D02*
X11019530Y-15947176D01*
X10990958Y-15961462D01*
X10976673Y-15975748D01*
X10948101Y-16018605D01*
X10933816Y-16075748D01*
X10933816Y-16190033D01*
X10948101Y-16218605D01*
X10962387Y-16232890D01*
X10990958Y-16247176D01*
X11048101Y-16247176D01*
X11076673Y-16232890D01*
X11090958Y-16218605D01*
X11105244Y-16190033D01*
X11105244Y-16118605D01*
X11090958Y-16090033D01*
X11076673Y-16075748D01*
X11048101Y-16061462D01*
X10990958Y-16061462D01*
X10962387Y-16075748D01*
X10948101Y-16090033D01*
X10933816Y-16118605D01*
X11290958Y-15947176D02*
X11319530Y-15947176D01*
X11348101Y-15961462D01*
X11362387Y-15975748D01*
X11376673Y-16004319D01*
X11390958Y-16061462D01*
X11390958Y-16132890D01*
X11376673Y-16190033D01*
X11362387Y-16218605D01*
X11348101Y-16232890D01*
X11319530Y-16247176D01*
X11290958Y-16247176D01*
X11262387Y-16232890D01*
X11248101Y-16218605D01*
X11233815Y-16190033D01*
X11219530Y-16132890D01*
X11219530Y-16061462D01*
X11233815Y-16004319D01*
X11248101Y-15975748D01*
X11262387Y-15961462D01*
X11290958Y-15947176D01*
X11519530Y-16247176D02*
X11519530Y-16047176D01*
X11519530Y-16075748D02*
X11533815Y-16061462D01*
X11562387Y-16047176D01*
X11605244Y-16047176D01*
X11633815Y-16061462D01*
X11648101Y-16090033D01*
X11648101Y-16247176D01*
X11648101Y-16090033D02*
X11662387Y-16061462D01*
X11690958Y-16047176D01*
X11733815Y-16047176D01*
X11762387Y-16061462D01*
X11776673Y-16090033D01*
X11776673Y-16247176D01*
X11919530Y-16247176D02*
X11919530Y-16047176D01*
X11919530Y-16075748D02*
X11933815Y-16061462D01*
X11962387Y-16047176D01*
X12005244Y-16047176D01*
X12033815Y-16061462D01*
X12048101Y-16090033D01*
X12048101Y-16247176D01*
X12048101Y-16090033D02*
X12062387Y-16061462D01*
X12090958Y-16047176D01*
X12133815Y-16047176D01*
X12162387Y-16061462D01*
X12176673Y-16090033D01*
X12176673Y-16247176D01*
X12762387Y-15932890D02*
X12505244Y-16318605D01*
X13148101Y-15947176D02*
X13176673Y-15947176D01*
X13205244Y-15961462D01*
X13219530Y-15975748D01*
X13233815Y-16004319D01*
X13248101Y-16061462D01*
X13248101Y-16132890D01*
X13233815Y-16190033D01*
X13219530Y-16218605D01*
X13205244Y-16232890D01*
X13176673Y-16247176D01*
X13148101Y-16247176D01*
X13119530Y-16232890D01*
X13105244Y-16218605D01*
X13090958Y-16190033D01*
X13076673Y-16132890D01*
X13076673Y-16061462D01*
X13090958Y-16004319D01*
X13105244Y-15975748D01*
X13119530Y-15961462D01*
X13148101Y-15947176D01*
X13376673Y-16218605D02*
X13390958Y-16232890D01*
X13376673Y-16247176D01*
X13362387Y-16232890D01*
X13376673Y-16218605D01*
X13376673Y-16247176D01*
X13576673Y-15947176D02*
X13605244Y-15947176D01*
X13633815Y-15961462D01*
X13648101Y-15975748D01*
X13662387Y-16004319D01*
X13676673Y-16061462D01*
X13676673Y-16132890D01*
X13662387Y-16190033D01*
X13648101Y-16218605D01*
X13633815Y-16232890D01*
X13605244Y-16247176D01*
X13576673Y-16247176D01*
X13548101Y-16232890D01*
X13533815Y-16218605D01*
X13519530Y-16190033D01*
X13505244Y-16132890D01*
X13505244Y-16061462D01*
X13519530Y-16004319D01*
X13533815Y-15975748D01*
X13548101Y-15961462D01*
X13576673Y-15947176D01*
X13790958Y-15975748D02*
X13805244Y-15961462D01*
X13833815Y-15947176D01*
X13905244Y-15947176D01*
X13933815Y-15961462D01*
X13948101Y-15975748D01*
X13962387Y-16004319D01*
X13962387Y-16032890D01*
X13948101Y-16075748D01*
X13776673Y-16247176D01*
X13962387Y-16247176D01*
X14105244Y-16247176D02*
X14162387Y-16247176D01*
X14190958Y-16232890D01*
X14205244Y-16218605D01*
X14233815Y-16175748D01*
X14248101Y-16118605D01*
X14248101Y-16004319D01*
X14233815Y-15975748D01*
X14219530Y-15961462D01*
X14190958Y-15947176D01*
X14133815Y-15947176D01*
X14105244Y-15961462D01*
X14090958Y-15975748D01*
X14076673Y-16004319D01*
X14076673Y-16075748D01*
X14090958Y-16104319D01*
X14105244Y-16118605D01*
X14133815Y-16132890D01*
X14190958Y-16132890D01*
X14219530Y-16118605D01*
X14233815Y-16104319D01*
X14248101Y-16075748D01*
X14390958Y-16247176D02*
X14448101Y-16247176D01*
X14476673Y-16232890D01*
X14490958Y-16218605D01*
X14519530Y-16175748D01*
X14533815Y-16118605D01*
X14533815Y-16004319D01*
X14519530Y-15975748D01*
X14505244Y-15961462D01*
X14476673Y-15947176D01*
X14419530Y-15947176D01*
X14390958Y-15961462D01*
X14376673Y-15975748D01*
X14362387Y-16004319D01*
X14362387Y-16075748D01*
X14376673Y-16104319D01*
X14390958Y-16118605D01*
X14419530Y-16132890D01*
X14476673Y-16132890D01*
X14505244Y-16118605D01*
X14519530Y-16104319D01*
X14533815Y-16075748D01*
X14648101Y-15947176D02*
X14648101Y-16004319D01*
X14762387Y-15947176D02*
X14762387Y-16004319D01*
X15205244Y-16361462D02*
X15190958Y-16347176D01*
X15162387Y-16304319D01*
X15148101Y-16275748D01*
X15133815Y-16232890D01*
X15119530Y-16161462D01*
X15119530Y-16104319D01*
X15133815Y-16032890D01*
X15148101Y-15990033D01*
X15162387Y-15961462D01*
X15190958Y-15918605D01*
X15205244Y-15904319D01*
X15448101Y-16047176D02*
X15448101Y-16247176D01*
X15376673Y-15932890D02*
X15305244Y-16147176D01*
X15490958Y-16147176D01*
X15662387Y-15947176D02*
X15690958Y-15947176D01*
X15719530Y-15961462D01*
X15733815Y-15975748D01*
X15748101Y-16004319D01*
X15762387Y-16061462D01*
X15762387Y-16132890D01*
X15748101Y-16190033D01*
X15733815Y-16218605D01*
X15719530Y-16232890D01*
X15690958Y-16247176D01*
X15662387Y-16247176D01*
X15633815Y-16232890D01*
X15619530Y-16218605D01*
X15605244Y-16190033D01*
X15590958Y-16132890D01*
X15590958Y-16061462D01*
X15605244Y-16004319D01*
X15619530Y-15975748D01*
X15633815Y-15961462D01*
X15662387Y-15947176D01*
X16119530Y-16247176D02*
X16119530Y-15947176D01*
X16248101Y-16247176D02*
X16248101Y-16090033D01*
X16233815Y-16061462D01*
X16205244Y-16047176D01*
X16162387Y-16047176D01*
X16133815Y-16061462D01*
X16119530Y-16075748D01*
X16433815Y-16247176D02*
X16405244Y-16232890D01*
X16390958Y-16218605D01*
X16376673Y-16190033D01*
X16376673Y-16104319D01*
X16390958Y-16075748D01*
X16405244Y-16061462D01*
X16433815Y-16047176D01*
X16476673Y-16047176D01*
X16505244Y-16061462D01*
X16519530Y-16075748D01*
X16533815Y-16104319D01*
X16533815Y-16190033D01*
X16519530Y-16218605D01*
X16505244Y-16232890D01*
X16476673Y-16247176D01*
X16433815Y-16247176D01*
X16705244Y-16247176D02*
X16676673Y-16232890D01*
X16662387Y-16204319D01*
X16662387Y-15947176D01*
X16933816Y-16232890D02*
X16905244Y-16247176D01*
X16848101Y-16247176D01*
X16819530Y-16232890D01*
X16805244Y-16204319D01*
X16805244Y-16090033D01*
X16819530Y-16061462D01*
X16848101Y-16047176D01*
X16905244Y-16047176D01*
X16933816Y-16061462D01*
X16948101Y-16090033D01*
X16948101Y-16118605D01*
X16805244Y-16147176D01*
X17062387Y-16232890D02*
X17090958Y-16247176D01*
X17148101Y-16247176D01*
X17176673Y-16232890D01*
X17190958Y-16204319D01*
X17190958Y-16190033D01*
X17176673Y-16161462D01*
X17148101Y-16147176D01*
X17105244Y-16147176D01*
X17076673Y-16132890D01*
X17062387Y-16104319D01*
X17062387Y-16090033D01*
X17076673Y-16061462D01*
X17105244Y-16047176D01*
X17148101Y-16047176D01*
X17176673Y-16061462D01*
X17290958Y-16361462D02*
X17305244Y-16347176D01*
X17333816Y-16304319D01*
X17348101Y-16275748D01*
X17362387Y-16232890D01*
X17376673Y-16161462D01*
X17376673Y-16104319D01*
X17362387Y-16032890D01*
X17348101Y-15990033D01*
X17333816Y-15961462D01*
X17305244Y-15918605D01*
X17290958Y-15904319D01*
X9947387Y-16507462D02*
G75*
G03*
X9947387Y-16507462I-59944J0D01*
G01*
X10390958Y-16643176D02*
X10219530Y-16643176D01*
X10305244Y-16643176D02*
X10305244Y-16343176D01*
X10276673Y-16386033D01*
X10248101Y-16414605D01*
X10219530Y-16428890D01*
X10519530Y-16614605D02*
X10533816Y-16628890D01*
X10519530Y-16643176D01*
X10505244Y-16628890D01*
X10519530Y-16614605D01*
X10519530Y-16643176D01*
X10819530Y-16643176D02*
X10648101Y-16643176D01*
X10733816Y-16643176D02*
X10733816Y-16343176D01*
X10705244Y-16386033D01*
X10676673Y-16414605D01*
X10648101Y-16428890D01*
X10962387Y-16643176D02*
X11019530Y-16643176D01*
X11048101Y-16628890D01*
X11062387Y-16614605D01*
X11090958Y-16571748D01*
X11105244Y-16514605D01*
X11105244Y-16400319D01*
X11090958Y-16371748D01*
X11076673Y-16357462D01*
X11048101Y-16343176D01*
X10990958Y-16343176D01*
X10962387Y-16357462D01*
X10948101Y-16371748D01*
X10933816Y-16400319D01*
X10933816Y-16471748D01*
X10948101Y-16500319D01*
X10962387Y-16514605D01*
X10990958Y-16528890D01*
X11048101Y-16528890D01*
X11076673Y-16514605D01*
X11090958Y-16500319D01*
X11105244Y-16471748D01*
X11248101Y-16643176D02*
X11305244Y-16643176D01*
X11333815Y-16628890D01*
X11348101Y-16614605D01*
X11376673Y-16571748D01*
X11390958Y-16514605D01*
X11390958Y-16400319D01*
X11376673Y-16371748D01*
X11362387Y-16357462D01*
X11333815Y-16343176D01*
X11276673Y-16343176D01*
X11248101Y-16357462D01*
X11233815Y-16371748D01*
X11219530Y-16400319D01*
X11219530Y-16471748D01*
X11233815Y-16500319D01*
X11248101Y-16514605D01*
X11276673Y-16528890D01*
X11333815Y-16528890D01*
X11362387Y-16514605D01*
X11376673Y-16500319D01*
X11390958Y-16471748D01*
X11519530Y-16643176D02*
X11519530Y-16443176D01*
X11519530Y-16471748D02*
X11533815Y-16457462D01*
X11562387Y-16443176D01*
X11605244Y-16443176D01*
X11633815Y-16457462D01*
X11648101Y-16486033D01*
X11648101Y-16643176D01*
X11648101Y-16486033D02*
X11662387Y-16457462D01*
X11690958Y-16443176D01*
X11733815Y-16443176D01*
X11762387Y-16457462D01*
X11776673Y-16486033D01*
X11776673Y-16643176D01*
X11919530Y-16643176D02*
X11919530Y-16443176D01*
X11919530Y-16471748D02*
X11933815Y-16457462D01*
X11962387Y-16443176D01*
X12005244Y-16443176D01*
X12033815Y-16457462D01*
X12048101Y-16486033D01*
X12048101Y-16643176D01*
X12048101Y-16486033D02*
X12062387Y-16457462D01*
X12090958Y-16443176D01*
X12133815Y-16443176D01*
X12162387Y-16457462D01*
X12176673Y-16486033D01*
X12176673Y-16643176D01*
X12762387Y-16328890D02*
X12505244Y-16714605D01*
X13148101Y-16343176D02*
X13176673Y-16343176D01*
X13205244Y-16357462D01*
X13219530Y-16371748D01*
X13233815Y-16400319D01*
X13248101Y-16457462D01*
X13248101Y-16528890D01*
X13233815Y-16586033D01*
X13219530Y-16614605D01*
X13205244Y-16628890D01*
X13176673Y-16643176D01*
X13148101Y-16643176D01*
X13119530Y-16628890D01*
X13105244Y-16614605D01*
X13090958Y-16586033D01*
X13076673Y-16528890D01*
X13076673Y-16457462D01*
X13090958Y-16400319D01*
X13105244Y-16371748D01*
X13119530Y-16357462D01*
X13148101Y-16343176D01*
X13376673Y-16614605D02*
X13390958Y-16628890D01*
X13376673Y-16643176D01*
X13362387Y-16628890D01*
X13376673Y-16614605D01*
X13376673Y-16643176D01*
X13576673Y-16343176D02*
X13605244Y-16343176D01*
X13633815Y-16357462D01*
X13648101Y-16371748D01*
X13662387Y-16400319D01*
X13676673Y-16457462D01*
X13676673Y-16528890D01*
X13662387Y-16586033D01*
X13648101Y-16614605D01*
X13633815Y-16628890D01*
X13605244Y-16643176D01*
X13576673Y-16643176D01*
X13548101Y-16628890D01*
X13533815Y-16614605D01*
X13519530Y-16586033D01*
X13505244Y-16528890D01*
X13505244Y-16457462D01*
X13519530Y-16400319D01*
X13533815Y-16371748D01*
X13548101Y-16357462D01*
X13576673Y-16343176D01*
X13933815Y-16443176D02*
X13933815Y-16643176D01*
X13862387Y-16328890D02*
X13790958Y-16543176D01*
X13976673Y-16543176D01*
X14062387Y-16343176D02*
X14262387Y-16343176D01*
X14133815Y-16643176D01*
X14362387Y-16371748D02*
X14376673Y-16357462D01*
X14405244Y-16343176D01*
X14476673Y-16343176D01*
X14505244Y-16357462D01*
X14519530Y-16371748D01*
X14533815Y-16400319D01*
X14533815Y-16428890D01*
X14519530Y-16471748D01*
X14348101Y-16643176D01*
X14533815Y-16643176D01*
X14648101Y-16343176D02*
X14648101Y-16400319D01*
X14762387Y-16343176D02*
X14762387Y-16400319D01*
X15205244Y-16757462D02*
X15190958Y-16743176D01*
X15162387Y-16700319D01*
X15148101Y-16671748D01*
X15133815Y-16628890D01*
X15119530Y-16557462D01*
X15119530Y-16500319D01*
X15133815Y-16428890D01*
X15148101Y-16386033D01*
X15162387Y-16357462D01*
X15190958Y-16314605D01*
X15205244Y-16300319D01*
X15362387Y-16471748D02*
X15333815Y-16457462D01*
X15319530Y-16443176D01*
X15305244Y-16414605D01*
X15305244Y-16400319D01*
X15319530Y-16371748D01*
X15333815Y-16357462D01*
X15362387Y-16343176D01*
X15419530Y-16343176D01*
X15448101Y-16357462D01*
X15462387Y-16371748D01*
X15476673Y-16400319D01*
X15476673Y-16414605D01*
X15462387Y-16443176D01*
X15448101Y-16457462D01*
X15419530Y-16471748D01*
X15362387Y-16471748D01*
X15333815Y-16486033D01*
X15319530Y-16500319D01*
X15305244Y-16528890D01*
X15305244Y-16586033D01*
X15319530Y-16614605D01*
X15333815Y-16628890D01*
X15362387Y-16643176D01*
X15419530Y-16643176D01*
X15448101Y-16628890D01*
X15462387Y-16614605D01*
X15476673Y-16586033D01*
X15476673Y-16528890D01*
X15462387Y-16500319D01*
X15448101Y-16486033D01*
X15419530Y-16471748D01*
X15662387Y-16343176D02*
X15690958Y-16343176D01*
X15719530Y-16357462D01*
X15733815Y-16371748D01*
X15748101Y-16400319D01*
X15762387Y-16457462D01*
X15762387Y-16528890D01*
X15748101Y-16586033D01*
X15733815Y-16614605D01*
X15719530Y-16628890D01*
X15690958Y-16643176D01*
X15662387Y-16643176D01*
X15633815Y-16628890D01*
X15619530Y-16614605D01*
X15605244Y-16586033D01*
X15590958Y-16528890D01*
X15590958Y-16457462D01*
X15605244Y-16400319D01*
X15619530Y-16371748D01*
X15633815Y-16357462D01*
X15662387Y-16343176D01*
X16119530Y-16643176D02*
X16119530Y-16343176D01*
X16248101Y-16643176D02*
X16248101Y-16486033D01*
X16233815Y-16457462D01*
X16205244Y-16443176D01*
X16162387Y-16443176D01*
X16133815Y-16457462D01*
X16119530Y-16471748D01*
X16433815Y-16643176D02*
X16405244Y-16628890D01*
X16390958Y-16614605D01*
X16376673Y-16586033D01*
X16376673Y-16500319D01*
X16390958Y-16471748D01*
X16405244Y-16457462D01*
X16433815Y-16443176D01*
X16476673Y-16443176D01*
X16505244Y-16457462D01*
X16519530Y-16471748D01*
X16533815Y-16500319D01*
X16533815Y-16586033D01*
X16519530Y-16614605D01*
X16505244Y-16628890D01*
X16476673Y-16643176D01*
X16433815Y-16643176D01*
X16705244Y-16643176D02*
X16676673Y-16628890D01*
X16662387Y-16600319D01*
X16662387Y-16343176D01*
X16933816Y-16628890D02*
X16905244Y-16643176D01*
X16848101Y-16643176D01*
X16819530Y-16628890D01*
X16805244Y-16600319D01*
X16805244Y-16486033D01*
X16819530Y-16457462D01*
X16848101Y-16443176D01*
X16905244Y-16443176D01*
X16933816Y-16457462D01*
X16948101Y-16486033D01*
X16948101Y-16514605D01*
X16805244Y-16543176D01*
X17062387Y-16628890D02*
X17090958Y-16643176D01*
X17148101Y-16643176D01*
X17176673Y-16628890D01*
X17190958Y-16600319D01*
X17190958Y-16586033D01*
X17176673Y-16557462D01*
X17148101Y-16543176D01*
X17105244Y-16543176D01*
X17076673Y-16528890D01*
X17062387Y-16500319D01*
X17062387Y-16486033D01*
X17076673Y-16457462D01*
X17105244Y-16443176D01*
X17148101Y-16443176D01*
X17176673Y-16457462D01*
X17290958Y-16757462D02*
X17305244Y-16743176D01*
X17333816Y-16700319D01*
X17348101Y-16671748D01*
X17362387Y-16628890D01*
X17376673Y-16557462D01*
X17376673Y-16500319D01*
X17362387Y-16428890D01*
X17348101Y-16386033D01*
X17333816Y-16357462D01*
X17305244Y-16314605D01*
X17290958Y-16300319D01*
X9882387Y-16838462D02*
X9882387Y-16968462D01*
X9817387Y-16903462D02*
X9947387Y-16903462D01*
X10390958Y-17039176D02*
X10219530Y-17039176D01*
X10305244Y-17039176D02*
X10305244Y-16739176D01*
X10276673Y-16782033D01*
X10248101Y-16810605D01*
X10219530Y-16824890D01*
X10519530Y-17010605D02*
X10533816Y-17024890D01*
X10519530Y-17039176D01*
X10505244Y-17024890D01*
X10519530Y-17010605D01*
X10519530Y-17039176D01*
X10633816Y-16739176D02*
X10819530Y-16739176D01*
X10719530Y-16853462D01*
X10762387Y-16853462D01*
X10790958Y-16867748D01*
X10805244Y-16882033D01*
X10819530Y-16910605D01*
X10819530Y-16982033D01*
X10805244Y-17010605D01*
X10790958Y-17024890D01*
X10762387Y-17039176D01*
X10676673Y-17039176D01*
X10648101Y-17024890D01*
X10633816Y-17010605D01*
X11005244Y-16739176D02*
X11033816Y-16739176D01*
X11062387Y-16753462D01*
X11076673Y-16767748D01*
X11090958Y-16796319D01*
X11105244Y-16853462D01*
X11105244Y-16924890D01*
X11090958Y-16982033D01*
X11076673Y-17010605D01*
X11062387Y-17024890D01*
X11033816Y-17039176D01*
X11005244Y-17039176D01*
X10976673Y-17024890D01*
X10962387Y-17010605D01*
X10948101Y-16982033D01*
X10933816Y-16924890D01*
X10933816Y-16853462D01*
X10948101Y-16796319D01*
X10962387Y-16767748D01*
X10976673Y-16753462D01*
X11005244Y-16739176D01*
X11290958Y-16739176D02*
X11319530Y-16739176D01*
X11348101Y-16753462D01*
X11362387Y-16767748D01*
X11376673Y-16796319D01*
X11390958Y-16853462D01*
X11390958Y-16924890D01*
X11376673Y-16982033D01*
X11362387Y-17010605D01*
X11348101Y-17024890D01*
X11319530Y-17039176D01*
X11290958Y-17039176D01*
X11262387Y-17024890D01*
X11248101Y-17010605D01*
X11233815Y-16982033D01*
X11219530Y-16924890D01*
X11219530Y-16853462D01*
X11233815Y-16796319D01*
X11248101Y-16767748D01*
X11262387Y-16753462D01*
X11290958Y-16739176D01*
X11519530Y-17039176D02*
X11519530Y-16839176D01*
X11519530Y-16867748D02*
X11533815Y-16853462D01*
X11562387Y-16839176D01*
X11605244Y-16839176D01*
X11633815Y-16853462D01*
X11648101Y-16882033D01*
X11648101Y-17039176D01*
X11648101Y-16882033D02*
X11662387Y-16853462D01*
X11690958Y-16839176D01*
X11733815Y-16839176D01*
X11762387Y-16853462D01*
X11776673Y-16882033D01*
X11776673Y-17039176D01*
X11919530Y-17039176D02*
X11919530Y-16839176D01*
X11919530Y-16867748D02*
X11933815Y-16853462D01*
X11962387Y-16839176D01*
X12005244Y-16839176D01*
X12033815Y-16853462D01*
X12048101Y-16882033D01*
X12048101Y-17039176D01*
X12048101Y-16882033D02*
X12062387Y-16853462D01*
X12090958Y-16839176D01*
X12133815Y-16839176D01*
X12162387Y-16853462D01*
X12176673Y-16882033D01*
X12176673Y-17039176D01*
X12762387Y-16724890D02*
X12505244Y-17110605D01*
X13148101Y-16739176D02*
X13176673Y-16739176D01*
X13205244Y-16753462D01*
X13219530Y-16767748D01*
X13233815Y-16796319D01*
X13248101Y-16853462D01*
X13248101Y-16924890D01*
X13233815Y-16982033D01*
X13219530Y-17010605D01*
X13205244Y-17024890D01*
X13176673Y-17039176D01*
X13148101Y-17039176D01*
X13119530Y-17024890D01*
X13105244Y-17010605D01*
X13090958Y-16982033D01*
X13076673Y-16924890D01*
X13076673Y-16853462D01*
X13090958Y-16796319D01*
X13105244Y-16767748D01*
X13119530Y-16753462D01*
X13148101Y-16739176D01*
X13376673Y-17010605D02*
X13390958Y-17024890D01*
X13376673Y-17039176D01*
X13362387Y-17024890D01*
X13376673Y-17010605D01*
X13376673Y-17039176D01*
X13576673Y-16739176D02*
X13605244Y-16739176D01*
X13633815Y-16753462D01*
X13648101Y-16767748D01*
X13662387Y-16796319D01*
X13676673Y-16853462D01*
X13676673Y-16924890D01*
X13662387Y-16982033D01*
X13648101Y-17010605D01*
X13633815Y-17024890D01*
X13605244Y-17039176D01*
X13576673Y-17039176D01*
X13548101Y-17024890D01*
X13533815Y-17010605D01*
X13519530Y-16982033D01*
X13505244Y-16924890D01*
X13505244Y-16853462D01*
X13519530Y-16796319D01*
X13533815Y-16767748D01*
X13548101Y-16753462D01*
X13576673Y-16739176D01*
X13948101Y-16739176D02*
X13805244Y-16739176D01*
X13790958Y-16882033D01*
X13805244Y-16867748D01*
X13833815Y-16853462D01*
X13905244Y-16853462D01*
X13933815Y-16867748D01*
X13948101Y-16882033D01*
X13962387Y-16910605D01*
X13962387Y-16982033D01*
X13948101Y-17010605D01*
X13933815Y-17024890D01*
X13905244Y-17039176D01*
X13833815Y-17039176D01*
X13805244Y-17024890D01*
X13790958Y-17010605D01*
X14248101Y-17039176D02*
X14076673Y-17039176D01*
X14162387Y-17039176D02*
X14162387Y-16739176D01*
X14133815Y-16782033D01*
X14105244Y-16810605D01*
X14076673Y-16824890D01*
X14362387Y-16767748D02*
X14376673Y-16753462D01*
X14405244Y-16739176D01*
X14476673Y-16739176D01*
X14505244Y-16753462D01*
X14519530Y-16767748D01*
X14533815Y-16796319D01*
X14533815Y-16824890D01*
X14519530Y-16867748D01*
X14348101Y-17039176D01*
X14533815Y-17039176D01*
X14648101Y-16739176D02*
X14648101Y-16796319D01*
X14762387Y-16739176D02*
X14762387Y-16796319D01*
X15205244Y-17153462D02*
X15190958Y-17139176D01*
X15162387Y-17096319D01*
X15148101Y-17067748D01*
X15133815Y-17024890D01*
X15119530Y-16953462D01*
X15119530Y-16896319D01*
X15133815Y-16824890D01*
X15148101Y-16782033D01*
X15162387Y-16753462D01*
X15190958Y-16710605D01*
X15205244Y-16696319D01*
X15333815Y-17039176D02*
X15390958Y-17039176D01*
X15419530Y-17024890D01*
X15433815Y-17010605D01*
X15462387Y-16967748D01*
X15476673Y-16910605D01*
X15476673Y-16796319D01*
X15462387Y-16767748D01*
X15448101Y-16753462D01*
X15419530Y-16739176D01*
X15362387Y-16739176D01*
X15333815Y-16753462D01*
X15319530Y-16767748D01*
X15305244Y-16796319D01*
X15305244Y-16867748D01*
X15319530Y-16896319D01*
X15333815Y-16910605D01*
X15362387Y-16924890D01*
X15419530Y-16924890D01*
X15448101Y-16910605D01*
X15462387Y-16896319D01*
X15476673Y-16867748D01*
X15833815Y-17039176D02*
X15833815Y-16739176D01*
X15962387Y-17039176D02*
X15962387Y-16882033D01*
X15948101Y-16853462D01*
X15919530Y-16839176D01*
X15876673Y-16839176D01*
X15848101Y-16853462D01*
X15833815Y-16867748D01*
X16148101Y-17039176D02*
X16119530Y-17024890D01*
X16105244Y-17010605D01*
X16090958Y-16982033D01*
X16090958Y-16896319D01*
X16105244Y-16867748D01*
X16119530Y-16853462D01*
X16148101Y-16839176D01*
X16190958Y-16839176D01*
X16219530Y-16853462D01*
X16233815Y-16867748D01*
X16248101Y-16896319D01*
X16248101Y-16982033D01*
X16233815Y-17010605D01*
X16219530Y-17024890D01*
X16190958Y-17039176D01*
X16148101Y-17039176D01*
X16419530Y-17039176D02*
X16390958Y-17024890D01*
X16376673Y-16996319D01*
X16376673Y-16739176D01*
X16648101Y-17024890D02*
X16619530Y-17039176D01*
X16562387Y-17039176D01*
X16533815Y-17024890D01*
X16519530Y-16996319D01*
X16519530Y-16882033D01*
X16533815Y-16853462D01*
X16562387Y-16839176D01*
X16619530Y-16839176D01*
X16648101Y-16853462D01*
X16662387Y-16882033D01*
X16662387Y-16910605D01*
X16519530Y-16939176D01*
X16776673Y-17024890D02*
X16805244Y-17039176D01*
X16862387Y-17039176D01*
X16890958Y-17024890D01*
X16905244Y-16996319D01*
X16905244Y-16982033D01*
X16890958Y-16953462D01*
X16862387Y-16939176D01*
X16819530Y-16939176D01*
X16790958Y-16924890D01*
X16776673Y-16896319D01*
X16776673Y-16882033D01*
X16790958Y-16853462D01*
X16819530Y-16839176D01*
X16862387Y-16839176D01*
X16890958Y-16853462D01*
X17005244Y-17153462D02*
X17019530Y-17139176D01*
X17048101Y-17096319D01*
X17062387Y-17067748D01*
X17076673Y-17024890D01*
X17090958Y-16953462D01*
X17090958Y-16896319D01*
X17076673Y-16824890D01*
X17062387Y-16782033D01*
X17048101Y-16753462D01*
X17019530Y-16710605D01*
X17005244Y-16696319D01*
X9900525Y-17412600D02*
X9900525Y-17186324D01*
X9674249Y-17186324D01*
X9674249Y-17412600D01*
X9900525Y-17412600D01*
X10205244Y-17135176D02*
X10390958Y-17135176D01*
X10290958Y-17249462D01*
X10333816Y-17249462D01*
X10362387Y-17263748D01*
X10376673Y-17278033D01*
X10390958Y-17306605D01*
X10390958Y-17378033D01*
X10376673Y-17406605D01*
X10362387Y-17420890D01*
X10333816Y-17435176D01*
X10248101Y-17435176D01*
X10219530Y-17420890D01*
X10205244Y-17406605D01*
X10519530Y-17406605D02*
X10533816Y-17420890D01*
X10519530Y-17435176D01*
X10505244Y-17420890D01*
X10519530Y-17406605D01*
X10519530Y-17435176D01*
X10648101Y-17163748D02*
X10662387Y-17149462D01*
X10690958Y-17135176D01*
X10762387Y-17135176D01*
X10790958Y-17149462D01*
X10805244Y-17163748D01*
X10819530Y-17192319D01*
X10819530Y-17220890D01*
X10805244Y-17263748D01*
X10633816Y-17435176D01*
X10819530Y-17435176D01*
X11005244Y-17135176D02*
X11033816Y-17135176D01*
X11062387Y-17149462D01*
X11076673Y-17163748D01*
X11090958Y-17192319D01*
X11105244Y-17249462D01*
X11105244Y-17320890D01*
X11090958Y-17378033D01*
X11076673Y-17406605D01*
X11062387Y-17420890D01*
X11033816Y-17435176D01*
X11005244Y-17435176D01*
X10976673Y-17420890D01*
X10962387Y-17406605D01*
X10948101Y-17378033D01*
X10933816Y-17320890D01*
X10933816Y-17249462D01*
X10948101Y-17192319D01*
X10962387Y-17163748D01*
X10976673Y-17149462D01*
X11005244Y-17135176D01*
X11290958Y-17135176D02*
X11319530Y-17135176D01*
X11348101Y-17149462D01*
X11362387Y-17163748D01*
X11376673Y-17192319D01*
X11390958Y-17249462D01*
X11390958Y-17320890D01*
X11376673Y-17378033D01*
X11362387Y-17406605D01*
X11348101Y-17420890D01*
X11319530Y-17435176D01*
X11290958Y-17435176D01*
X11262387Y-17420890D01*
X11248101Y-17406605D01*
X11233815Y-17378033D01*
X11219530Y-17320890D01*
X11219530Y-17249462D01*
X11233815Y-17192319D01*
X11248101Y-17163748D01*
X11262387Y-17149462D01*
X11290958Y-17135176D01*
X11519530Y-17435176D02*
X11519530Y-17235176D01*
X11519530Y-17263748D02*
X11533815Y-17249462D01*
X11562387Y-17235176D01*
X11605244Y-17235176D01*
X11633815Y-17249462D01*
X11648101Y-17278033D01*
X11648101Y-17435176D01*
X11648101Y-17278033D02*
X11662387Y-17249462D01*
X11690958Y-17235176D01*
X11733815Y-17235176D01*
X11762387Y-17249462D01*
X11776673Y-17278033D01*
X11776673Y-17435176D01*
X11919530Y-17435176D02*
X11919530Y-17235176D01*
X11919530Y-17263748D02*
X11933815Y-17249462D01*
X11962387Y-17235176D01*
X12005244Y-17235176D01*
X12033815Y-17249462D01*
X12048101Y-17278033D01*
X12048101Y-17435176D01*
X12048101Y-17278033D02*
X12062387Y-17249462D01*
X12090958Y-17235176D01*
X12133815Y-17235176D01*
X12162387Y-17249462D01*
X12176673Y-17278033D01*
X12176673Y-17435176D01*
X12762387Y-17120890D02*
X12505244Y-17506605D01*
X13148101Y-17135176D02*
X13176673Y-17135176D01*
X13205244Y-17149462D01*
X13219530Y-17163748D01*
X13233815Y-17192319D01*
X13248101Y-17249462D01*
X13248101Y-17320890D01*
X13233815Y-17378033D01*
X13219530Y-17406605D01*
X13205244Y-17420890D01*
X13176673Y-17435176D01*
X13148101Y-17435176D01*
X13119530Y-17420890D01*
X13105244Y-17406605D01*
X13090958Y-17378033D01*
X13076673Y-17320890D01*
X13076673Y-17249462D01*
X13090958Y-17192319D01*
X13105244Y-17163748D01*
X13119530Y-17149462D01*
X13148101Y-17135176D01*
X13376673Y-17406605D02*
X13390958Y-17420890D01*
X13376673Y-17435176D01*
X13362387Y-17420890D01*
X13376673Y-17406605D01*
X13376673Y-17435176D01*
X13676673Y-17435176D02*
X13505244Y-17435176D01*
X13590958Y-17435176D02*
X13590958Y-17135176D01*
X13562387Y-17178033D01*
X13533815Y-17206605D01*
X13505244Y-17220890D01*
X13790958Y-17163748D02*
X13805244Y-17149462D01*
X13833815Y-17135176D01*
X13905244Y-17135176D01*
X13933815Y-17149462D01*
X13948101Y-17163748D01*
X13962387Y-17192319D01*
X13962387Y-17220890D01*
X13948101Y-17263748D01*
X13776673Y-17435176D01*
X13962387Y-17435176D01*
X14219530Y-17135176D02*
X14162387Y-17135176D01*
X14133815Y-17149462D01*
X14119530Y-17163748D01*
X14090958Y-17206605D01*
X14076673Y-17263748D01*
X14076673Y-17378033D01*
X14090958Y-17406605D01*
X14105244Y-17420890D01*
X14133815Y-17435176D01*
X14190958Y-17435176D01*
X14219530Y-17420890D01*
X14233815Y-17406605D01*
X14248101Y-17378033D01*
X14248101Y-17306605D01*
X14233815Y-17278033D01*
X14219530Y-17263748D01*
X14190958Y-17249462D01*
X14133815Y-17249462D01*
X14105244Y-17263748D01*
X14090958Y-17278033D01*
X14076673Y-17306605D01*
X14433815Y-17135176D02*
X14462387Y-17135176D01*
X14490958Y-17149462D01*
X14505244Y-17163748D01*
X14519530Y-17192319D01*
X14533815Y-17249462D01*
X14533815Y-17320890D01*
X14519530Y-17378033D01*
X14505244Y-17406605D01*
X14490958Y-17420890D01*
X14462387Y-17435176D01*
X14433815Y-17435176D01*
X14405244Y-17420890D01*
X14390958Y-17406605D01*
X14376673Y-17378033D01*
X14362387Y-17320890D01*
X14362387Y-17249462D01*
X14376673Y-17192319D01*
X14390958Y-17163748D01*
X14405244Y-17149462D01*
X14433815Y-17135176D01*
X14648101Y-17135176D02*
X14648101Y-17192319D01*
X14762387Y-17135176D02*
X14762387Y-17192319D01*
X15205244Y-17549462D02*
X15190958Y-17535176D01*
X15162387Y-17492319D01*
X15148101Y-17463748D01*
X15133815Y-17420890D01*
X15119530Y-17349462D01*
X15119530Y-17292319D01*
X15133815Y-17220890D01*
X15148101Y-17178033D01*
X15162387Y-17149462D01*
X15190958Y-17106605D01*
X15205244Y-17092319D01*
X15448101Y-17235176D02*
X15448101Y-17435176D01*
X15376673Y-17120890D02*
X15305244Y-17335176D01*
X15490958Y-17335176D01*
X15833815Y-17435176D02*
X15833815Y-17135176D01*
X15962387Y-17435176D02*
X15962387Y-17278033D01*
X15948101Y-17249462D01*
X15919530Y-17235176D01*
X15876673Y-17235176D01*
X15848101Y-17249462D01*
X15833815Y-17263748D01*
X16148101Y-17435176D02*
X16119530Y-17420890D01*
X16105244Y-17406605D01*
X16090958Y-17378033D01*
X16090958Y-17292319D01*
X16105244Y-17263748D01*
X16119530Y-17249462D01*
X16148101Y-17235176D01*
X16190958Y-17235176D01*
X16219530Y-17249462D01*
X16233815Y-17263748D01*
X16248101Y-17292319D01*
X16248101Y-17378033D01*
X16233815Y-17406605D01*
X16219530Y-17420890D01*
X16190958Y-17435176D01*
X16148101Y-17435176D01*
X16419530Y-17435176D02*
X16390958Y-17420890D01*
X16376673Y-17392319D01*
X16376673Y-17135176D01*
X16648101Y-17420890D02*
X16619530Y-17435176D01*
X16562387Y-17435176D01*
X16533815Y-17420890D01*
X16519530Y-17392319D01*
X16519530Y-17278033D01*
X16533815Y-17249462D01*
X16562387Y-17235176D01*
X16619530Y-17235176D01*
X16648101Y-17249462D01*
X16662387Y-17278033D01*
X16662387Y-17306605D01*
X16519530Y-17335176D01*
X16776673Y-17420890D02*
X16805244Y-17435176D01*
X16862387Y-17435176D01*
X16890958Y-17420890D01*
X16905244Y-17392319D01*
X16905244Y-17378033D01*
X16890958Y-17349462D01*
X16862387Y-17335176D01*
X16819530Y-17335176D01*
X16790958Y-17320890D01*
X16776673Y-17292319D01*
X16776673Y-17278033D01*
X16790958Y-17249462D01*
X16819530Y-17235176D01*
X16862387Y-17235176D01*
X16890958Y-17249462D01*
X17005244Y-17549462D02*
X17019530Y-17535176D01*
X17048101Y-17492319D01*
X17062387Y-17463748D01*
X17076673Y-17420890D01*
X17090958Y-17349462D01*
X17090958Y-17292319D01*
X17076673Y-17220890D01*
X17062387Y-17178033D01*
X17048101Y-17149462D01*
X17019530Y-17106605D01*
X17005244Y-17092319D01*
M02*
