%TF.GenerationSoftware,KiCad,Pcbnew,(5.1.10)-1*%
%TF.CreationDate,2021-10-20T08:10:08-05:00*%
%TF.ProjectId,Mk3,4d6b332e-6b69-4636-9164-5f7063625858,3*%
%TF.SameCoordinates,Original*%
%TF.FileFunction,Legend,Top*%
%TF.FilePolarity,Positive*%
%FSLAX46Y46*%
G04 Gerber Fmt 4.6, Leading zero omitted, Abs format (unit mm)*
G04 Created by KiCad (PCBNEW (5.1.10)-1) date 2021-10-20 08:10:08*
%MOMM*%
%LPD*%
G01*
G04 APERTURE LIST*
%ADD10C,0.300000*%
%ADD11C,0.150000*%
%ADD12C,0.312500*%
%ADD13C,0.010000*%
%ADD14C,0.100000*%
%ADD15C,0.698500*%
%ADD16C,0.203200*%
%ADD17C,0.127000*%
G04 APERTURE END LIST*
D10*
X172490320Y-138930771D02*
X171990320Y-138216485D01*
X171633177Y-138930771D02*
X171633177Y-137430771D01*
X172204605Y-137430771D01*
X172347462Y-137502200D01*
X172418891Y-137573628D01*
X172490320Y-137716485D01*
X172490320Y-137930771D01*
X172418891Y-138073628D01*
X172347462Y-138145057D01*
X172204605Y-138216485D01*
X171633177Y-138216485D01*
X173847462Y-137430771D02*
X173133177Y-137430771D01*
X173061748Y-138145057D01*
X173133177Y-138073628D01*
X173276034Y-138002200D01*
X173633177Y-138002200D01*
X173776034Y-138073628D01*
X173847462Y-138145057D01*
X173918891Y-138287914D01*
X173918891Y-138645057D01*
X173847462Y-138787914D01*
X173776034Y-138859342D01*
X173633177Y-138930771D01*
X173276034Y-138930771D01*
X173133177Y-138859342D01*
X173061748Y-138787914D01*
X172482700Y-133929511D02*
X171982700Y-133215225D01*
X171625557Y-133929511D02*
X171625557Y-132429511D01*
X172196985Y-132429511D01*
X172339842Y-132500940D01*
X172411271Y-132572368D01*
X172482700Y-132715225D01*
X172482700Y-132929511D01*
X172411271Y-133072368D01*
X172339842Y-133143797D01*
X172196985Y-133215225D01*
X171625557Y-133215225D01*
X173768414Y-132929511D02*
X173768414Y-133929511D01*
X173411271Y-132358082D02*
X173054128Y-133429511D01*
X173982700Y-133429511D01*
X172497940Y-128915551D02*
X171997940Y-128201265D01*
X171640797Y-128915551D02*
X171640797Y-127415551D01*
X172212225Y-127415551D01*
X172355082Y-127486980D01*
X172426511Y-127558408D01*
X172497940Y-127701265D01*
X172497940Y-127915551D01*
X172426511Y-128058408D01*
X172355082Y-128129837D01*
X172212225Y-128201265D01*
X171640797Y-128201265D01*
X172997940Y-127415551D02*
X173926511Y-127415551D01*
X173426511Y-127986980D01*
X173640797Y-127986980D01*
X173783654Y-128058408D01*
X173855082Y-128129837D01*
X173926511Y-128272694D01*
X173926511Y-128629837D01*
X173855082Y-128772694D01*
X173783654Y-128844122D01*
X173640797Y-128915551D01*
X173212225Y-128915551D01*
X173069368Y-128844122D01*
X172997940Y-128772694D01*
X172500480Y-123972711D02*
X172000480Y-123258425D01*
X171643337Y-123972711D02*
X171643337Y-122472711D01*
X172214765Y-122472711D01*
X172357622Y-122544140D01*
X172429051Y-122615568D01*
X172500480Y-122758425D01*
X172500480Y-122972711D01*
X172429051Y-123115568D01*
X172357622Y-123186997D01*
X172214765Y-123258425D01*
X171643337Y-123258425D01*
X173071908Y-122615568D02*
X173143337Y-122544140D01*
X173286194Y-122472711D01*
X173643337Y-122472711D01*
X173786194Y-122544140D01*
X173857622Y-122615568D01*
X173929051Y-122758425D01*
X173929051Y-122901282D01*
X173857622Y-123115568D01*
X173000480Y-123972711D01*
X173929051Y-123972711D01*
X172505560Y-118913031D02*
X172005560Y-118198745D01*
X171648417Y-118913031D02*
X171648417Y-117413031D01*
X172219845Y-117413031D01*
X172362702Y-117484460D01*
X172434131Y-117555888D01*
X172505560Y-117698745D01*
X172505560Y-117913031D01*
X172434131Y-118055888D01*
X172362702Y-118127317D01*
X172219845Y-118198745D01*
X171648417Y-118198745D01*
X173934131Y-118913031D02*
X173076988Y-118913031D01*
X173505560Y-118913031D02*
X173505560Y-117413031D01*
X173362702Y-117627317D01*
X173219845Y-117770174D01*
X173076988Y-117841602D01*
X172472540Y-88277474D02*
X172401111Y-88348902D01*
X172186825Y-88420331D01*
X172043968Y-88420331D01*
X171829682Y-88348902D01*
X171686825Y-88206045D01*
X171615397Y-88063188D01*
X171543968Y-87777474D01*
X171543968Y-87563188D01*
X171615397Y-87277474D01*
X171686825Y-87134617D01*
X171829682Y-86991760D01*
X172043968Y-86920331D01*
X172186825Y-86920331D01*
X172401111Y-86991760D01*
X172472540Y-87063188D01*
X173758254Y-87420331D02*
X173758254Y-88420331D01*
X173401111Y-86848902D02*
X173043968Y-87920331D01*
X173972540Y-87920331D01*
X172472540Y-83230494D02*
X172401111Y-83301922D01*
X172186825Y-83373351D01*
X172043968Y-83373351D01*
X171829682Y-83301922D01*
X171686825Y-83159065D01*
X171615397Y-83016208D01*
X171543968Y-82730494D01*
X171543968Y-82516208D01*
X171615397Y-82230494D01*
X171686825Y-82087637D01*
X171829682Y-81944780D01*
X172043968Y-81873351D01*
X172186825Y-81873351D01*
X172401111Y-81944780D01*
X172472540Y-82016208D01*
X172972540Y-81873351D02*
X173901111Y-81873351D01*
X173401111Y-82444780D01*
X173615397Y-82444780D01*
X173758254Y-82516208D01*
X173829682Y-82587637D01*
X173901111Y-82730494D01*
X173901111Y-83087637D01*
X173829682Y-83230494D01*
X173758254Y-83301922D01*
X173615397Y-83373351D01*
X173186825Y-83373351D01*
X173043968Y-83301922D01*
X172972540Y-83230494D01*
X172508100Y-78145414D02*
X172436671Y-78216842D01*
X172222385Y-78288271D01*
X172079528Y-78288271D01*
X171865242Y-78216842D01*
X171722385Y-78073985D01*
X171650957Y-77931128D01*
X171579528Y-77645414D01*
X171579528Y-77431128D01*
X171650957Y-77145414D01*
X171722385Y-77002557D01*
X171865242Y-76859700D01*
X172079528Y-76788271D01*
X172222385Y-76788271D01*
X172436671Y-76859700D01*
X172508100Y-76931128D01*
X173079528Y-76931128D02*
X173150957Y-76859700D01*
X173293814Y-76788271D01*
X173650957Y-76788271D01*
X173793814Y-76859700D01*
X173865242Y-76931128D01*
X173936671Y-77073985D01*
X173936671Y-77216842D01*
X173865242Y-77431128D01*
X173008100Y-78288271D01*
X173936671Y-78288271D01*
X172508100Y-73243214D02*
X172436671Y-73314642D01*
X172222385Y-73386071D01*
X172079528Y-73386071D01*
X171865242Y-73314642D01*
X171722385Y-73171785D01*
X171650957Y-73028928D01*
X171579528Y-72743214D01*
X171579528Y-72528928D01*
X171650957Y-72243214D01*
X171722385Y-72100357D01*
X171865242Y-71957500D01*
X172079528Y-71886071D01*
X172222385Y-71886071D01*
X172436671Y-71957500D01*
X172508100Y-72028928D01*
X173936671Y-73386071D02*
X173079528Y-73386071D01*
X173508100Y-73386071D02*
X173508100Y-71886071D01*
X173365242Y-72100357D01*
X173222385Y-72243214D01*
X173079528Y-72314642D01*
D11*
X116946681Y-147019260D02*
X116946681Y-147733546D01*
X116899062Y-147876403D01*
X116803824Y-147971641D01*
X116660967Y-148019260D01*
X116565729Y-148019260D01*
X117851443Y-147352594D02*
X117851443Y-148019260D01*
X117422872Y-147352594D02*
X117422872Y-147876403D01*
X117470491Y-147971641D01*
X117565729Y-148019260D01*
X117708586Y-148019260D01*
X117803824Y-147971641D01*
X117851443Y-147924022D01*
X118280015Y-147971641D02*
X118375253Y-148019260D01*
X118565729Y-148019260D01*
X118660967Y-147971641D01*
X118708586Y-147876403D01*
X118708586Y-147828784D01*
X118660967Y-147733546D01*
X118565729Y-147685927D01*
X118422872Y-147685927D01*
X118327634Y-147638308D01*
X118280015Y-147543070D01*
X118280015Y-147495451D01*
X118327634Y-147400213D01*
X118422872Y-147352594D01*
X118565729Y-147352594D01*
X118660967Y-147400213D01*
X118994300Y-147352594D02*
X119375253Y-147352594D01*
X119137158Y-147019260D02*
X119137158Y-147876403D01*
X119184777Y-147971641D01*
X119280015Y-148019260D01*
X119375253Y-148019260D01*
X119708586Y-148019260D02*
X119708586Y-147352594D01*
X119708586Y-147019260D02*
X119660967Y-147066880D01*
X119708586Y-147114499D01*
X119756205Y-147066880D01*
X119708586Y-147019260D01*
X119708586Y-147114499D01*
X120184777Y-147352594D02*
X120184777Y-148019260D01*
X120184777Y-147447832D02*
X120232396Y-147400213D01*
X120327634Y-147352594D01*
X120470491Y-147352594D01*
X120565729Y-147400213D01*
X120613348Y-147495451D01*
X120613348Y-148019260D01*
X121089539Y-147924022D02*
X121137158Y-147971641D01*
X121089539Y-148019260D01*
X121041920Y-147971641D01*
X121089539Y-147924022D01*
X121089539Y-148019260D01*
X121565729Y-148019260D02*
X121565729Y-147019260D01*
X121803824Y-147019260D01*
X121946681Y-147066880D01*
X122041920Y-147162118D01*
X122089539Y-147257356D01*
X122137158Y-147447832D01*
X122137158Y-147590689D01*
X122089539Y-147781165D01*
X122041920Y-147876403D01*
X121946681Y-147971641D01*
X121803824Y-148019260D01*
X121565729Y-148019260D01*
X122565729Y-147924022D02*
X122613348Y-147971641D01*
X122565729Y-148019260D01*
X122518110Y-147971641D01*
X122565729Y-147924022D01*
X122565729Y-148019260D01*
X123375253Y-147495451D02*
X123041920Y-147495451D01*
X123041920Y-148019260D02*
X123041920Y-147019260D01*
X123518110Y-147019260D01*
X124280015Y-147971641D02*
X124184777Y-148019260D01*
X123994300Y-148019260D01*
X123899062Y-147971641D01*
X123851443Y-147876403D01*
X123851443Y-147495451D01*
X123899062Y-147400213D01*
X123994300Y-147352594D01*
X124184777Y-147352594D01*
X124280015Y-147400213D01*
X124327634Y-147495451D01*
X124327634Y-147590689D01*
X123851443Y-147685927D01*
X124756205Y-148019260D02*
X124756205Y-147352594D01*
X124756205Y-147543070D02*
X124803824Y-147447832D01*
X124851443Y-147400213D01*
X124946681Y-147352594D01*
X125041920Y-147352594D01*
X125375253Y-148019260D02*
X125375253Y-147352594D01*
X125375253Y-147543070D02*
X125422872Y-147447832D01*
X125470491Y-147400213D01*
X125565729Y-147352594D01*
X125660967Y-147352594D01*
X126375253Y-147971641D02*
X126280015Y-148019260D01*
X126089539Y-148019260D01*
X125994300Y-147971641D01*
X125946681Y-147876403D01*
X125946681Y-147495451D01*
X125994300Y-147400213D01*
X126089539Y-147352594D01*
X126280015Y-147352594D01*
X126375253Y-147400213D01*
X126422872Y-147495451D01*
X126422872Y-147590689D01*
X125946681Y-147685927D01*
X126994300Y-148019260D02*
X126899062Y-147971641D01*
X126851443Y-147876403D01*
X126851443Y-147019260D01*
X127518110Y-148019260D02*
X127422872Y-147971641D01*
X127375253Y-147876403D01*
X127375253Y-147019260D01*
X108494300Y-149669260D02*
X108494300Y-148669260D01*
X108922872Y-149669260D02*
X108922872Y-149145451D01*
X108875253Y-149050213D01*
X108780015Y-149002594D01*
X108637158Y-149002594D01*
X108541920Y-149050213D01*
X108494300Y-149097832D01*
X109256205Y-149002594D02*
X109637158Y-149002594D01*
X109399062Y-148669260D02*
X109399062Y-149526403D01*
X109446681Y-149621641D01*
X109541920Y-149669260D01*
X109637158Y-149669260D01*
X109827634Y-149002594D02*
X110208586Y-149002594D01*
X109970491Y-148669260D02*
X109970491Y-149526403D01*
X110018110Y-149621641D01*
X110113348Y-149669260D01*
X110208586Y-149669260D01*
X110541920Y-149002594D02*
X110541920Y-150002594D01*
X110541920Y-149050213D02*
X110637158Y-149002594D01*
X110827634Y-149002594D01*
X110922872Y-149050213D01*
X110970491Y-149097832D01*
X111018110Y-149193070D01*
X111018110Y-149478784D01*
X110970491Y-149574022D01*
X110922872Y-149621641D01*
X110827634Y-149669260D01*
X110637158Y-149669260D01*
X110541920Y-149621641D01*
X111399062Y-149621641D02*
X111494300Y-149669260D01*
X111684777Y-149669260D01*
X111780015Y-149621641D01*
X111827634Y-149526403D01*
X111827634Y-149478784D01*
X111780015Y-149383546D01*
X111684777Y-149335927D01*
X111541920Y-149335927D01*
X111446681Y-149288308D01*
X111399062Y-149193070D01*
X111399062Y-149145451D01*
X111446681Y-149050213D01*
X111541920Y-149002594D01*
X111684777Y-149002594D01*
X111780015Y-149050213D01*
X112256205Y-149574022D02*
X112303824Y-149621641D01*
X112256205Y-149669260D01*
X112208586Y-149621641D01*
X112256205Y-149574022D01*
X112256205Y-149669260D01*
X112256205Y-149050213D02*
X112303824Y-149097832D01*
X112256205Y-149145451D01*
X112208586Y-149097832D01*
X112256205Y-149050213D01*
X112256205Y-149145451D01*
X113446681Y-148621641D02*
X112589539Y-149907356D01*
X114494300Y-148621641D02*
X113637158Y-149907356D01*
X115256205Y-149002594D02*
X115256205Y-149812118D01*
X115208586Y-149907356D01*
X115160967Y-149954975D01*
X115065729Y-150002594D01*
X114922872Y-150002594D01*
X114827634Y-149954975D01*
X115256205Y-149621641D02*
X115160967Y-149669260D01*
X114970491Y-149669260D01*
X114875253Y-149621641D01*
X114827634Y-149574022D01*
X114780015Y-149478784D01*
X114780015Y-149193070D01*
X114827634Y-149097832D01*
X114875253Y-149050213D01*
X114970491Y-149002594D01*
X115160967Y-149002594D01*
X115256205Y-149050213D01*
X115732396Y-149669260D02*
X115732396Y-149002594D01*
X115732396Y-148669260D02*
X115684777Y-148716880D01*
X115732396Y-148764499D01*
X115780015Y-148716880D01*
X115732396Y-148669260D01*
X115732396Y-148764499D01*
X116065729Y-149002594D02*
X116446681Y-149002594D01*
X116208586Y-148669260D02*
X116208586Y-149526403D01*
X116256205Y-149621641D01*
X116351443Y-149669260D01*
X116446681Y-149669260D01*
X116780015Y-149669260D02*
X116780015Y-148669260D01*
X117208586Y-149669260D02*
X117208586Y-149145451D01*
X117160967Y-149050213D01*
X117065729Y-149002594D01*
X116922872Y-149002594D01*
X116827634Y-149050213D01*
X116780015Y-149097832D01*
X118113348Y-149002594D02*
X118113348Y-149669260D01*
X117684777Y-149002594D02*
X117684777Y-149526403D01*
X117732396Y-149621641D01*
X117827634Y-149669260D01*
X117970491Y-149669260D01*
X118065729Y-149621641D01*
X118113348Y-149574022D01*
X118589539Y-149669260D02*
X118589539Y-148669260D01*
X118589539Y-149050213D02*
X118684777Y-149002594D01*
X118875253Y-149002594D01*
X118970491Y-149050213D01*
X119018110Y-149097832D01*
X119065729Y-149193070D01*
X119065729Y-149478784D01*
X119018110Y-149574022D01*
X118970491Y-149621641D01*
X118875253Y-149669260D01*
X118684777Y-149669260D01*
X118589539Y-149621641D01*
X119494300Y-149574022D02*
X119541920Y-149621641D01*
X119494300Y-149669260D01*
X119446681Y-149621641D01*
X119494300Y-149574022D01*
X119494300Y-149669260D01*
X120399062Y-149621641D02*
X120303824Y-149669260D01*
X120113348Y-149669260D01*
X120018110Y-149621641D01*
X119970491Y-149574022D01*
X119922872Y-149478784D01*
X119922872Y-149193070D01*
X119970491Y-149097832D01*
X120018110Y-149050213D01*
X120113348Y-149002594D01*
X120303824Y-149002594D01*
X120399062Y-149050213D01*
X120970491Y-149669260D02*
X120875253Y-149621641D01*
X120827634Y-149574022D01*
X120780015Y-149478784D01*
X120780015Y-149193070D01*
X120827634Y-149097832D01*
X120875253Y-149050213D01*
X120970491Y-149002594D01*
X121113348Y-149002594D01*
X121208586Y-149050213D01*
X121256205Y-149097832D01*
X121303824Y-149193070D01*
X121303824Y-149478784D01*
X121256205Y-149574022D01*
X121208586Y-149621641D01*
X121113348Y-149669260D01*
X120970491Y-149669260D01*
X121732396Y-149669260D02*
X121732396Y-149002594D01*
X121732396Y-149097832D02*
X121780015Y-149050213D01*
X121875253Y-149002594D01*
X122018110Y-149002594D01*
X122113348Y-149050213D01*
X122160967Y-149145451D01*
X122160967Y-149669260D01*
X122160967Y-149145451D02*
X122208586Y-149050213D01*
X122303824Y-149002594D01*
X122446681Y-149002594D01*
X122541920Y-149050213D01*
X122589539Y-149145451D01*
X122589539Y-149669260D01*
X123780015Y-148621641D02*
X122922872Y-149907356D01*
X124113348Y-149002594D02*
X124113348Y-149859737D01*
X124065729Y-149954975D01*
X123970491Y-150002594D01*
X123922872Y-150002594D01*
X124113348Y-148669260D02*
X124065729Y-148716880D01*
X124113348Y-148764499D01*
X124160967Y-148716880D01*
X124113348Y-148669260D01*
X124113348Y-148764499D01*
X124446681Y-149002594D02*
X124827634Y-149002594D01*
X124589539Y-149669260D02*
X124589539Y-148812118D01*
X124637158Y-148716880D01*
X124732396Y-148669260D01*
X124827634Y-148669260D01*
X125541920Y-149621641D02*
X125446681Y-149669260D01*
X125256205Y-149669260D01*
X125160967Y-149621641D01*
X125113348Y-149526403D01*
X125113348Y-149145451D01*
X125160967Y-149050213D01*
X125256205Y-149002594D01*
X125446681Y-149002594D01*
X125541920Y-149050213D01*
X125589539Y-149145451D01*
X125589539Y-149240689D01*
X125113348Y-149335927D01*
X126018110Y-149669260D02*
X126018110Y-149002594D01*
X126018110Y-149193070D02*
X126065729Y-149097832D01*
X126113348Y-149050213D01*
X126208586Y-149002594D01*
X126303824Y-149002594D01*
X126637158Y-149669260D02*
X126637158Y-149002594D01*
X126637158Y-149193070D02*
X126684777Y-149097832D01*
X126732396Y-149050213D01*
X126827634Y-149002594D01*
X126922872Y-149002594D01*
X127637158Y-149621641D02*
X127541920Y-149669260D01*
X127351443Y-149669260D01*
X127256205Y-149621641D01*
X127208586Y-149526403D01*
X127208586Y-149145451D01*
X127256205Y-149050213D01*
X127351443Y-149002594D01*
X127541920Y-149002594D01*
X127637158Y-149050213D01*
X127684777Y-149145451D01*
X127684777Y-149240689D01*
X127208586Y-149335927D01*
X128256205Y-149669260D02*
X128160967Y-149621641D01*
X128113348Y-149526403D01*
X128113348Y-148669260D01*
X128780015Y-149669260D02*
X128684777Y-149621641D01*
X128637158Y-149526403D01*
X128637158Y-148669260D01*
X129113348Y-148764499D02*
X129160967Y-148716880D01*
X129256205Y-148669260D01*
X129494300Y-148669260D01*
X129589539Y-148716880D01*
X129637158Y-148764499D01*
X129684777Y-148859737D01*
X129684777Y-148954975D01*
X129637158Y-149097832D01*
X129065729Y-149669260D01*
X129684777Y-149669260D01*
X130303824Y-148669260D02*
X130399062Y-148669260D01*
X130494300Y-148716880D01*
X130541920Y-148764499D01*
X130589539Y-148859737D01*
X130637158Y-149050213D01*
X130637158Y-149288308D01*
X130589539Y-149478784D01*
X130541920Y-149574022D01*
X130494300Y-149621641D01*
X130399062Y-149669260D01*
X130303824Y-149669260D01*
X130208586Y-149621641D01*
X130160967Y-149574022D01*
X130113348Y-149478784D01*
X130065729Y-149288308D01*
X130065729Y-149050213D01*
X130113348Y-148859737D01*
X130160967Y-148764499D01*
X130208586Y-148716880D01*
X130303824Y-148669260D01*
X131541920Y-148669260D02*
X131065729Y-148669260D01*
X131018110Y-149145451D01*
X131065729Y-149097832D01*
X131160967Y-149050213D01*
X131399062Y-149050213D01*
X131494300Y-149097832D01*
X131541920Y-149145451D01*
X131589539Y-149240689D01*
X131589539Y-149478784D01*
X131541920Y-149574022D01*
X131494300Y-149621641D01*
X131399062Y-149669260D01*
X131160967Y-149669260D01*
X131065729Y-149621641D01*
X131018110Y-149574022D01*
X132732396Y-148621641D02*
X131875253Y-149907356D01*
X133065729Y-149669260D02*
X133065729Y-148669260D01*
X133446681Y-148669260D01*
X133541920Y-148716880D01*
X133589539Y-148764499D01*
X133637158Y-148859737D01*
X133637158Y-149002594D01*
X133589539Y-149097832D01*
X133541920Y-149145451D01*
X133446681Y-149193070D01*
X133065729Y-149193070D01*
X134637158Y-149574022D02*
X134589539Y-149621641D01*
X134446681Y-149669260D01*
X134351443Y-149669260D01*
X134208586Y-149621641D01*
X134113348Y-149526403D01*
X134065729Y-149431165D01*
X134018110Y-149240689D01*
X134018110Y-149097832D01*
X134065729Y-148907356D01*
X134113348Y-148812118D01*
X134208586Y-148716880D01*
X134351443Y-148669260D01*
X134446681Y-148669260D01*
X134589539Y-148716880D01*
X134637158Y-148764499D01*
X135399062Y-149145451D02*
X135541920Y-149193070D01*
X135589539Y-149240689D01*
X135637158Y-149335927D01*
X135637158Y-149478784D01*
X135589539Y-149574022D01*
X135541920Y-149621641D01*
X135446681Y-149669260D01*
X135065729Y-149669260D01*
X135065729Y-148669260D01*
X135399062Y-148669260D01*
X135494300Y-148716880D01*
X135541920Y-148764499D01*
X135589539Y-148859737D01*
X135589539Y-148954975D01*
X135541920Y-149050213D01*
X135494300Y-149097832D01*
X135399062Y-149145451D01*
X135065729Y-149145451D01*
X115373760Y-60402220D02*
X114897570Y-60402220D01*
X114849951Y-60878411D01*
X114897570Y-60830792D01*
X114992808Y-60783173D01*
X115230903Y-60783173D01*
X115326141Y-60830792D01*
X115373760Y-60878411D01*
X115421380Y-60973649D01*
X115421380Y-61211744D01*
X115373760Y-61306982D01*
X115326141Y-61354601D01*
X115230903Y-61402220D01*
X114992808Y-61402220D01*
X114897570Y-61354601D01*
X114849951Y-61306982D01*
X115754713Y-60402220D02*
X116421380Y-61402220D01*
X116421380Y-60402220D02*
X115754713Y-61402220D01*
X117230903Y-60735554D02*
X117230903Y-61402220D01*
X116992808Y-60354601D02*
X116754713Y-61068887D01*
X117373760Y-61068887D01*
X118516618Y-61021268D02*
X119278522Y-61021268D01*
X121040427Y-61402220D02*
X120468999Y-61402220D01*
X120754713Y-61402220D02*
X120754713Y-60402220D01*
X120659475Y-60545078D01*
X120564237Y-60640316D01*
X120468999Y-60687935D01*
X121421380Y-60497459D02*
X121468999Y-60449840D01*
X121564237Y-60402220D01*
X121802332Y-60402220D01*
X121897570Y-60449840D01*
X121945189Y-60497459D01*
X121992808Y-60592697D01*
X121992808Y-60687935D01*
X121945189Y-60830792D01*
X121373760Y-61402220D01*
X121992808Y-61402220D01*
X122421380Y-61402220D02*
X122421380Y-60735554D01*
X122421380Y-60830792D02*
X122468999Y-60783173D01*
X122564237Y-60735554D01*
X122707094Y-60735554D01*
X122802332Y-60783173D01*
X122849951Y-60878411D01*
X122849951Y-61402220D01*
X122849951Y-60878411D02*
X122897570Y-60783173D01*
X122992808Y-60735554D01*
X123135665Y-60735554D01*
X123230903Y-60783173D01*
X123278522Y-60878411D01*
X123278522Y-61402220D01*
X123754713Y-61402220D02*
X123754713Y-60735554D01*
X123754713Y-60830792D02*
X123802332Y-60783173D01*
X123897570Y-60735554D01*
X124040427Y-60735554D01*
X124135665Y-60783173D01*
X124183284Y-60878411D01*
X124183284Y-61402220D01*
X124183284Y-60878411D02*
X124230903Y-60783173D01*
X124326141Y-60735554D01*
X124468999Y-60735554D01*
X124564237Y-60783173D01*
X124611856Y-60878411D01*
X124611856Y-61402220D01*
X125707094Y-60402220D02*
X126278522Y-60402220D01*
X125992808Y-61402220D02*
X125992808Y-60402220D01*
X127040427Y-61402220D02*
X127040427Y-60878411D01*
X126992808Y-60783173D01*
X126897570Y-60735554D01*
X126707094Y-60735554D01*
X126611856Y-60783173D01*
X127040427Y-61354601D02*
X126945189Y-61402220D01*
X126707094Y-61402220D01*
X126611856Y-61354601D01*
X126564237Y-61259363D01*
X126564237Y-61164125D01*
X126611856Y-61068887D01*
X126707094Y-61021268D01*
X126945189Y-61021268D01*
X127040427Y-60973649D01*
X127945189Y-61354601D02*
X127849951Y-61402220D01*
X127659475Y-61402220D01*
X127564237Y-61354601D01*
X127516618Y-61306982D01*
X127468999Y-61211744D01*
X127468999Y-60926030D01*
X127516618Y-60830792D01*
X127564237Y-60783173D01*
X127659475Y-60735554D01*
X127849951Y-60735554D01*
X127945189Y-60783173D01*
X128230903Y-60735554D02*
X128611856Y-60735554D01*
X128373760Y-60402220D02*
X128373760Y-61259363D01*
X128421380Y-61354601D01*
X128516618Y-61402220D01*
X128611856Y-61402220D01*
X128945189Y-61402220D02*
X128945189Y-60735554D01*
X128945189Y-60402220D02*
X128897570Y-60449840D01*
X128945189Y-60497459D01*
X128992808Y-60449840D01*
X128945189Y-60402220D01*
X128945189Y-60497459D01*
X129564237Y-61402220D02*
X129468999Y-61354601D01*
X129421380Y-61259363D01*
X129421380Y-60402220D01*
X130326141Y-61354601D02*
X130230903Y-61402220D01*
X130040427Y-61402220D01*
X129945189Y-61354601D01*
X129897570Y-61259363D01*
X129897570Y-60878411D01*
X129945189Y-60783173D01*
X130040427Y-60735554D01*
X130230903Y-60735554D01*
X130326141Y-60783173D01*
X130373760Y-60878411D01*
X130373760Y-60973649D01*
X129897570Y-61068887D01*
X131516618Y-61354601D02*
X131659475Y-61402220D01*
X131897570Y-61402220D01*
X131992808Y-61354601D01*
X132040427Y-61306982D01*
X132088046Y-61211744D01*
X132088046Y-61116506D01*
X132040427Y-61021268D01*
X131992808Y-60973649D01*
X131897570Y-60926030D01*
X131707094Y-60878411D01*
X131611856Y-60830792D01*
X131564237Y-60783173D01*
X131516618Y-60687935D01*
X131516618Y-60592697D01*
X131564237Y-60497459D01*
X131611856Y-60449840D01*
X131707094Y-60402220D01*
X131945189Y-60402220D01*
X132088046Y-60449840D01*
X132421380Y-60735554D02*
X132611856Y-61402220D01*
X132802332Y-60926030D01*
X132992808Y-61402220D01*
X133183284Y-60735554D01*
X133564237Y-61402220D02*
X133564237Y-60735554D01*
X133564237Y-60402220D02*
X133516618Y-60449840D01*
X133564237Y-60497459D01*
X133611856Y-60449840D01*
X133564237Y-60402220D01*
X133564237Y-60497459D01*
X133897570Y-60735554D02*
X134278522Y-60735554D01*
X134040427Y-60402220D02*
X134040427Y-61259363D01*
X134088046Y-61354601D01*
X134183284Y-61402220D01*
X134278522Y-61402220D01*
X135040427Y-61354601D02*
X134945189Y-61402220D01*
X134754713Y-61402220D01*
X134659475Y-61354601D01*
X134611856Y-61306982D01*
X134564237Y-61211744D01*
X134564237Y-60926030D01*
X134611856Y-60830792D01*
X134659475Y-60783173D01*
X134754713Y-60735554D01*
X134945189Y-60735554D01*
X135040427Y-60783173D01*
X135468999Y-61402220D02*
X135468999Y-60402220D01*
X135897570Y-61402220D02*
X135897570Y-60878411D01*
X135849951Y-60783173D01*
X135754713Y-60735554D01*
X135611856Y-60735554D01*
X135516618Y-60783173D01*
X135468999Y-60830792D01*
X137135665Y-61402220D02*
X137135665Y-60402220D01*
X137468999Y-61116506D01*
X137802332Y-60402220D01*
X137802332Y-61402220D01*
X138707094Y-61402220D02*
X138707094Y-60878411D01*
X138659475Y-60783173D01*
X138564237Y-60735554D01*
X138373760Y-60735554D01*
X138278522Y-60783173D01*
X138707094Y-61354601D02*
X138611856Y-61402220D01*
X138373760Y-61402220D01*
X138278522Y-61354601D01*
X138230903Y-61259363D01*
X138230903Y-61164125D01*
X138278522Y-61068887D01*
X138373760Y-61021268D01*
X138611856Y-61021268D01*
X138707094Y-60973649D01*
X139040427Y-60735554D02*
X139421380Y-60735554D01*
X139183284Y-60402220D02*
X139183284Y-61259363D01*
X139230903Y-61354601D01*
X139326141Y-61402220D01*
X139421380Y-61402220D01*
X139754713Y-61402220D02*
X139754713Y-60735554D01*
X139754713Y-60926030D02*
X139802332Y-60830792D01*
X139849951Y-60783173D01*
X139945189Y-60735554D01*
X140040427Y-60735554D01*
X140373760Y-61402220D02*
X140373760Y-60735554D01*
X140373760Y-60402220D02*
X140326141Y-60449840D01*
X140373760Y-60497459D01*
X140421380Y-60449840D01*
X140373760Y-60402220D01*
X140373760Y-60497459D01*
X140754713Y-61402220D02*
X141278522Y-60735554D01*
X140754713Y-60735554D02*
X141278522Y-61402220D01*
X142659475Y-61735554D02*
X142659475Y-60306982D01*
X143992808Y-60402220D02*
X144326141Y-61402220D01*
X144659475Y-60402220D01*
X144992808Y-61306982D02*
X145040427Y-61354601D01*
X144992808Y-61402220D01*
X144945189Y-61354601D01*
X144992808Y-61306982D01*
X144992808Y-61402220D01*
X145373760Y-60402220D02*
X145992808Y-60402220D01*
X145659475Y-60783173D01*
X145802332Y-60783173D01*
X145897570Y-60830792D01*
X145945189Y-60878411D01*
X145992808Y-60973649D01*
X145992808Y-61211744D01*
X145945189Y-61306982D01*
X145897570Y-61354601D01*
X145802332Y-61402220D01*
X145516618Y-61402220D01*
X145421380Y-61354601D01*
X145373760Y-61306982D01*
D12*
%TO.C,REF\u002A\u002A*%
X177356988Y-95810396D02*
X177087678Y-96196926D01*
X175840999Y-94112047D02*
X176024208Y-94065099D01*
X178605737Y-94594733D02*
X178490756Y-94703414D01*
X175511443Y-98331539D02*
X176248754Y-98354397D01*
X175998845Y-97542700D02*
X175846647Y-97718844D01*
X178394277Y-94067716D02*
X178579866Y-94256860D01*
X176009082Y-93776347D02*
X175840999Y-94112047D01*
X178280262Y-94871416D02*
X178150083Y-94977058D01*
X176133960Y-97393807D02*
X175998845Y-97542700D01*
X177624123Y-95450714D02*
X177481329Y-95636627D01*
X178150083Y-94977058D02*
X177946923Y-95148465D01*
X178760985Y-99164360D02*
X178536111Y-99423738D01*
X178897023Y-98999802D02*
X178760985Y-99164360D01*
X178490756Y-94703414D02*
X178374856Y-94790807D01*
X178915463Y-98762810D02*
X178897023Y-98999802D01*
X178907800Y-98593541D02*
X178915463Y-98762810D01*
X176311304Y-97177478D02*
X176133960Y-97393807D01*
X176479314Y-96971932D02*
X176311304Y-97177478D01*
X176823167Y-96568929D02*
X176479314Y-96971932D01*
X176749996Y-93856173D02*
X177114736Y-93771441D01*
X177946923Y-95148465D02*
X177738317Y-95322840D01*
X175240759Y-98259021D02*
X175178275Y-98309691D01*
X175550861Y-92912830D02*
X175805244Y-93093619D01*
X178870733Y-98498010D02*
X178907800Y-98593541D01*
X178758459Y-98369245D02*
X178870733Y-98498010D01*
X178577263Y-98249761D02*
X178758459Y-98369245D01*
X178283575Y-98059673D02*
X178577263Y-98249761D01*
X178028605Y-97897739D02*
X178283575Y-98059673D01*
X178637623Y-94452416D02*
X178605737Y-94594733D01*
X176024208Y-94065099D02*
X176749996Y-93856173D01*
X177893370Y-97886719D02*
X178028605Y-97897739D01*
X177741993Y-97951066D02*
X177893370Y-97886719D01*
X177368595Y-98123059D02*
X177741993Y-97951066D01*
X176740665Y-98294176D02*
X177368595Y-98123059D01*
X178579866Y-94256860D02*
X178629600Y-94350533D01*
X176037987Y-93564601D02*
X176009082Y-93776347D01*
X176248754Y-98354397D02*
X176740665Y-98294176D01*
X175846647Y-97718844D02*
X175687922Y-97888422D01*
X175178275Y-98309691D02*
X175511443Y-98331539D01*
X177686753Y-93738849D02*
X177893916Y-93821935D01*
X177114736Y-93771441D02*
X177493276Y-93726743D01*
X175687922Y-97888422D02*
X175240759Y-98259021D01*
X176917311Y-96434955D02*
X176823167Y-96568929D01*
X177087678Y-96196926D02*
X176917311Y-96434955D01*
X177481329Y-95636627D02*
X177356988Y-95810396D01*
X177493276Y-93726743D02*
X177686753Y-93738849D01*
X177738317Y-95322840D02*
X177624123Y-95450714D01*
X178374856Y-94790807D02*
X178280262Y-94871416D01*
X177893916Y-93821935D02*
X178394277Y-94067716D01*
X175980231Y-93325385D02*
X176037987Y-93564601D01*
X175805244Y-93093619D02*
X175980231Y-93325385D01*
X178629600Y-94350533D02*
X178637623Y-94452416D01*
X174809790Y-93060488D02*
X174841244Y-92944277D01*
X173511134Y-99840668D02*
X173199852Y-100018202D01*
X174826399Y-93138202D02*
X174809790Y-93060488D01*
X174834571Y-93174462D02*
X174826399Y-93138202D01*
X171186991Y-100448299D02*
X171532346Y-100194464D01*
X173058332Y-95926395D02*
X173544859Y-95434846D01*
X170608369Y-100799524D02*
X170717092Y-100704695D01*
X172623688Y-99269084D02*
X172826559Y-99059016D01*
X173873129Y-98013510D02*
X174346080Y-97565770D01*
X174343861Y-94473454D02*
X174490731Y-94221439D01*
X174900649Y-93482477D02*
X174863388Y-93316955D01*
X174490731Y-94221439D02*
X174780233Y-93746938D01*
X174186190Y-94711381D02*
X174343861Y-94473454D01*
X172644579Y-100407802D02*
X172491727Y-100489694D01*
X174759161Y-96988054D02*
X174511365Y-96685777D01*
X174511365Y-96685777D02*
X174199035Y-96376727D01*
X174017422Y-96223403D02*
X173986926Y-96237845D01*
X171004980Y-100551224D02*
X171186991Y-100448299D01*
X171931238Y-99919361D02*
X172623688Y-99269084D01*
X173749928Y-95229500D02*
X173971869Y-94982063D01*
X173544859Y-95434846D02*
X173749928Y-95229500D01*
X172321062Y-96548036D02*
X172615079Y-96306741D01*
X172663958Y-96856251D02*
X172368446Y-96900270D01*
X172491727Y-100489694D02*
X172312066Y-100568736D01*
X174075237Y-96260988D02*
X174017422Y-96223403D01*
X172184271Y-96690921D02*
X172321062Y-96548036D01*
X172368446Y-96900270D02*
X172202657Y-96873292D01*
X171270996Y-101004038D02*
X171150398Y-101045507D01*
X172157718Y-96773766D02*
X172184271Y-96690921D01*
X170925641Y-101063008D02*
X170636291Y-101056330D01*
X172202657Y-96873292D02*
X172157718Y-96773766D01*
X173986926Y-96237845D02*
X173701776Y-96430967D01*
X173199852Y-100018202D02*
X173080339Y-100065000D01*
X173701776Y-96430967D02*
X173223008Y-96652422D01*
X174608972Y-97243443D02*
X174705619Y-97097880D01*
X173440586Y-98433484D02*
X173649115Y-98235462D01*
X174346080Y-97565770D02*
X174608972Y-97243443D01*
X170564682Y-100989646D02*
X170556470Y-100899276D01*
X171782404Y-100803234D02*
X171467009Y-100932240D01*
X170636291Y-101056330D02*
X170564682Y-100989646D01*
X174863388Y-93316955D02*
X174834571Y-93174462D01*
X173971869Y-94982063D02*
X174186190Y-94711381D01*
X172615079Y-96306741D02*
X173058332Y-95926395D01*
X171467009Y-100932240D02*
X171270996Y-101004038D01*
X173223008Y-96652422D02*
X172941766Y-96769564D01*
X173649115Y-98235462D02*
X173873129Y-98013510D01*
X174199035Y-96376727D02*
X174075237Y-96260988D01*
X173025729Y-98849365D02*
X173173788Y-98692411D01*
X171532346Y-100194464D02*
X171931238Y-99919361D01*
X172826559Y-99059016D02*
X173025729Y-98849365D01*
X170717092Y-100704695D02*
X171004980Y-100551224D01*
X173080339Y-100065000D02*
X172940594Y-100169342D01*
X174705619Y-97097880D02*
X174759161Y-96988054D01*
X170556470Y-100899276D02*
X170608369Y-100799524D01*
X172312066Y-100568736D02*
X171782404Y-100803234D01*
X175191236Y-92816299D02*
X175376046Y-92834240D01*
X172941766Y-96769564D02*
X172663958Y-96856251D01*
X172940594Y-100169342D02*
X172644579Y-100407802D01*
X171150398Y-101045507D02*
X170925641Y-101063008D01*
X175376046Y-92834240D02*
X175550861Y-92912830D01*
X174955359Y-92837214D02*
X175191236Y-92816299D01*
X174841244Y-92944277D02*
X174955359Y-92837214D01*
X174780233Y-93746938D02*
X174900649Y-93482477D01*
X173173788Y-98692411D02*
X173440586Y-98433484D01*
X174187155Y-100262150D02*
X174108169Y-99650355D01*
X174225905Y-103339917D02*
X174165174Y-103522750D01*
X174353409Y-100923183D02*
X174187155Y-100262150D01*
X176191709Y-103642112D02*
X176171544Y-103541985D01*
X175771383Y-102895751D02*
X175778163Y-103141617D01*
X176918123Y-102141147D02*
X177000195Y-101931244D01*
X175188931Y-102265635D02*
X175572671Y-102576267D01*
X174453709Y-101305873D02*
X174353409Y-100923183D01*
X174571019Y-101738462D02*
X174453709Y-101305873D01*
X176230247Y-103721450D02*
X176230246Y-103721450D01*
X176423312Y-103724004D02*
X176286453Y-103748697D01*
X175577441Y-103734658D02*
X175467137Y-103747584D01*
X176703541Y-102565950D02*
X176847764Y-102309158D01*
X173828080Y-103785050D02*
X173617512Y-103742376D01*
X176286453Y-103748697D02*
X176230247Y-103721450D01*
X177487377Y-103255715D02*
X177280095Y-103331510D01*
X176171544Y-103541985D02*
X176160970Y-103478630D01*
X175718129Y-102758927D02*
X175771383Y-102895751D01*
X177279421Y-101716634D02*
X177681488Y-101807717D01*
X177000195Y-101931244D02*
X177048099Y-101814296D01*
X176230246Y-103721450D02*
X176191709Y-103642112D01*
X175467137Y-103747584D02*
X175305145Y-103712179D01*
X175758710Y-103507563D02*
X175664824Y-103665500D01*
X173617512Y-103742376D02*
X173617511Y-103742375D01*
X177602778Y-103207361D02*
X177487377Y-103255715D01*
X178231842Y-102140440D02*
X178265778Y-102347271D01*
X176847764Y-102309158D02*
X176918123Y-102141147D01*
X174247970Y-102267264D02*
X174172806Y-102047387D01*
X177730950Y-103091622D02*
X177602778Y-103207361D01*
X174172211Y-101906292D02*
X174305645Y-101864206D01*
X174691889Y-101911243D02*
X174571019Y-101738462D01*
X176986962Y-103493380D02*
X176696565Y-103643886D01*
X174165174Y-103522750D02*
X174076956Y-103673454D01*
X178116341Y-102008184D02*
X178231842Y-102140440D01*
X177936296Y-102866896D02*
X177730950Y-103091622D01*
X178112748Y-102663664D02*
X177936296Y-102866896D01*
X177121680Y-101747375D02*
X177279421Y-101716634D01*
X174546166Y-101913475D02*
X174877673Y-102069199D01*
X175150563Y-103521904D02*
X174631548Y-102827299D01*
X174305645Y-101864206D02*
X174546166Y-101913475D01*
X178243713Y-102501109D02*
X178112748Y-102663664D01*
X178265778Y-102347271D02*
X178243713Y-102501109D01*
X177681488Y-101807717D02*
X178116341Y-102008184D01*
X174631548Y-102827299D02*
X174247970Y-102267264D01*
X177048099Y-101814296D02*
X177121680Y-101747375D01*
X176542863Y-102817965D02*
X176703541Y-102565950D01*
X176394461Y-103079315D02*
X176542863Y-102817965D01*
X175664824Y-103665500D02*
X175577441Y-103734658D01*
X175778163Y-103141617D02*
X175758710Y-103507563D01*
X176160970Y-103478630D02*
X176248710Y-103356763D01*
X175572671Y-102576267D02*
X175718129Y-102758927D01*
X174076956Y-103673454D02*
X173971887Y-103768210D01*
X175305145Y-103712179D02*
X175305141Y-103712178D01*
X174877673Y-102069199D02*
X175188931Y-102265635D01*
X175305141Y-103712178D02*
X175150563Y-103521904D01*
X173807804Y-99644436D02*
X173511134Y-99840668D01*
X174108169Y-99650355D02*
X174095404Y-99478930D01*
X173971887Y-103768210D02*
X173828080Y-103785050D01*
X174172806Y-102047387D02*
X174172211Y-101906292D01*
X176696565Y-103643886D02*
X176423312Y-103724004D01*
X177280095Y-103331510D02*
X176986962Y-103493380D01*
X176248710Y-103356763D02*
X176394461Y-103079315D01*
X173962428Y-99561683D02*
X173807804Y-99644436D01*
X174095404Y-99478930D02*
X173962428Y-99561683D01*
X174200259Y-103006731D02*
X174248512Y-103148772D01*
X176359239Y-104857413D02*
X176206469Y-104684736D01*
X176225459Y-105448991D02*
X176486809Y-105486855D01*
X173998467Y-102858790D02*
X174200259Y-103006731D01*
X173875156Y-106750745D02*
X173904120Y-106667840D01*
X176421756Y-106420419D02*
X176570470Y-106469504D01*
X175663464Y-104898776D02*
X175779387Y-105041413D01*
X176775746Y-105380110D02*
X176359239Y-104857413D01*
X175966477Y-105373437D02*
X176060147Y-105415954D01*
X173585065Y-102681503D02*
X173998467Y-102858790D01*
X172984794Y-103017809D02*
X172903353Y-102800428D01*
X176775673Y-105380127D02*
X176775746Y-105380110D01*
X175187201Y-106506128D02*
X175831454Y-106416456D01*
X172848428Y-102596555D02*
X172864390Y-102480504D01*
X173260174Y-103508596D02*
X173163394Y-103360509D01*
X176486809Y-105486855D02*
X176846789Y-105540674D01*
X176734381Y-106801607D02*
X176676167Y-106942811D01*
X173904120Y-106667840D02*
X173981761Y-106608633D01*
X176570470Y-106469504D02*
X176672654Y-106550018D01*
X173917739Y-106897941D02*
X173875156Y-106750745D01*
X174279921Y-107140250D02*
X174071627Y-107027242D01*
X176060147Y-105415954D02*
X176225459Y-105448991D01*
X176846789Y-105540674D02*
X176873447Y-105520638D01*
X175986421Y-104684750D02*
X175450781Y-104698259D01*
X173406576Y-103647376D02*
X173260174Y-103508596D01*
X176233556Y-107067343D02*
X175863279Y-107083989D01*
X175831454Y-106416456D02*
X176421756Y-106420419D01*
X174066771Y-105298198D02*
X173909567Y-105501029D01*
X172903353Y-102800428D02*
X172848428Y-102596555D01*
X173617511Y-103742375D02*
X173406576Y-103647376D01*
X173307518Y-102585974D02*
X173585065Y-102681503D01*
X173091110Y-102464361D02*
X173307518Y-102585974D01*
X172864390Y-102480504D02*
X172911218Y-102419211D01*
X176451314Y-107026866D02*
X176233556Y-107067343D01*
X172987322Y-102413541D02*
X173091110Y-102464361D01*
X176206469Y-104684736D02*
X175986421Y-104684750D01*
X172911218Y-102419211D02*
X172987322Y-102413541D01*
X174715209Y-107159714D02*
X174279921Y-107140249D01*
X176727546Y-106661029D02*
X176734381Y-106801607D01*
X175135234Y-107129508D02*
X174715209Y-107159714D01*
X175863279Y-107083989D02*
X175135234Y-107129508D01*
X175915819Y-105273992D02*
X175966477Y-105373437D01*
X175779387Y-105041413D02*
X175837836Y-105125017D01*
X173844221Y-105739465D02*
X173844221Y-105739465D01*
X176672654Y-106550018D02*
X176727546Y-106661029D01*
X176676167Y-106942811D02*
X176451314Y-107026866D01*
X174227576Y-106587084D02*
X174664994Y-106594385D01*
X176873447Y-105520638D02*
X176775673Y-105380127D01*
X175275290Y-104723666D02*
X175509387Y-104783158D01*
X175450781Y-104698259D02*
X175210764Y-104711500D01*
X173108007Y-103283714D02*
X173038987Y-103195997D01*
X174664994Y-106594385D02*
X175187201Y-106506128D01*
X173981761Y-106608633D02*
X174094205Y-106579567D01*
X174279921Y-107140249D02*
X174279921Y-107140250D01*
X174071627Y-107027242D02*
X173917739Y-106897941D01*
X175210764Y-104711500D02*
X175275290Y-104723666D01*
X173038987Y-103195997D02*
X172984794Y-103017809D01*
X173163394Y-103360509D02*
X173108007Y-103283714D01*
X174094205Y-106579567D02*
X174227576Y-106587084D01*
X175509387Y-104783158D02*
X175663464Y-104898776D01*
X173759650Y-105767466D02*
X173844221Y-105739465D01*
X173909567Y-105501029D02*
X173759650Y-105767466D01*
X174248512Y-103148772D02*
X174225905Y-103339917D01*
X175837836Y-105125017D02*
X175915819Y-105273992D01*
X174550776Y-105612363D02*
X174718786Y-105564043D01*
X180183161Y-107167555D02*
X179823098Y-107187415D01*
X174312212Y-105676162D02*
X174550776Y-105612363D01*
X173844221Y-105739465D02*
X173989638Y-105711464D01*
X180574791Y-107080613D02*
X180478727Y-107151845D01*
X170762055Y-107741296D02*
X170712906Y-107706096D01*
X177827141Y-106704701D02*
X177622690Y-106458178D01*
X179066364Y-106111059D02*
X179306580Y-106225984D01*
X175947235Y-106280708D02*
X175443205Y-106304584D01*
X170712906Y-107706096D02*
X170712896Y-107706095D01*
X171371673Y-107659728D02*
X170904251Y-107739489D01*
X171849653Y-107485838D02*
X171371673Y-107659728D01*
X173595328Y-106087431D02*
X173572778Y-106038153D01*
X174173793Y-106230714D02*
X173884443Y-106198217D01*
X174369805Y-106259639D02*
X174173793Y-106230714D01*
X179528514Y-107253398D02*
X178895149Y-107309074D01*
X180553515Y-106887139D02*
X180593314Y-106983752D01*
X178467496Y-107268484D02*
X177827141Y-106704701D01*
X180435435Y-106783532D02*
X180553515Y-106887139D01*
X178321774Y-105694672D02*
X178671882Y-105923661D01*
X172073667Y-107382164D02*
X171849653Y-107485838D01*
X172380160Y-107228798D02*
X172073667Y-107382164D01*
X172969722Y-106811760D02*
X172676287Y-107023509D01*
X173680935Y-106164289D02*
X173595328Y-106087431D01*
X178895149Y-107309074D02*
X178566864Y-107322567D01*
X177926022Y-105433247D02*
X178321774Y-105694672D01*
X172676287Y-107023509D02*
X172380160Y-107228798D01*
X173536112Y-106103490D02*
X173218350Y-106634099D01*
X173572778Y-106038153D02*
X173536112Y-106103490D01*
X178566864Y-107322567D02*
X178467496Y-107268484D01*
X180593314Y-106983752D02*
X180574791Y-107080613D01*
X180184825Y-106671854D02*
X180435435Y-106783532D01*
X176693947Y-106206702D02*
X176446961Y-106255146D01*
X179823098Y-107187415D02*
X179528514Y-107253398D01*
X180478727Y-107151845D02*
X180183161Y-107167555D01*
X177842016Y-105376293D02*
X177926022Y-105433247D01*
X177665121Y-105233807D02*
X177842016Y-105376293D01*
X177440756Y-104992753D02*
X177665121Y-105233807D01*
X174908399Y-106317731D02*
X174537815Y-106293311D01*
X175443205Y-106304584D02*
X174908399Y-106317731D01*
X174656695Y-105092544D02*
X174620224Y-104914887D01*
X179306580Y-106225984D02*
X179729928Y-106464886D01*
X173989638Y-105711464D02*
X174312212Y-105676162D01*
X174257750Y-105049229D02*
X174066771Y-105298198D01*
X170904251Y-107739489D02*
X170762055Y-107741296D01*
X176446961Y-106255146D02*
X175947235Y-106280708D01*
X174414684Y-104815881D02*
X174257750Y-105049229D01*
X177238407Y-105991535D02*
X176945165Y-106131538D01*
X174469633Y-104712736D02*
X174414684Y-104815881D01*
X173884443Y-106198217D02*
X173680935Y-106164289D01*
X174573353Y-104719109D02*
X174469633Y-104712736D01*
X177622690Y-106458178D02*
X177238407Y-105991535D01*
X174654886Y-104729073D02*
X174573353Y-104719109D01*
X174537815Y-106293311D02*
X174369805Y-106259639D01*
X173218350Y-106634099D02*
X173113355Y-106732083D01*
X174649443Y-104753111D02*
X174654886Y-104729073D01*
X174620224Y-104914887D02*
X174649443Y-104753111D01*
X178671882Y-105923661D02*
X179066364Y-106111059D01*
X173113355Y-106732083D02*
X172969722Y-106811760D01*
X174830950Y-105500359D02*
X174656695Y-105092544D01*
X174820268Y-105547367D02*
X174830950Y-105500359D01*
X174718786Y-105564043D02*
X174820268Y-105547367D01*
X176945165Y-106131538D02*
X176693947Y-106206702D01*
X179729928Y-106464886D02*
X180184825Y-106671854D01*
X172271329Y-104675301D02*
X172001032Y-104470583D01*
X176494226Y-107398538D02*
X176574216Y-107521303D01*
X174154597Y-107390994D02*
X174985827Y-107337051D01*
X173713964Y-107565775D02*
X173721161Y-107488124D01*
X173864720Y-107417727D02*
X174154597Y-107390994D01*
X171801429Y-104226090D02*
X171828200Y-104071306D01*
X172877169Y-105637077D02*
X173252584Y-105121367D01*
X170878147Y-107436507D02*
X171027717Y-107360753D01*
X171828200Y-104071306D02*
X172409678Y-104044561D01*
X176419503Y-107918896D02*
X176074467Y-107980196D01*
X173433273Y-103955012D02*
X174055745Y-103919716D01*
X172372022Y-106121212D02*
X172877169Y-105637077D01*
X171856835Y-104348714D02*
X171820922Y-104311399D01*
X178961304Y-104447208D02*
X178872053Y-104509294D01*
X174705810Y-108036782D02*
X174325947Y-108041067D01*
X178921593Y-103898254D02*
X178983103Y-104037342D01*
X171219039Y-107215349D02*
X171869654Y-106594377D01*
X178608598Y-103602275D02*
X178773334Y-103702014D01*
X176283250Y-103770968D02*
X177102594Y-103714860D01*
X175237853Y-103843493D02*
X175704548Y-103806630D01*
X171027717Y-107360753D02*
X171219039Y-107215349D01*
X176550986Y-107820375D02*
X176419503Y-107918896D01*
X176600490Y-107684935D02*
X176550986Y-107820375D01*
X173783134Y-107450395D02*
X173864720Y-107417727D01*
X170712896Y-107706095D02*
X170683949Y-107603011D01*
X174774455Y-103881837D02*
X175237853Y-103843493D01*
X173315625Y-105007300D02*
X173189337Y-104994406D01*
X174325947Y-108041067D02*
X174213045Y-108007764D01*
X174055745Y-103919716D02*
X174774455Y-103881837D01*
X173252584Y-105121367D02*
X173315625Y-105007300D01*
X170719176Y-107513870D02*
X170878147Y-107436507D01*
X175704548Y-103806630D02*
X176283250Y-103770968D01*
X177208934Y-104736071D02*
X177440756Y-104992753D01*
X176213838Y-107280149D02*
X176363893Y-107304011D01*
X173189337Y-104994406D02*
X172914181Y-104943725D01*
X175499193Y-108016236D02*
X174705810Y-108036782D01*
X176363893Y-107304011D02*
X176494226Y-107398538D01*
X177103869Y-104628731D02*
X177208934Y-104736071D01*
X177440274Y-104626398D02*
X177103869Y-104628731D01*
X177828014Y-104615880D02*
X177440274Y-104626398D01*
X178171342Y-104601529D02*
X177828014Y-104615880D01*
X178719402Y-104551949D02*
X178171342Y-104601529D01*
X178872053Y-104509294D02*
X178719402Y-104551949D01*
X172549684Y-104824418D02*
X172271329Y-104675301D01*
X176574216Y-107521303D02*
X176600490Y-107684935D01*
X179000608Y-104348909D02*
X178961304Y-104447208D01*
X179003417Y-104197612D02*
X179000608Y-104348909D01*
X178983103Y-104037342D02*
X179003417Y-104197612D01*
X178773334Y-103702014D02*
X178921593Y-103898254D01*
X177776675Y-103628833D02*
X178223262Y-103595169D01*
X173721161Y-107488124D02*
X173783134Y-107450395D01*
X171820922Y-104311399D02*
X171801429Y-104226090D01*
X174985827Y-107337051D02*
X176077895Y-107277962D01*
X178223262Y-103595169D02*
X178608598Y-103602275D01*
X177102594Y-103714860D02*
X177776675Y-103628833D01*
X172409678Y-104044561D02*
X173053718Y-104013282D01*
X172001032Y-104470583D02*
X171856835Y-104348714D01*
X174213045Y-108007764D02*
X174213046Y-108007763D01*
X176074467Y-107980196D02*
X175499193Y-108016236D01*
X171869654Y-106594377D02*
X172372022Y-106121212D01*
X173053718Y-104013282D02*
X173433273Y-103955012D01*
X172914181Y-104943725D02*
X172549684Y-104824418D01*
X170683949Y-107603011D02*
X170719176Y-107513870D01*
X176077895Y-107277962D02*
X176213838Y-107280149D01*
X175732545Y-108173990D02*
X175956558Y-108125827D01*
X176227241Y-108071331D02*
X176441162Y-108047596D01*
X173615317Y-109163156D02*
X173529953Y-108903649D01*
X174406069Y-110462408D02*
X174311102Y-110569650D01*
X176144974Y-110283387D02*
X175939627Y-110302515D01*
X175845448Y-108965317D02*
X175535481Y-108991305D01*
X176975635Y-110194131D02*
X176869091Y-110227752D01*
X177144549Y-109321424D02*
X177025793Y-109414373D01*
X177039346Y-108231708D02*
X177147400Y-108299712D01*
X173742415Y-109954488D02*
X173706742Y-109758476D01*
X176927613Y-108164892D02*
X177039346Y-108231708D01*
X173529953Y-108903649D02*
X173420481Y-108699766D01*
X177554616Y-108868432D02*
X177525502Y-109048314D01*
X176105771Y-109460099D02*
X176152991Y-109355680D01*
X175555196Y-109520013D02*
X176105771Y-109460099D01*
X176869091Y-110227752D02*
X176750888Y-110198668D01*
X175410427Y-110343961D02*
X174875449Y-110375636D01*
X177517725Y-108647189D02*
X177554616Y-108868432D01*
X176750888Y-110198668D02*
X176693265Y-110177591D01*
X177147400Y-108299712D02*
X177357688Y-108459360D01*
X173395280Y-108371628D02*
X173437550Y-108296957D01*
X175939627Y-110302515D02*
X175709112Y-110320602D01*
X176607999Y-110198526D02*
X176373889Y-110260628D01*
X176441162Y-108047596D02*
X176693391Y-108092372D01*
X177366393Y-109169804D02*
X177144549Y-109321424D01*
X177525502Y-109048314D02*
X177366393Y-109169804D01*
X177357688Y-108459360D02*
X177517725Y-108647189D01*
X173352929Y-108533479D02*
X173395280Y-108371628D01*
X175956558Y-108125827D02*
X176227241Y-108071331D01*
X174174355Y-108287624D02*
X174932255Y-108264571D01*
X173420481Y-108699766D02*
X173352929Y-108533479D01*
X173437550Y-108296957D02*
X174174355Y-108287624D01*
X173912347Y-107769342D02*
X173713964Y-107565775D01*
X176373889Y-110260628D02*
X176144974Y-110283387D01*
X174213046Y-108007763D02*
X173912347Y-107769342D01*
X175209844Y-109547983D02*
X175209841Y-109547983D01*
X177035533Y-110040122D02*
X176975635Y-110194131D01*
X174871304Y-109575334D02*
X175209844Y-109547983D01*
X174702477Y-109568878D02*
X174871304Y-109575334D01*
X174647290Y-109524365D02*
X174702477Y-109568878D01*
X174606087Y-109269767D02*
X174647290Y-109524365D01*
X175085362Y-109090859D02*
X174736763Y-109080209D01*
X175320893Y-109053413D02*
X175085362Y-109090859D01*
X176693265Y-110177591D02*
X176607999Y-110198526D01*
X175209841Y-109547983D02*
X175555196Y-109520013D01*
X174077172Y-110583036D02*
X174077171Y-110583050D01*
X177041587Y-109546374D02*
X177035533Y-110040122D01*
X174311102Y-110569650D02*
X174191187Y-110600558D01*
X175709112Y-110320602D02*
X175410427Y-110343961D01*
X175305612Y-108222498D02*
X175732545Y-108173990D01*
X175535481Y-108991305D02*
X175320893Y-109053413D01*
X176120675Y-108983071D02*
X175845448Y-108965317D01*
X174875449Y-110375636D02*
X174447717Y-110387737D01*
X176693391Y-108092372D02*
X176927613Y-108164892D01*
X174932255Y-108264571D02*
X175305612Y-108222498D01*
X176152991Y-109355680D02*
X176183283Y-109141000D01*
X174599702Y-109066507D02*
X174606087Y-109269767D01*
X174447717Y-110387737D02*
X174406069Y-110462408D01*
X173706742Y-109758476D02*
X173615317Y-109163156D01*
X174736763Y-109080209D02*
X174599702Y-109066507D01*
X176165314Y-109037627D02*
X176120675Y-108983071D01*
X176183283Y-109141000D02*
X176165314Y-109037627D01*
X174191187Y-110600558D02*
X174077172Y-110583036D01*
X177025793Y-109414373D02*
X177041587Y-109546374D01*
X173799930Y-110178509D02*
X173742415Y-109954488D01*
X173839828Y-110292738D02*
X173799930Y-110178509D01*
X173934007Y-110425713D02*
X173839828Y-110292738D01*
X174077171Y-110583050D02*
X173934007Y-110425713D01*
X175769669Y-95791000D02*
X175769671Y-95791000D01*
X175355536Y-96276351D02*
X175452586Y-96182278D01*
X175306463Y-94937240D02*
X175240783Y-95035233D01*
X178345957Y-100993778D02*
X178355429Y-101088310D01*
X175295878Y-96182278D02*
X175355536Y-96276351D01*
X175300735Y-101427681D02*
X175166720Y-101628981D01*
X176429364Y-100456884D02*
X176793386Y-100419547D01*
X175171711Y-96051252D02*
X175295878Y-96182278D01*
X174789796Y-95827865D02*
X174966020Y-95928130D01*
X178245255Y-100881915D02*
X178300342Y-100933374D01*
X174635787Y-95751704D02*
X174789796Y-95827865D01*
X175222387Y-100497626D02*
X175253168Y-100566689D01*
X178038077Y-101325375D02*
X177226027Y-101360361D01*
X175517921Y-100560050D02*
X175900611Y-100506447D01*
X175970459Y-94922163D02*
X175650168Y-94933533D01*
X175282962Y-99216031D02*
X175290703Y-99671114D01*
X178355429Y-101088310D02*
X178317848Y-101236750D01*
X177307011Y-100334011D02*
X177313185Y-100199232D01*
X175166720Y-101628981D02*
X175017063Y-101881183D01*
X176793386Y-100419547D02*
X177039348Y-100373194D01*
X175937947Y-101410143D02*
X175300735Y-101427681D01*
X177226027Y-101360361D02*
X176647325Y-101381960D01*
X178300342Y-100933374D02*
X178345957Y-100993778D01*
X178317848Y-101236750D02*
X178205803Y-101296862D01*
X175321327Y-100577206D02*
X175517930Y-100560049D01*
X175240783Y-95035233D02*
X174977783Y-95327045D01*
X177306433Y-99086140D02*
X177219564Y-99075513D01*
X175900611Y-100506447D02*
X176429364Y-100456884D01*
X175339776Y-99195824D02*
X175282962Y-99216031D01*
X175253168Y-100566689D02*
X175321327Y-100577206D01*
X175611271Y-99148368D02*
X175339776Y-99195824D01*
X176171215Y-94871673D02*
X175970459Y-94922163D01*
X176460649Y-94952755D02*
X176538393Y-94778392D01*
X175517930Y-100560049D02*
X175517921Y-100560050D01*
X177312903Y-99575297D02*
X177306433Y-99086140D01*
X174966020Y-95928130D02*
X175171711Y-96051252D01*
X174977783Y-95327045D02*
X174584843Y-95727365D01*
X175650168Y-94933533D02*
X175306463Y-94937240D01*
X176313240Y-95178021D02*
X176460649Y-94952755D01*
X177247851Y-100342842D02*
X177307011Y-100334011D01*
X176085126Y-95408595D02*
X176313240Y-95178021D01*
X176645208Y-98989074D02*
X176217973Y-99038874D01*
X178281525Y-100575862D02*
X178245255Y-100881915D01*
X177219564Y-99075513D02*
X177010031Y-99027970D01*
X178353588Y-100027128D02*
X178326720Y-100223140D01*
X177039348Y-100373194D02*
X177247851Y-100342842D01*
X177313185Y-100199232D02*
X177312903Y-99575297D01*
X174852392Y-101939833D02*
X174691888Y-101911244D01*
X177010031Y-99027970D02*
X176645208Y-98989074D01*
X178205803Y-101296862D02*
X178038077Y-101325375D01*
X175769671Y-95791000D02*
X176085126Y-95408595D01*
X175267243Y-100188664D02*
X175214295Y-100351247D01*
X174691888Y-101911244D02*
X174691889Y-101911243D01*
X175017063Y-101881183D02*
X174953002Y-101930976D01*
X176217973Y-99038874D02*
X175611271Y-99148368D01*
X176647325Y-101381960D02*
X175937947Y-101410143D01*
X175452586Y-96182278D02*
X175769669Y-95791000D01*
X176538393Y-94778392D02*
X176171215Y-94871673D01*
X174584843Y-95727365D02*
X174635787Y-95751704D01*
X175214295Y-100351247D02*
X175222387Y-100497626D01*
X175290703Y-99671114D02*
X175267243Y-100188664D01*
X178536111Y-99423738D02*
X178418512Y-99641664D01*
X174953002Y-101930976D02*
X174852392Y-101939833D01*
X178418512Y-99641664D02*
X178353588Y-100027128D01*
X178326720Y-100223140D02*
X178281525Y-100575862D01*
D13*
%TO.C,*%
G36*
X111734600Y-62674690D02*
G01*
X111988600Y-62542610D01*
X112615980Y-63055690D01*
X113047780Y-62623890D01*
X112534700Y-61996510D01*
X112666780Y-61742510D01*
X112753140Y-61473270D01*
X113558320Y-61389450D01*
X113558320Y-60784930D01*
X112753140Y-60701110D01*
X112666780Y-60431870D01*
X112534700Y-60177870D01*
X113047780Y-59550490D01*
X112615980Y-59118690D01*
X111988600Y-59631770D01*
X111734600Y-59499690D01*
X111465360Y-59413330D01*
X111381540Y-58608150D01*
X110777020Y-58608150D01*
X110693200Y-59413330D01*
X110423960Y-59499690D01*
X110169960Y-59631770D01*
X109542580Y-59118690D01*
X109110780Y-59550490D01*
X109623860Y-60177870D01*
X109491780Y-60431870D01*
X109405420Y-60701110D01*
X108600240Y-60784930D01*
X108600240Y-61389450D01*
X109405420Y-61473270D01*
X109491780Y-61742510D01*
X109623860Y-61996510D01*
X109110780Y-62623890D01*
X109542580Y-63055690D01*
X110169960Y-62542610D01*
X110423960Y-62674690D01*
X110782100Y-61808550D01*
X110647480Y-61734890D01*
X110528100Y-61638370D01*
X110431580Y-61518990D01*
X110357920Y-61384370D01*
X110314740Y-61239590D01*
X110299500Y-61087190D01*
X110314740Y-60929710D01*
X110365540Y-60774770D01*
X110444280Y-60637610D01*
X110548420Y-60515690D01*
X110677960Y-60419170D01*
X110822740Y-60350590D01*
X110977680Y-60315030D01*
X111135160Y-60309950D01*
X111295180Y-60337890D01*
X111442500Y-60398850D01*
X111577120Y-60487750D01*
X111688880Y-60602050D01*
X111775240Y-60736670D01*
X111833660Y-60886530D01*
X111859060Y-61044010D01*
X111851440Y-61201490D01*
X111810800Y-61356430D01*
X111739680Y-61501210D01*
X111640620Y-61628210D01*
X111518700Y-61732350D01*
X111376460Y-61808550D01*
X111734600Y-62674690D01*
G37*
X111734600Y-62674690D02*
X111988600Y-62542610D01*
X112615980Y-63055690D01*
X113047780Y-62623890D01*
X112534700Y-61996510D01*
X112666780Y-61742510D01*
X112753140Y-61473270D01*
X113558320Y-61389450D01*
X113558320Y-60784930D01*
X112753140Y-60701110D01*
X112666780Y-60431870D01*
X112534700Y-60177870D01*
X113047780Y-59550490D01*
X112615980Y-59118690D01*
X111988600Y-59631770D01*
X111734600Y-59499690D01*
X111465360Y-59413330D01*
X111381540Y-58608150D01*
X110777020Y-58608150D01*
X110693200Y-59413330D01*
X110423960Y-59499690D01*
X110169960Y-59631770D01*
X109542580Y-59118690D01*
X109110780Y-59550490D01*
X109623860Y-60177870D01*
X109491780Y-60431870D01*
X109405420Y-60701110D01*
X108600240Y-60784930D01*
X108600240Y-61389450D01*
X109405420Y-61473270D01*
X109491780Y-61742510D01*
X109623860Y-61996510D01*
X109110780Y-62623890D01*
X109542580Y-63055690D01*
X110169960Y-62542610D01*
X110423960Y-62674690D01*
X110782100Y-61808550D01*
X110647480Y-61734890D01*
X110528100Y-61638370D01*
X110431580Y-61518990D01*
X110357920Y-61384370D01*
X110314740Y-61239590D01*
X110299500Y-61087190D01*
X110314740Y-60929710D01*
X110365540Y-60774770D01*
X110444280Y-60637610D01*
X110548420Y-60515690D01*
X110677960Y-60419170D01*
X110822740Y-60350590D01*
X110977680Y-60315030D01*
X111135160Y-60309950D01*
X111295180Y-60337890D01*
X111442500Y-60398850D01*
X111577120Y-60487750D01*
X111688880Y-60602050D01*
X111775240Y-60736670D01*
X111833660Y-60886530D01*
X111859060Y-61044010D01*
X111851440Y-61201490D01*
X111810800Y-61356430D01*
X111739680Y-61501210D01*
X111640620Y-61628210D01*
X111518700Y-61732350D01*
X111376460Y-61808550D01*
X111734600Y-62674690D01*
D14*
%TO.C,ST-ROW-1*%
X180593360Y-140781120D02*
X180593360Y-140281120D01*
X180593360Y-140781120D02*
X180143360Y-140781120D01*
X180593360Y-115581120D02*
X180143360Y-115581120D01*
X180593360Y-115581120D02*
X180593360Y-116081120D01*
X172893360Y-115581120D02*
X172893360Y-116081120D01*
X172893360Y-115581120D02*
X173393360Y-115581120D01*
X172893360Y-140781120D02*
X173393360Y-140781120D01*
X172893360Y-140781120D02*
X172893360Y-140281120D01*
%TO.C,ST-COL-1*%
X180593360Y-90205900D02*
X180593360Y-89705900D01*
X180593360Y-90205900D02*
X180143360Y-90205900D01*
X180593360Y-70005900D02*
X180143360Y-70005900D01*
X180593360Y-70005900D02*
X180593360Y-70505900D01*
X172893360Y-70005900D02*
X172893360Y-70505900D01*
X172893360Y-70005900D02*
X173393360Y-70005900D01*
X172893360Y-90205900D02*
X173393360Y-90205900D01*
X172893360Y-90205900D02*
X172893360Y-89705900D01*
D15*
%TO.C,TS-20*%
X167121500Y-141352480D02*
G75*
G03*
X167121500Y-141352480I-299720J0D01*
G01*
X167121500Y-132355800D02*
G75*
G03*
X167121500Y-132355800I-299720J0D01*
G01*
X158124820Y-132355800D02*
G75*
G03*
X158124820Y-132355800I-299720J0D01*
G01*
X158124820Y-141352480D02*
G75*
G03*
X158124820Y-141352480I-299720J0D01*
G01*
D16*
X165821020Y-136854140D02*
G75*
G03*
X165821020Y-136854140I-3497580J0D01*
G01*
X163321660Y-142853620D02*
X161325220Y-142853620D01*
X167322160Y-142853620D02*
X166321400Y-142853620D01*
X168322920Y-131855420D02*
X168322920Y-141852860D01*
X166321400Y-130854660D02*
X167322160Y-130854660D01*
X161325220Y-130854660D02*
X163321660Y-130854660D01*
X157324720Y-130854660D02*
X158325480Y-130854660D01*
X156323960Y-141852860D02*
X156323960Y-131855420D01*
X158325480Y-142853620D02*
X157324720Y-142853620D01*
X156323960Y-141852860D02*
G75*
G03*
X157324720Y-142853620I1000760J0D01*
G01*
X157324720Y-130854660D02*
G75*
G03*
X156323960Y-131855420I0J-1000760D01*
G01*
X168322920Y-131855420D02*
G75*
G03*
X167322160Y-130854660I-1000760J0D01*
G01*
X167322160Y-142853620D02*
G75*
G03*
X168322920Y-141852860I0J1000760D01*
G01*
D15*
%TO.C,TS-19*%
X149916500Y-141352480D02*
G75*
G03*
X149916500Y-141352480I-299720J0D01*
G01*
X149916500Y-132355800D02*
G75*
G03*
X149916500Y-132355800I-299720J0D01*
G01*
X140919820Y-132355800D02*
G75*
G03*
X140919820Y-132355800I-299720J0D01*
G01*
X140919820Y-141352480D02*
G75*
G03*
X140919820Y-141352480I-299720J0D01*
G01*
D16*
X148616020Y-136854140D02*
G75*
G03*
X148616020Y-136854140I-3497580J0D01*
G01*
X146116660Y-142853620D02*
X144120220Y-142853620D01*
X150117160Y-142853620D02*
X149116400Y-142853620D01*
X151117920Y-131855420D02*
X151117920Y-141852860D01*
X149116400Y-130854660D02*
X150117160Y-130854660D01*
X144120220Y-130854660D02*
X146116660Y-130854660D01*
X140119720Y-130854660D02*
X141120480Y-130854660D01*
X139118960Y-141852860D02*
X139118960Y-131855420D01*
X141120480Y-142853620D02*
X140119720Y-142853620D01*
X139118960Y-141852860D02*
G75*
G03*
X140119720Y-142853620I1000760J0D01*
G01*
X140119720Y-130854660D02*
G75*
G03*
X139118960Y-131855420I0J-1000760D01*
G01*
X151117920Y-131855420D02*
G75*
G03*
X150117160Y-130854660I-1000760J0D01*
G01*
X150117160Y-142853620D02*
G75*
G03*
X151117920Y-141852860I0J1000760D01*
G01*
D15*
%TO.C,TS-18*%
X132711500Y-141352480D02*
G75*
G03*
X132711500Y-141352480I-299720J0D01*
G01*
X132711500Y-132355800D02*
G75*
G03*
X132711500Y-132355800I-299720J0D01*
G01*
X123714820Y-132355800D02*
G75*
G03*
X123714820Y-132355800I-299720J0D01*
G01*
X123714820Y-141352480D02*
G75*
G03*
X123714820Y-141352480I-299720J0D01*
G01*
D16*
X131411020Y-136854140D02*
G75*
G03*
X131411020Y-136854140I-3497580J0D01*
G01*
X128911660Y-142853620D02*
X126915220Y-142853620D01*
X132912160Y-142853620D02*
X131911400Y-142853620D01*
X133912920Y-131855420D02*
X133912920Y-141852860D01*
X131911400Y-130854660D02*
X132912160Y-130854660D01*
X126915220Y-130854660D02*
X128911660Y-130854660D01*
X122914720Y-130854660D02*
X123915480Y-130854660D01*
X121913960Y-141852860D02*
X121913960Y-131855420D01*
X123915480Y-142853620D02*
X122914720Y-142853620D01*
X121913960Y-141852860D02*
G75*
G03*
X122914720Y-142853620I1000760J0D01*
G01*
X122914720Y-130854660D02*
G75*
G03*
X121913960Y-131855420I0J-1000760D01*
G01*
X133912920Y-131855420D02*
G75*
G03*
X132912160Y-130854660I-1000760J0D01*
G01*
X132912160Y-142853620D02*
G75*
G03*
X133912920Y-141852860I0J1000760D01*
G01*
D15*
%TO.C,TS-17*%
X115506500Y-141352480D02*
G75*
G03*
X115506500Y-141352480I-299720J0D01*
G01*
X115506500Y-132355800D02*
G75*
G03*
X115506500Y-132355800I-299720J0D01*
G01*
X106509820Y-132355800D02*
G75*
G03*
X106509820Y-132355800I-299720J0D01*
G01*
X106509820Y-141352480D02*
G75*
G03*
X106509820Y-141352480I-299720J0D01*
G01*
D16*
X114206020Y-136854140D02*
G75*
G03*
X114206020Y-136854140I-3497580J0D01*
G01*
X111706660Y-142853620D02*
X109710220Y-142853620D01*
X115707160Y-142853620D02*
X114706400Y-142853620D01*
X116707920Y-131855420D02*
X116707920Y-141852860D01*
X114706400Y-130854660D02*
X115707160Y-130854660D01*
X109710220Y-130854660D02*
X111706660Y-130854660D01*
X105709720Y-130854660D02*
X106710480Y-130854660D01*
X104708960Y-141852860D02*
X104708960Y-131855420D01*
X106710480Y-142853620D02*
X105709720Y-142853620D01*
X104708960Y-141852860D02*
G75*
G03*
X105709720Y-142853620I1000760J0D01*
G01*
X105709720Y-130854660D02*
G75*
G03*
X104708960Y-131855420I0J-1000760D01*
G01*
X116707920Y-131855420D02*
G75*
G03*
X115707160Y-130854660I-1000760J0D01*
G01*
X115707160Y-142853620D02*
G75*
G03*
X116707920Y-141852860I0J1000760D01*
G01*
D15*
%TO.C,TS-16*%
X167121500Y-125262480D02*
G75*
G03*
X167121500Y-125262480I-299720J0D01*
G01*
X167121500Y-116265800D02*
G75*
G03*
X167121500Y-116265800I-299720J0D01*
G01*
X158124820Y-116265800D02*
G75*
G03*
X158124820Y-116265800I-299720J0D01*
G01*
X158124820Y-125262480D02*
G75*
G03*
X158124820Y-125262480I-299720J0D01*
G01*
D16*
X165821020Y-120764140D02*
G75*
G03*
X165821020Y-120764140I-3497580J0D01*
G01*
X163321660Y-126763620D02*
X161325220Y-126763620D01*
X167322160Y-126763620D02*
X166321400Y-126763620D01*
X168322920Y-115765420D02*
X168322920Y-125762860D01*
X166321400Y-114764660D02*
X167322160Y-114764660D01*
X161325220Y-114764660D02*
X163321660Y-114764660D01*
X157324720Y-114764660D02*
X158325480Y-114764660D01*
X156323960Y-125762860D02*
X156323960Y-115765420D01*
X158325480Y-126763620D02*
X157324720Y-126763620D01*
X156323960Y-125762860D02*
G75*
G03*
X157324720Y-126763620I1000760J0D01*
G01*
X157324720Y-114764660D02*
G75*
G03*
X156323960Y-115765420I0J-1000760D01*
G01*
X168322920Y-115765420D02*
G75*
G03*
X167322160Y-114764660I-1000760J0D01*
G01*
X167322160Y-126763620D02*
G75*
G03*
X168322920Y-125762860I0J1000760D01*
G01*
D15*
%TO.C,TS-15*%
X149916500Y-125262480D02*
G75*
G03*
X149916500Y-125262480I-299720J0D01*
G01*
X149916500Y-116265800D02*
G75*
G03*
X149916500Y-116265800I-299720J0D01*
G01*
X140919820Y-116265800D02*
G75*
G03*
X140919820Y-116265800I-299720J0D01*
G01*
X140919820Y-125262480D02*
G75*
G03*
X140919820Y-125262480I-299720J0D01*
G01*
D16*
X148616020Y-120764140D02*
G75*
G03*
X148616020Y-120764140I-3497580J0D01*
G01*
X146116660Y-126763620D02*
X144120220Y-126763620D01*
X150117160Y-126763620D02*
X149116400Y-126763620D01*
X151117920Y-115765420D02*
X151117920Y-125762860D01*
X149116400Y-114764660D02*
X150117160Y-114764660D01*
X144120220Y-114764660D02*
X146116660Y-114764660D01*
X140119720Y-114764660D02*
X141120480Y-114764660D01*
X139118960Y-125762860D02*
X139118960Y-115765420D01*
X141120480Y-126763620D02*
X140119720Y-126763620D01*
X139118960Y-125762860D02*
G75*
G03*
X140119720Y-126763620I1000760J0D01*
G01*
X140119720Y-114764660D02*
G75*
G03*
X139118960Y-115765420I0J-1000760D01*
G01*
X151117920Y-115765420D02*
G75*
G03*
X150117160Y-114764660I-1000760J0D01*
G01*
X150117160Y-126763620D02*
G75*
G03*
X151117920Y-125762860I0J1000760D01*
G01*
D15*
%TO.C,TS-14*%
X132711500Y-125262480D02*
G75*
G03*
X132711500Y-125262480I-299720J0D01*
G01*
X132711500Y-116265800D02*
G75*
G03*
X132711500Y-116265800I-299720J0D01*
G01*
X123714820Y-116265800D02*
G75*
G03*
X123714820Y-116265800I-299720J0D01*
G01*
X123714820Y-125262480D02*
G75*
G03*
X123714820Y-125262480I-299720J0D01*
G01*
D16*
X131411020Y-120764140D02*
G75*
G03*
X131411020Y-120764140I-3497580J0D01*
G01*
X128911660Y-126763620D02*
X126915220Y-126763620D01*
X132912160Y-126763620D02*
X131911400Y-126763620D01*
X133912920Y-115765420D02*
X133912920Y-125762860D01*
X131911400Y-114764660D02*
X132912160Y-114764660D01*
X126915220Y-114764660D02*
X128911660Y-114764660D01*
X122914720Y-114764660D02*
X123915480Y-114764660D01*
X121913960Y-125762860D02*
X121913960Y-115765420D01*
X123915480Y-126763620D02*
X122914720Y-126763620D01*
X121913960Y-125762860D02*
G75*
G03*
X122914720Y-126763620I1000760J0D01*
G01*
X122914720Y-114764660D02*
G75*
G03*
X121913960Y-115765420I0J-1000760D01*
G01*
X133912920Y-115765420D02*
G75*
G03*
X132912160Y-114764660I-1000760J0D01*
G01*
X132912160Y-126763620D02*
G75*
G03*
X133912920Y-125762860I0J1000760D01*
G01*
D15*
%TO.C,TS-13*%
X115506500Y-125262480D02*
G75*
G03*
X115506500Y-125262480I-299720J0D01*
G01*
X115506500Y-116265800D02*
G75*
G03*
X115506500Y-116265800I-299720J0D01*
G01*
X106509820Y-116265800D02*
G75*
G03*
X106509820Y-116265800I-299720J0D01*
G01*
X106509820Y-125262480D02*
G75*
G03*
X106509820Y-125262480I-299720J0D01*
G01*
D16*
X114206020Y-120764140D02*
G75*
G03*
X114206020Y-120764140I-3497580J0D01*
G01*
X111706660Y-126763620D02*
X109710220Y-126763620D01*
X115707160Y-126763620D02*
X114706400Y-126763620D01*
X116707920Y-115765420D02*
X116707920Y-125762860D01*
X114706400Y-114764660D02*
X115707160Y-114764660D01*
X109710220Y-114764660D02*
X111706660Y-114764660D01*
X105709720Y-114764660D02*
X106710480Y-114764660D01*
X104708960Y-125762860D02*
X104708960Y-115765420D01*
X106710480Y-126763620D02*
X105709720Y-126763620D01*
X104708960Y-125762860D02*
G75*
G03*
X105709720Y-126763620I1000760J0D01*
G01*
X105709720Y-114764660D02*
G75*
G03*
X104708960Y-115765420I0J-1000760D01*
G01*
X116707920Y-115765420D02*
G75*
G03*
X115707160Y-114764660I-1000760J0D01*
G01*
X115707160Y-126763620D02*
G75*
G03*
X116707920Y-125762860I0J1000760D01*
G01*
D15*
%TO.C,TS-12*%
X167121500Y-109172480D02*
G75*
G03*
X167121500Y-109172480I-299720J0D01*
G01*
X167121500Y-100175800D02*
G75*
G03*
X167121500Y-100175800I-299720J0D01*
G01*
X158124820Y-100175800D02*
G75*
G03*
X158124820Y-100175800I-299720J0D01*
G01*
X158124820Y-109172480D02*
G75*
G03*
X158124820Y-109172480I-299720J0D01*
G01*
D16*
X165821020Y-104674140D02*
G75*
G03*
X165821020Y-104674140I-3497580J0D01*
G01*
X163321660Y-110673620D02*
X161325220Y-110673620D01*
X167322160Y-110673620D02*
X166321400Y-110673620D01*
X168322920Y-99675420D02*
X168322920Y-109672860D01*
X166321400Y-98674660D02*
X167322160Y-98674660D01*
X161325220Y-98674660D02*
X163321660Y-98674660D01*
X157324720Y-98674660D02*
X158325480Y-98674660D01*
X156323960Y-109672860D02*
X156323960Y-99675420D01*
X158325480Y-110673620D02*
X157324720Y-110673620D01*
X156323960Y-109672860D02*
G75*
G03*
X157324720Y-110673620I1000760J0D01*
G01*
X157324720Y-98674660D02*
G75*
G03*
X156323960Y-99675420I0J-1000760D01*
G01*
X168322920Y-99675420D02*
G75*
G03*
X167322160Y-98674660I-1000760J0D01*
G01*
X167322160Y-110673620D02*
G75*
G03*
X168322920Y-109672860I0J1000760D01*
G01*
D15*
%TO.C,TS-11*%
X149916500Y-109172480D02*
G75*
G03*
X149916500Y-109172480I-299720J0D01*
G01*
X149916500Y-100175800D02*
G75*
G03*
X149916500Y-100175800I-299720J0D01*
G01*
X140919820Y-100175800D02*
G75*
G03*
X140919820Y-100175800I-299720J0D01*
G01*
X140919820Y-109172480D02*
G75*
G03*
X140919820Y-109172480I-299720J0D01*
G01*
D16*
X148616020Y-104674140D02*
G75*
G03*
X148616020Y-104674140I-3497580J0D01*
G01*
X146116660Y-110673620D02*
X144120220Y-110673620D01*
X150117160Y-110673620D02*
X149116400Y-110673620D01*
X151117920Y-99675420D02*
X151117920Y-109672860D01*
X149116400Y-98674660D02*
X150117160Y-98674660D01*
X144120220Y-98674660D02*
X146116660Y-98674660D01*
X140119720Y-98674660D02*
X141120480Y-98674660D01*
X139118960Y-109672860D02*
X139118960Y-99675420D01*
X141120480Y-110673620D02*
X140119720Y-110673620D01*
X139118960Y-109672860D02*
G75*
G03*
X140119720Y-110673620I1000760J0D01*
G01*
X140119720Y-98674660D02*
G75*
G03*
X139118960Y-99675420I0J-1000760D01*
G01*
X151117920Y-99675420D02*
G75*
G03*
X150117160Y-98674660I-1000760J0D01*
G01*
X150117160Y-110673620D02*
G75*
G03*
X151117920Y-109672860I0J1000760D01*
G01*
D15*
%TO.C,TS-10*%
X132711500Y-109172480D02*
G75*
G03*
X132711500Y-109172480I-299720J0D01*
G01*
X132711500Y-100175800D02*
G75*
G03*
X132711500Y-100175800I-299720J0D01*
G01*
X123714820Y-100175800D02*
G75*
G03*
X123714820Y-100175800I-299720J0D01*
G01*
X123714820Y-109172480D02*
G75*
G03*
X123714820Y-109172480I-299720J0D01*
G01*
D16*
X131411020Y-104674140D02*
G75*
G03*
X131411020Y-104674140I-3497580J0D01*
G01*
X128911660Y-110673620D02*
X126915220Y-110673620D01*
X132912160Y-110673620D02*
X131911400Y-110673620D01*
X133912920Y-99675420D02*
X133912920Y-109672860D01*
X131911400Y-98674660D02*
X132912160Y-98674660D01*
X126915220Y-98674660D02*
X128911660Y-98674660D01*
X122914720Y-98674660D02*
X123915480Y-98674660D01*
X121913960Y-109672860D02*
X121913960Y-99675420D01*
X123915480Y-110673620D02*
X122914720Y-110673620D01*
X121913960Y-109672860D02*
G75*
G03*
X122914720Y-110673620I1000760J0D01*
G01*
X122914720Y-98674660D02*
G75*
G03*
X121913960Y-99675420I0J-1000760D01*
G01*
X133912920Y-99675420D02*
G75*
G03*
X132912160Y-98674660I-1000760J0D01*
G01*
X132912160Y-110673620D02*
G75*
G03*
X133912920Y-109672860I0J1000760D01*
G01*
D15*
%TO.C,TS-9*%
X115506500Y-109172480D02*
G75*
G03*
X115506500Y-109172480I-299720J0D01*
G01*
X115506500Y-100175800D02*
G75*
G03*
X115506500Y-100175800I-299720J0D01*
G01*
X106509820Y-100175800D02*
G75*
G03*
X106509820Y-100175800I-299720J0D01*
G01*
X106509820Y-109172480D02*
G75*
G03*
X106509820Y-109172480I-299720J0D01*
G01*
D16*
X114206020Y-104674140D02*
G75*
G03*
X114206020Y-104674140I-3497580J0D01*
G01*
X111706660Y-110673620D02*
X109710220Y-110673620D01*
X115707160Y-110673620D02*
X114706400Y-110673620D01*
X116707920Y-99675420D02*
X116707920Y-109672860D01*
X114706400Y-98674660D02*
X115707160Y-98674660D01*
X109710220Y-98674660D02*
X111706660Y-98674660D01*
X105709720Y-98674660D02*
X106710480Y-98674660D01*
X104708960Y-109672860D02*
X104708960Y-99675420D01*
X106710480Y-110673620D02*
X105709720Y-110673620D01*
X104708960Y-109672860D02*
G75*
G03*
X105709720Y-110673620I1000760J0D01*
G01*
X105709720Y-98674660D02*
G75*
G03*
X104708960Y-99675420I0J-1000760D01*
G01*
X116707920Y-99675420D02*
G75*
G03*
X115707160Y-98674660I-1000760J0D01*
G01*
X115707160Y-110673620D02*
G75*
G03*
X116707920Y-109672860I0J1000760D01*
G01*
D15*
%TO.C,TS-8*%
X167121500Y-93082480D02*
G75*
G03*
X167121500Y-93082480I-299720J0D01*
G01*
X167121500Y-84085800D02*
G75*
G03*
X167121500Y-84085800I-299720J0D01*
G01*
X158124820Y-84085800D02*
G75*
G03*
X158124820Y-84085800I-299720J0D01*
G01*
X158124820Y-93082480D02*
G75*
G03*
X158124820Y-93082480I-299720J0D01*
G01*
D16*
X165821020Y-88584140D02*
G75*
G03*
X165821020Y-88584140I-3497580J0D01*
G01*
X163321660Y-94583620D02*
X161325220Y-94583620D01*
X167322160Y-94583620D02*
X166321400Y-94583620D01*
X168322920Y-83585420D02*
X168322920Y-93582860D01*
X166321400Y-82584660D02*
X167322160Y-82584660D01*
X161325220Y-82584660D02*
X163321660Y-82584660D01*
X157324720Y-82584660D02*
X158325480Y-82584660D01*
X156323960Y-93582860D02*
X156323960Y-83585420D01*
X158325480Y-94583620D02*
X157324720Y-94583620D01*
X156323960Y-93582860D02*
G75*
G03*
X157324720Y-94583620I1000760J0D01*
G01*
X157324720Y-82584660D02*
G75*
G03*
X156323960Y-83585420I0J-1000760D01*
G01*
X168322920Y-83585420D02*
G75*
G03*
X167322160Y-82584660I-1000760J0D01*
G01*
X167322160Y-94583620D02*
G75*
G03*
X168322920Y-93582860I0J1000760D01*
G01*
D15*
%TO.C,TS-7*%
X149916500Y-93082480D02*
G75*
G03*
X149916500Y-93082480I-299720J0D01*
G01*
X149916500Y-84085800D02*
G75*
G03*
X149916500Y-84085800I-299720J0D01*
G01*
X140919820Y-84085800D02*
G75*
G03*
X140919820Y-84085800I-299720J0D01*
G01*
X140919820Y-93082480D02*
G75*
G03*
X140919820Y-93082480I-299720J0D01*
G01*
D16*
X148616020Y-88584140D02*
G75*
G03*
X148616020Y-88584140I-3497580J0D01*
G01*
X146116660Y-94583620D02*
X144120220Y-94583620D01*
X150117160Y-94583620D02*
X149116400Y-94583620D01*
X151117920Y-83585420D02*
X151117920Y-93582860D01*
X149116400Y-82584660D02*
X150117160Y-82584660D01*
X144120220Y-82584660D02*
X146116660Y-82584660D01*
X140119720Y-82584660D02*
X141120480Y-82584660D01*
X139118960Y-93582860D02*
X139118960Y-83585420D01*
X141120480Y-94583620D02*
X140119720Y-94583620D01*
X139118960Y-93582860D02*
G75*
G03*
X140119720Y-94583620I1000760J0D01*
G01*
X140119720Y-82584660D02*
G75*
G03*
X139118960Y-83585420I0J-1000760D01*
G01*
X151117920Y-83585420D02*
G75*
G03*
X150117160Y-82584660I-1000760J0D01*
G01*
X150117160Y-94583620D02*
G75*
G03*
X151117920Y-93582860I0J1000760D01*
G01*
D15*
%TO.C,TS-6*%
X132711500Y-93082480D02*
G75*
G03*
X132711500Y-93082480I-299720J0D01*
G01*
X132711500Y-84085800D02*
G75*
G03*
X132711500Y-84085800I-299720J0D01*
G01*
X123714820Y-84085800D02*
G75*
G03*
X123714820Y-84085800I-299720J0D01*
G01*
X123714820Y-93082480D02*
G75*
G03*
X123714820Y-93082480I-299720J0D01*
G01*
D16*
X131411020Y-88584140D02*
G75*
G03*
X131411020Y-88584140I-3497580J0D01*
G01*
X128911660Y-94583620D02*
X126915220Y-94583620D01*
X132912160Y-94583620D02*
X131911400Y-94583620D01*
X133912920Y-83585420D02*
X133912920Y-93582860D01*
X131911400Y-82584660D02*
X132912160Y-82584660D01*
X126915220Y-82584660D02*
X128911660Y-82584660D01*
X122914720Y-82584660D02*
X123915480Y-82584660D01*
X121913960Y-93582860D02*
X121913960Y-83585420D01*
X123915480Y-94583620D02*
X122914720Y-94583620D01*
X121913960Y-93582860D02*
G75*
G03*
X122914720Y-94583620I1000760J0D01*
G01*
X122914720Y-82584660D02*
G75*
G03*
X121913960Y-83585420I0J-1000760D01*
G01*
X133912920Y-83585420D02*
G75*
G03*
X132912160Y-82584660I-1000760J0D01*
G01*
X132912160Y-94583620D02*
G75*
G03*
X133912920Y-93582860I0J1000760D01*
G01*
D15*
%TO.C,TS-5*%
X115506500Y-93082480D02*
G75*
G03*
X115506500Y-93082480I-299720J0D01*
G01*
X115506500Y-84085800D02*
G75*
G03*
X115506500Y-84085800I-299720J0D01*
G01*
X106509820Y-84085800D02*
G75*
G03*
X106509820Y-84085800I-299720J0D01*
G01*
X106509820Y-93082480D02*
G75*
G03*
X106509820Y-93082480I-299720J0D01*
G01*
D16*
X114206020Y-88584140D02*
G75*
G03*
X114206020Y-88584140I-3497580J0D01*
G01*
X111706660Y-94583620D02*
X109710220Y-94583620D01*
X115707160Y-94583620D02*
X114706400Y-94583620D01*
X116707920Y-83585420D02*
X116707920Y-93582860D01*
X114706400Y-82584660D02*
X115707160Y-82584660D01*
X109710220Y-82584660D02*
X111706660Y-82584660D01*
X105709720Y-82584660D02*
X106710480Y-82584660D01*
X104708960Y-93582860D02*
X104708960Y-83585420D01*
X106710480Y-94583620D02*
X105709720Y-94583620D01*
X104708960Y-93582860D02*
G75*
G03*
X105709720Y-94583620I1000760J0D01*
G01*
X105709720Y-82584660D02*
G75*
G03*
X104708960Y-83585420I0J-1000760D01*
G01*
X116707920Y-83585420D02*
G75*
G03*
X115707160Y-82584660I-1000760J0D01*
G01*
X115707160Y-94583620D02*
G75*
G03*
X116707920Y-93582860I0J1000760D01*
G01*
D15*
%TO.C,TS-4*%
X167121500Y-76992480D02*
G75*
G03*
X167121500Y-76992480I-299720J0D01*
G01*
X167121500Y-67995800D02*
G75*
G03*
X167121500Y-67995800I-299720J0D01*
G01*
X158124820Y-67995800D02*
G75*
G03*
X158124820Y-67995800I-299720J0D01*
G01*
X158124820Y-76992480D02*
G75*
G03*
X158124820Y-76992480I-299720J0D01*
G01*
D16*
X165821020Y-72494140D02*
G75*
G03*
X165821020Y-72494140I-3497580J0D01*
G01*
X163321660Y-78493620D02*
X161325220Y-78493620D01*
X167322160Y-78493620D02*
X166321400Y-78493620D01*
X168322920Y-67495420D02*
X168322920Y-77492860D01*
X166321400Y-66494660D02*
X167322160Y-66494660D01*
X161325220Y-66494660D02*
X163321660Y-66494660D01*
X157324720Y-66494660D02*
X158325480Y-66494660D01*
X156323960Y-77492860D02*
X156323960Y-67495420D01*
X158325480Y-78493620D02*
X157324720Y-78493620D01*
X156323960Y-77492860D02*
G75*
G03*
X157324720Y-78493620I1000760J0D01*
G01*
X157324720Y-66494660D02*
G75*
G03*
X156323960Y-67495420I0J-1000760D01*
G01*
X168322920Y-67495420D02*
G75*
G03*
X167322160Y-66494660I-1000760J0D01*
G01*
X167322160Y-78493620D02*
G75*
G03*
X168322920Y-77492860I0J1000760D01*
G01*
D15*
%TO.C,TS-3*%
X149916500Y-76992480D02*
G75*
G03*
X149916500Y-76992480I-299720J0D01*
G01*
X149916500Y-67995800D02*
G75*
G03*
X149916500Y-67995800I-299720J0D01*
G01*
X140919820Y-67995800D02*
G75*
G03*
X140919820Y-67995800I-299720J0D01*
G01*
X140919820Y-76992480D02*
G75*
G03*
X140919820Y-76992480I-299720J0D01*
G01*
D16*
X148616020Y-72494140D02*
G75*
G03*
X148616020Y-72494140I-3497580J0D01*
G01*
X146116660Y-78493620D02*
X144120220Y-78493620D01*
X150117160Y-78493620D02*
X149116400Y-78493620D01*
X151117920Y-67495420D02*
X151117920Y-77492860D01*
X149116400Y-66494660D02*
X150117160Y-66494660D01*
X144120220Y-66494660D02*
X146116660Y-66494660D01*
X140119720Y-66494660D02*
X141120480Y-66494660D01*
X139118960Y-77492860D02*
X139118960Y-67495420D01*
X141120480Y-78493620D02*
X140119720Y-78493620D01*
X139118960Y-77492860D02*
G75*
G03*
X140119720Y-78493620I1000760J0D01*
G01*
X140119720Y-66494660D02*
G75*
G03*
X139118960Y-67495420I0J-1000760D01*
G01*
X151117920Y-67495420D02*
G75*
G03*
X150117160Y-66494660I-1000760J0D01*
G01*
X150117160Y-78493620D02*
G75*
G03*
X151117920Y-77492860I0J1000760D01*
G01*
D15*
%TO.C,TS-2*%
X132711500Y-76992480D02*
G75*
G03*
X132711500Y-76992480I-299720J0D01*
G01*
X132711500Y-67995800D02*
G75*
G03*
X132711500Y-67995800I-299720J0D01*
G01*
X123714820Y-67995800D02*
G75*
G03*
X123714820Y-67995800I-299720J0D01*
G01*
X123714820Y-76992480D02*
G75*
G03*
X123714820Y-76992480I-299720J0D01*
G01*
D16*
X131411020Y-72494140D02*
G75*
G03*
X131411020Y-72494140I-3497580J0D01*
G01*
X128911660Y-78493620D02*
X126915220Y-78493620D01*
X132912160Y-78493620D02*
X131911400Y-78493620D01*
X133912920Y-67495420D02*
X133912920Y-77492860D01*
X131911400Y-66494660D02*
X132912160Y-66494660D01*
X126915220Y-66494660D02*
X128911660Y-66494660D01*
X122914720Y-66494660D02*
X123915480Y-66494660D01*
X121913960Y-77492860D02*
X121913960Y-67495420D01*
X123915480Y-78493620D02*
X122914720Y-78493620D01*
X121913960Y-77492860D02*
G75*
G03*
X122914720Y-78493620I1000760J0D01*
G01*
X122914720Y-66494660D02*
G75*
G03*
X121913960Y-67495420I0J-1000760D01*
G01*
X133912920Y-67495420D02*
G75*
G03*
X132912160Y-66494660I-1000760J0D01*
G01*
X132912160Y-78493620D02*
G75*
G03*
X133912920Y-77492860I0J1000760D01*
G01*
%TO.C,TS-1*%
X106710480Y-78493620D02*
X105709720Y-78493620D01*
X104708960Y-77492860D02*
X104708960Y-67495420D01*
X105709720Y-66494660D02*
X106710480Y-66494660D01*
X109710220Y-66494660D02*
X111706660Y-66494660D01*
X114706400Y-66494660D02*
X115707160Y-66494660D01*
X116707920Y-67495420D02*
X116707920Y-77492860D01*
X115707160Y-78493620D02*
X114706400Y-78493620D01*
X111706660Y-78493620D02*
X109710220Y-78493620D01*
X114206020Y-72494140D02*
G75*
G03*
X114206020Y-72494140I-3497580J0D01*
G01*
D15*
X106509820Y-76992480D02*
G75*
G03*
X106509820Y-76992480I-299720J0D01*
G01*
X106509820Y-67995800D02*
G75*
G03*
X106509820Y-67995800I-299720J0D01*
G01*
X115506500Y-67995800D02*
G75*
G03*
X115506500Y-67995800I-299720J0D01*
G01*
X115506500Y-76992480D02*
G75*
G03*
X115506500Y-76992480I-299720J0D01*
G01*
D16*
X115707160Y-78493620D02*
G75*
G03*
X116707920Y-77492860I0J1000760D01*
G01*
X116707920Y-67495420D02*
G75*
G03*
X115707160Y-66494660I-1000760J0D01*
G01*
X105709720Y-66494660D02*
G75*
G03*
X104708960Y-67495420I0J-1000760D01*
G01*
X104708960Y-77492860D02*
G75*
G03*
X105709720Y-78493620I1000760J0D01*
G01*
%TO.C,*%
D11*
%TO.C,TS-20*%
D17*
X154763311Y-134138880D02*
X154763311Y-133790537D01*
X155372911Y-133964708D02*
X154763311Y-133964708D01*
X155343882Y-133616365D02*
X155372911Y-133529280D01*
X155372911Y-133384137D01*
X155343882Y-133326080D01*
X155314854Y-133297051D01*
X155256797Y-133268022D01*
X155198740Y-133268022D01*
X155140682Y-133297051D01*
X155111654Y-133326080D01*
X155082625Y-133384137D01*
X155053597Y-133500251D01*
X155024568Y-133558308D01*
X154995540Y-133587337D01*
X154937482Y-133616365D01*
X154879425Y-133616365D01*
X154821368Y-133587337D01*
X154792340Y-133558308D01*
X154763311Y-133500251D01*
X154763311Y-133355108D01*
X154792340Y-133268022D01*
X155140682Y-133006765D02*
X155140682Y-132542308D01*
X154821368Y-132281051D02*
X154792340Y-132252022D01*
X154763311Y-132193965D01*
X154763311Y-132048822D01*
X154792340Y-131990765D01*
X154821368Y-131961737D01*
X154879425Y-131932708D01*
X154937482Y-131932708D01*
X155024568Y-131961737D01*
X155372911Y-132310080D01*
X155372911Y-131932708D01*
X154763311Y-131555337D02*
X154763311Y-131497280D01*
X154792340Y-131439222D01*
X154821368Y-131410194D01*
X154879425Y-131381165D01*
X154995540Y-131352137D01*
X155140682Y-131352137D01*
X155256797Y-131381165D01*
X155314854Y-131410194D01*
X155343882Y-131439222D01*
X155372911Y-131497280D01*
X155372911Y-131555337D01*
X155343882Y-131613394D01*
X155314854Y-131642422D01*
X155256797Y-131671451D01*
X155140682Y-131700480D01*
X154995540Y-131700480D01*
X154879425Y-131671451D01*
X154821368Y-131642422D01*
X154792340Y-131613394D01*
X154763311Y-131555337D01*
%TO.C,TS-19*%
X137558311Y-134138880D02*
X137558311Y-133790537D01*
X138167911Y-133964708D02*
X137558311Y-133964708D01*
X138138882Y-133616365D02*
X138167911Y-133529280D01*
X138167911Y-133384137D01*
X138138882Y-133326080D01*
X138109854Y-133297051D01*
X138051797Y-133268022D01*
X137993740Y-133268022D01*
X137935682Y-133297051D01*
X137906654Y-133326080D01*
X137877625Y-133384137D01*
X137848597Y-133500251D01*
X137819568Y-133558308D01*
X137790540Y-133587337D01*
X137732482Y-133616365D01*
X137674425Y-133616365D01*
X137616368Y-133587337D01*
X137587340Y-133558308D01*
X137558311Y-133500251D01*
X137558311Y-133355108D01*
X137587340Y-133268022D01*
X137935682Y-133006765D02*
X137935682Y-132542308D01*
X138167911Y-131932708D02*
X138167911Y-132281051D01*
X138167911Y-132106880D02*
X137558311Y-132106880D01*
X137645397Y-132164937D01*
X137703454Y-132222994D01*
X137732482Y-132281051D01*
X138167911Y-131642422D02*
X138167911Y-131526308D01*
X138138882Y-131468251D01*
X138109854Y-131439222D01*
X138022768Y-131381165D01*
X137906654Y-131352137D01*
X137674425Y-131352137D01*
X137616368Y-131381165D01*
X137587340Y-131410194D01*
X137558311Y-131468251D01*
X137558311Y-131584365D01*
X137587340Y-131642422D01*
X137616368Y-131671451D01*
X137674425Y-131700480D01*
X137819568Y-131700480D01*
X137877625Y-131671451D01*
X137906654Y-131642422D01*
X137935682Y-131584365D01*
X137935682Y-131468251D01*
X137906654Y-131410194D01*
X137877625Y-131381165D01*
X137819568Y-131352137D01*
%TO.C,TS-18*%
X120353311Y-134138880D02*
X120353311Y-133790537D01*
X120962911Y-133964708D02*
X120353311Y-133964708D01*
X120933882Y-133616365D02*
X120962911Y-133529280D01*
X120962911Y-133384137D01*
X120933882Y-133326080D01*
X120904854Y-133297051D01*
X120846797Y-133268022D01*
X120788740Y-133268022D01*
X120730682Y-133297051D01*
X120701654Y-133326080D01*
X120672625Y-133384137D01*
X120643597Y-133500251D01*
X120614568Y-133558308D01*
X120585540Y-133587337D01*
X120527482Y-133616365D01*
X120469425Y-133616365D01*
X120411368Y-133587337D01*
X120382340Y-133558308D01*
X120353311Y-133500251D01*
X120353311Y-133355108D01*
X120382340Y-133268022D01*
X120730682Y-133006765D02*
X120730682Y-132542308D01*
X120962911Y-131932708D02*
X120962911Y-132281051D01*
X120962911Y-132106880D02*
X120353311Y-132106880D01*
X120440397Y-132164937D01*
X120498454Y-132222994D01*
X120527482Y-132281051D01*
X120614568Y-131584365D02*
X120585540Y-131642422D01*
X120556511Y-131671451D01*
X120498454Y-131700480D01*
X120469425Y-131700480D01*
X120411368Y-131671451D01*
X120382340Y-131642422D01*
X120353311Y-131584365D01*
X120353311Y-131468251D01*
X120382340Y-131410194D01*
X120411368Y-131381165D01*
X120469425Y-131352137D01*
X120498454Y-131352137D01*
X120556511Y-131381165D01*
X120585540Y-131410194D01*
X120614568Y-131468251D01*
X120614568Y-131584365D01*
X120643597Y-131642422D01*
X120672625Y-131671451D01*
X120730682Y-131700480D01*
X120846797Y-131700480D01*
X120904854Y-131671451D01*
X120933882Y-131642422D01*
X120962911Y-131584365D01*
X120962911Y-131468251D01*
X120933882Y-131410194D01*
X120904854Y-131381165D01*
X120846797Y-131352137D01*
X120730682Y-131352137D01*
X120672625Y-131381165D01*
X120643597Y-131410194D01*
X120614568Y-131468251D01*
%TO.C,TS-17*%
X103148311Y-134138880D02*
X103148311Y-133790537D01*
X103757911Y-133964708D02*
X103148311Y-133964708D01*
X103728882Y-133616365D02*
X103757911Y-133529280D01*
X103757911Y-133384137D01*
X103728882Y-133326080D01*
X103699854Y-133297051D01*
X103641797Y-133268022D01*
X103583740Y-133268022D01*
X103525682Y-133297051D01*
X103496654Y-133326080D01*
X103467625Y-133384137D01*
X103438597Y-133500251D01*
X103409568Y-133558308D01*
X103380540Y-133587337D01*
X103322482Y-133616365D01*
X103264425Y-133616365D01*
X103206368Y-133587337D01*
X103177340Y-133558308D01*
X103148311Y-133500251D01*
X103148311Y-133355108D01*
X103177340Y-133268022D01*
X103525682Y-133006765D02*
X103525682Y-132542308D01*
X103757911Y-131932708D02*
X103757911Y-132281051D01*
X103757911Y-132106880D02*
X103148311Y-132106880D01*
X103235397Y-132164937D01*
X103293454Y-132222994D01*
X103322482Y-132281051D01*
X103148311Y-131729508D02*
X103148311Y-131323108D01*
X103757911Y-131584365D01*
%TO.C,TS-16*%
X154763311Y-118048880D02*
X154763311Y-117700537D01*
X155372911Y-117874708D02*
X154763311Y-117874708D01*
X155343882Y-117526365D02*
X155372911Y-117439280D01*
X155372911Y-117294137D01*
X155343882Y-117236080D01*
X155314854Y-117207051D01*
X155256797Y-117178022D01*
X155198740Y-117178022D01*
X155140682Y-117207051D01*
X155111654Y-117236080D01*
X155082625Y-117294137D01*
X155053597Y-117410251D01*
X155024568Y-117468308D01*
X154995540Y-117497337D01*
X154937482Y-117526365D01*
X154879425Y-117526365D01*
X154821368Y-117497337D01*
X154792340Y-117468308D01*
X154763311Y-117410251D01*
X154763311Y-117265108D01*
X154792340Y-117178022D01*
X155140682Y-116916765D02*
X155140682Y-116452308D01*
X155372911Y-115842708D02*
X155372911Y-116191051D01*
X155372911Y-116016880D02*
X154763311Y-116016880D01*
X154850397Y-116074937D01*
X154908454Y-116132994D01*
X154937482Y-116191051D01*
X154763311Y-115320194D02*
X154763311Y-115436308D01*
X154792340Y-115494365D01*
X154821368Y-115523394D01*
X154908454Y-115581451D01*
X155024568Y-115610480D01*
X155256797Y-115610480D01*
X155314854Y-115581451D01*
X155343882Y-115552422D01*
X155372911Y-115494365D01*
X155372911Y-115378251D01*
X155343882Y-115320194D01*
X155314854Y-115291165D01*
X155256797Y-115262137D01*
X155111654Y-115262137D01*
X155053597Y-115291165D01*
X155024568Y-115320194D01*
X154995540Y-115378251D01*
X154995540Y-115494365D01*
X155024568Y-115552422D01*
X155053597Y-115581451D01*
X155111654Y-115610480D01*
%TO.C,TS-15*%
X137558311Y-118048880D02*
X137558311Y-117700537D01*
X138167911Y-117874708D02*
X137558311Y-117874708D01*
X138138882Y-117526365D02*
X138167911Y-117439280D01*
X138167911Y-117294137D01*
X138138882Y-117236080D01*
X138109854Y-117207051D01*
X138051797Y-117178022D01*
X137993740Y-117178022D01*
X137935682Y-117207051D01*
X137906654Y-117236080D01*
X137877625Y-117294137D01*
X137848597Y-117410251D01*
X137819568Y-117468308D01*
X137790540Y-117497337D01*
X137732482Y-117526365D01*
X137674425Y-117526365D01*
X137616368Y-117497337D01*
X137587340Y-117468308D01*
X137558311Y-117410251D01*
X137558311Y-117265108D01*
X137587340Y-117178022D01*
X137935682Y-116916765D02*
X137935682Y-116452308D01*
X138167911Y-115842708D02*
X138167911Y-116191051D01*
X138167911Y-116016880D02*
X137558311Y-116016880D01*
X137645397Y-116074937D01*
X137703454Y-116132994D01*
X137732482Y-116191051D01*
X137558311Y-115291165D02*
X137558311Y-115581451D01*
X137848597Y-115610480D01*
X137819568Y-115581451D01*
X137790540Y-115523394D01*
X137790540Y-115378251D01*
X137819568Y-115320194D01*
X137848597Y-115291165D01*
X137906654Y-115262137D01*
X138051797Y-115262137D01*
X138109854Y-115291165D01*
X138138882Y-115320194D01*
X138167911Y-115378251D01*
X138167911Y-115523394D01*
X138138882Y-115581451D01*
X138109854Y-115610480D01*
%TO.C,TS-14*%
X120353311Y-118048880D02*
X120353311Y-117700537D01*
X120962911Y-117874708D02*
X120353311Y-117874708D01*
X120933882Y-117526365D02*
X120962911Y-117439280D01*
X120962911Y-117294137D01*
X120933882Y-117236080D01*
X120904854Y-117207051D01*
X120846797Y-117178022D01*
X120788740Y-117178022D01*
X120730682Y-117207051D01*
X120701654Y-117236080D01*
X120672625Y-117294137D01*
X120643597Y-117410251D01*
X120614568Y-117468308D01*
X120585540Y-117497337D01*
X120527482Y-117526365D01*
X120469425Y-117526365D01*
X120411368Y-117497337D01*
X120382340Y-117468308D01*
X120353311Y-117410251D01*
X120353311Y-117265108D01*
X120382340Y-117178022D01*
X120730682Y-116916765D02*
X120730682Y-116452308D01*
X120962911Y-115842708D02*
X120962911Y-116191051D01*
X120962911Y-116016880D02*
X120353311Y-116016880D01*
X120440397Y-116074937D01*
X120498454Y-116132994D01*
X120527482Y-116191051D01*
X120556511Y-115320194D02*
X120962911Y-115320194D01*
X120324282Y-115465337D02*
X120759711Y-115610480D01*
X120759711Y-115233108D01*
%TO.C,TS-13*%
X103148311Y-118048880D02*
X103148311Y-117700537D01*
X103757911Y-117874708D02*
X103148311Y-117874708D01*
X103728882Y-117526365D02*
X103757911Y-117439280D01*
X103757911Y-117294137D01*
X103728882Y-117236080D01*
X103699854Y-117207051D01*
X103641797Y-117178022D01*
X103583740Y-117178022D01*
X103525682Y-117207051D01*
X103496654Y-117236080D01*
X103467625Y-117294137D01*
X103438597Y-117410251D01*
X103409568Y-117468308D01*
X103380540Y-117497337D01*
X103322482Y-117526365D01*
X103264425Y-117526365D01*
X103206368Y-117497337D01*
X103177340Y-117468308D01*
X103148311Y-117410251D01*
X103148311Y-117265108D01*
X103177340Y-117178022D01*
X103525682Y-116916765D02*
X103525682Y-116452308D01*
X103757911Y-115842708D02*
X103757911Y-116191051D01*
X103757911Y-116016880D02*
X103148311Y-116016880D01*
X103235397Y-116074937D01*
X103293454Y-116132994D01*
X103322482Y-116191051D01*
X103148311Y-115639508D02*
X103148311Y-115262137D01*
X103380540Y-115465337D01*
X103380540Y-115378251D01*
X103409568Y-115320194D01*
X103438597Y-115291165D01*
X103496654Y-115262137D01*
X103641797Y-115262137D01*
X103699854Y-115291165D01*
X103728882Y-115320194D01*
X103757911Y-115378251D01*
X103757911Y-115552422D01*
X103728882Y-115610480D01*
X103699854Y-115639508D01*
%TO.C,TS-12*%
X154763311Y-101958880D02*
X154763311Y-101610537D01*
X155372911Y-101784708D02*
X154763311Y-101784708D01*
X155343882Y-101436365D02*
X155372911Y-101349280D01*
X155372911Y-101204137D01*
X155343882Y-101146080D01*
X155314854Y-101117051D01*
X155256797Y-101088022D01*
X155198740Y-101088022D01*
X155140682Y-101117051D01*
X155111654Y-101146080D01*
X155082625Y-101204137D01*
X155053597Y-101320251D01*
X155024568Y-101378308D01*
X154995540Y-101407337D01*
X154937482Y-101436365D01*
X154879425Y-101436365D01*
X154821368Y-101407337D01*
X154792340Y-101378308D01*
X154763311Y-101320251D01*
X154763311Y-101175108D01*
X154792340Y-101088022D01*
X155140682Y-100826765D02*
X155140682Y-100362308D01*
X155372911Y-99752708D02*
X155372911Y-100101051D01*
X155372911Y-99926880D02*
X154763311Y-99926880D01*
X154850397Y-99984937D01*
X154908454Y-100042994D01*
X154937482Y-100101051D01*
X154821368Y-99520480D02*
X154792340Y-99491451D01*
X154763311Y-99433394D01*
X154763311Y-99288251D01*
X154792340Y-99230194D01*
X154821368Y-99201165D01*
X154879425Y-99172137D01*
X154937482Y-99172137D01*
X155024568Y-99201165D01*
X155372911Y-99549508D01*
X155372911Y-99172137D01*
%TO.C,TS-11*%
X137558311Y-101958880D02*
X137558311Y-101610537D01*
X138167911Y-101784708D02*
X137558311Y-101784708D01*
X138138882Y-101436365D02*
X138167911Y-101349280D01*
X138167911Y-101204137D01*
X138138882Y-101146080D01*
X138109854Y-101117051D01*
X138051797Y-101088022D01*
X137993740Y-101088022D01*
X137935682Y-101117051D01*
X137906654Y-101146080D01*
X137877625Y-101204137D01*
X137848597Y-101320251D01*
X137819568Y-101378308D01*
X137790540Y-101407337D01*
X137732482Y-101436365D01*
X137674425Y-101436365D01*
X137616368Y-101407337D01*
X137587340Y-101378308D01*
X137558311Y-101320251D01*
X137558311Y-101175108D01*
X137587340Y-101088022D01*
X137935682Y-100826765D02*
X137935682Y-100362308D01*
X138167911Y-99752708D02*
X138167911Y-100101051D01*
X138167911Y-99926880D02*
X137558311Y-99926880D01*
X137645397Y-99984937D01*
X137703454Y-100042994D01*
X137732482Y-100101051D01*
X138167911Y-99172137D02*
X138167911Y-99520480D01*
X138167911Y-99346308D02*
X137558311Y-99346308D01*
X137645397Y-99404365D01*
X137703454Y-99462422D01*
X137732482Y-99520480D01*
%TO.C,TS-10*%
X120353311Y-101958880D02*
X120353311Y-101610537D01*
X120962911Y-101784708D02*
X120353311Y-101784708D01*
X120933882Y-101436365D02*
X120962911Y-101349280D01*
X120962911Y-101204137D01*
X120933882Y-101146080D01*
X120904854Y-101117051D01*
X120846797Y-101088022D01*
X120788740Y-101088022D01*
X120730682Y-101117051D01*
X120701654Y-101146080D01*
X120672625Y-101204137D01*
X120643597Y-101320251D01*
X120614568Y-101378308D01*
X120585540Y-101407337D01*
X120527482Y-101436365D01*
X120469425Y-101436365D01*
X120411368Y-101407337D01*
X120382340Y-101378308D01*
X120353311Y-101320251D01*
X120353311Y-101175108D01*
X120382340Y-101088022D01*
X120730682Y-100826765D02*
X120730682Y-100362308D01*
X120962911Y-99752708D02*
X120962911Y-100101051D01*
X120962911Y-99926880D02*
X120353311Y-99926880D01*
X120440397Y-99984937D01*
X120498454Y-100042994D01*
X120527482Y-100101051D01*
X120353311Y-99375337D02*
X120353311Y-99317280D01*
X120382340Y-99259222D01*
X120411368Y-99230194D01*
X120469425Y-99201165D01*
X120585540Y-99172137D01*
X120730682Y-99172137D01*
X120846797Y-99201165D01*
X120904854Y-99230194D01*
X120933882Y-99259222D01*
X120962911Y-99317280D01*
X120962911Y-99375337D01*
X120933882Y-99433394D01*
X120904854Y-99462422D01*
X120846797Y-99491451D01*
X120730682Y-99520480D01*
X120585540Y-99520480D01*
X120469425Y-99491451D01*
X120411368Y-99462422D01*
X120382340Y-99433394D01*
X120353311Y-99375337D01*
%TO.C,TS-9*%
X103148311Y-101668594D02*
X103148311Y-101320251D01*
X103757911Y-101494422D02*
X103148311Y-101494422D01*
X103728882Y-101146080D02*
X103757911Y-101058994D01*
X103757911Y-100913851D01*
X103728882Y-100855794D01*
X103699854Y-100826765D01*
X103641797Y-100797737D01*
X103583740Y-100797737D01*
X103525682Y-100826765D01*
X103496654Y-100855794D01*
X103467625Y-100913851D01*
X103438597Y-101029965D01*
X103409568Y-101088022D01*
X103380540Y-101117051D01*
X103322482Y-101146080D01*
X103264425Y-101146080D01*
X103206368Y-101117051D01*
X103177340Y-101088022D01*
X103148311Y-101029965D01*
X103148311Y-100884822D01*
X103177340Y-100797737D01*
X103525682Y-100536480D02*
X103525682Y-100072022D01*
X103757911Y-99752708D02*
X103757911Y-99636594D01*
X103728882Y-99578537D01*
X103699854Y-99549508D01*
X103612768Y-99491451D01*
X103496654Y-99462422D01*
X103264425Y-99462422D01*
X103206368Y-99491451D01*
X103177340Y-99520480D01*
X103148311Y-99578537D01*
X103148311Y-99694651D01*
X103177340Y-99752708D01*
X103206368Y-99781737D01*
X103264425Y-99810765D01*
X103409568Y-99810765D01*
X103467625Y-99781737D01*
X103496654Y-99752708D01*
X103525682Y-99694651D01*
X103525682Y-99578537D01*
X103496654Y-99520480D01*
X103467625Y-99491451D01*
X103409568Y-99462422D01*
%TO.C,TS-8*%
X154763311Y-85578594D02*
X154763311Y-85230251D01*
X155372911Y-85404422D02*
X154763311Y-85404422D01*
X155343882Y-85056080D02*
X155372911Y-84968994D01*
X155372911Y-84823851D01*
X155343882Y-84765794D01*
X155314854Y-84736765D01*
X155256797Y-84707737D01*
X155198740Y-84707737D01*
X155140682Y-84736765D01*
X155111654Y-84765794D01*
X155082625Y-84823851D01*
X155053597Y-84939965D01*
X155024568Y-84998022D01*
X154995540Y-85027051D01*
X154937482Y-85056080D01*
X154879425Y-85056080D01*
X154821368Y-85027051D01*
X154792340Y-84998022D01*
X154763311Y-84939965D01*
X154763311Y-84794822D01*
X154792340Y-84707737D01*
X155140682Y-84446480D02*
X155140682Y-83982022D01*
X155024568Y-83604651D02*
X154995540Y-83662708D01*
X154966511Y-83691737D01*
X154908454Y-83720765D01*
X154879425Y-83720765D01*
X154821368Y-83691737D01*
X154792340Y-83662708D01*
X154763311Y-83604651D01*
X154763311Y-83488537D01*
X154792340Y-83430480D01*
X154821368Y-83401451D01*
X154879425Y-83372422D01*
X154908454Y-83372422D01*
X154966511Y-83401451D01*
X154995540Y-83430480D01*
X155024568Y-83488537D01*
X155024568Y-83604651D01*
X155053597Y-83662708D01*
X155082625Y-83691737D01*
X155140682Y-83720765D01*
X155256797Y-83720765D01*
X155314854Y-83691737D01*
X155343882Y-83662708D01*
X155372911Y-83604651D01*
X155372911Y-83488537D01*
X155343882Y-83430480D01*
X155314854Y-83401451D01*
X155256797Y-83372422D01*
X155140682Y-83372422D01*
X155082625Y-83401451D01*
X155053597Y-83430480D01*
X155024568Y-83488537D01*
%TO.C,TS-7*%
X137558311Y-85578594D02*
X137558311Y-85230251D01*
X138167911Y-85404422D02*
X137558311Y-85404422D01*
X138138882Y-85056080D02*
X138167911Y-84968994D01*
X138167911Y-84823851D01*
X138138882Y-84765794D01*
X138109854Y-84736765D01*
X138051797Y-84707737D01*
X137993740Y-84707737D01*
X137935682Y-84736765D01*
X137906654Y-84765794D01*
X137877625Y-84823851D01*
X137848597Y-84939965D01*
X137819568Y-84998022D01*
X137790540Y-85027051D01*
X137732482Y-85056080D01*
X137674425Y-85056080D01*
X137616368Y-85027051D01*
X137587340Y-84998022D01*
X137558311Y-84939965D01*
X137558311Y-84794822D01*
X137587340Y-84707737D01*
X137935682Y-84446480D02*
X137935682Y-83982022D01*
X137558311Y-83749794D02*
X137558311Y-83343394D01*
X138167911Y-83604651D01*
%TO.C,TS-6*%
X120353311Y-85578594D02*
X120353311Y-85230251D01*
X120962911Y-85404422D02*
X120353311Y-85404422D01*
X120933882Y-85056080D02*
X120962911Y-84968994D01*
X120962911Y-84823851D01*
X120933882Y-84765794D01*
X120904854Y-84736765D01*
X120846797Y-84707737D01*
X120788740Y-84707737D01*
X120730682Y-84736765D01*
X120701654Y-84765794D01*
X120672625Y-84823851D01*
X120643597Y-84939965D01*
X120614568Y-84998022D01*
X120585540Y-85027051D01*
X120527482Y-85056080D01*
X120469425Y-85056080D01*
X120411368Y-85027051D01*
X120382340Y-84998022D01*
X120353311Y-84939965D01*
X120353311Y-84794822D01*
X120382340Y-84707737D01*
X120730682Y-84446480D02*
X120730682Y-83982022D01*
X120353311Y-83430480D02*
X120353311Y-83546594D01*
X120382340Y-83604651D01*
X120411368Y-83633680D01*
X120498454Y-83691737D01*
X120614568Y-83720765D01*
X120846797Y-83720765D01*
X120904854Y-83691737D01*
X120933882Y-83662708D01*
X120962911Y-83604651D01*
X120962911Y-83488537D01*
X120933882Y-83430480D01*
X120904854Y-83401451D01*
X120846797Y-83372422D01*
X120701654Y-83372422D01*
X120643597Y-83401451D01*
X120614568Y-83430480D01*
X120585540Y-83488537D01*
X120585540Y-83604651D01*
X120614568Y-83662708D01*
X120643597Y-83691737D01*
X120701654Y-83720765D01*
%TO.C,TS-5*%
X103148311Y-85578594D02*
X103148311Y-85230251D01*
X103757911Y-85404422D02*
X103148311Y-85404422D01*
X103728882Y-85056080D02*
X103757911Y-84968994D01*
X103757911Y-84823851D01*
X103728882Y-84765794D01*
X103699854Y-84736765D01*
X103641797Y-84707737D01*
X103583740Y-84707737D01*
X103525682Y-84736765D01*
X103496654Y-84765794D01*
X103467625Y-84823851D01*
X103438597Y-84939965D01*
X103409568Y-84998022D01*
X103380540Y-85027051D01*
X103322482Y-85056080D01*
X103264425Y-85056080D01*
X103206368Y-85027051D01*
X103177340Y-84998022D01*
X103148311Y-84939965D01*
X103148311Y-84794822D01*
X103177340Y-84707737D01*
X103525682Y-84446480D02*
X103525682Y-83982022D01*
X103148311Y-83401451D02*
X103148311Y-83691737D01*
X103438597Y-83720765D01*
X103409568Y-83691737D01*
X103380540Y-83633680D01*
X103380540Y-83488537D01*
X103409568Y-83430480D01*
X103438597Y-83401451D01*
X103496654Y-83372422D01*
X103641797Y-83372422D01*
X103699854Y-83401451D01*
X103728882Y-83430480D01*
X103757911Y-83488537D01*
X103757911Y-83633680D01*
X103728882Y-83691737D01*
X103699854Y-83720765D01*
%TO.C,TS-4*%
X154763311Y-69488594D02*
X154763311Y-69140251D01*
X155372911Y-69314422D02*
X154763311Y-69314422D01*
X155343882Y-68966080D02*
X155372911Y-68878994D01*
X155372911Y-68733851D01*
X155343882Y-68675794D01*
X155314854Y-68646765D01*
X155256797Y-68617737D01*
X155198740Y-68617737D01*
X155140682Y-68646765D01*
X155111654Y-68675794D01*
X155082625Y-68733851D01*
X155053597Y-68849965D01*
X155024568Y-68908022D01*
X154995540Y-68937051D01*
X154937482Y-68966080D01*
X154879425Y-68966080D01*
X154821368Y-68937051D01*
X154792340Y-68908022D01*
X154763311Y-68849965D01*
X154763311Y-68704822D01*
X154792340Y-68617737D01*
X155140682Y-68356480D02*
X155140682Y-67892022D01*
X154966511Y-67340480D02*
X155372911Y-67340480D01*
X154734282Y-67485622D02*
X155169711Y-67630765D01*
X155169711Y-67253394D01*
%TO.C,TS-3*%
X137558311Y-69488594D02*
X137558311Y-69140251D01*
X138167911Y-69314422D02*
X137558311Y-69314422D01*
X138138882Y-68966080D02*
X138167911Y-68878994D01*
X138167911Y-68733851D01*
X138138882Y-68675794D01*
X138109854Y-68646765D01*
X138051797Y-68617737D01*
X137993740Y-68617737D01*
X137935682Y-68646765D01*
X137906654Y-68675794D01*
X137877625Y-68733851D01*
X137848597Y-68849965D01*
X137819568Y-68908022D01*
X137790540Y-68937051D01*
X137732482Y-68966080D01*
X137674425Y-68966080D01*
X137616368Y-68937051D01*
X137587340Y-68908022D01*
X137558311Y-68849965D01*
X137558311Y-68704822D01*
X137587340Y-68617737D01*
X137935682Y-68356480D02*
X137935682Y-67892022D01*
X137558311Y-67659794D02*
X137558311Y-67282422D01*
X137790540Y-67485622D01*
X137790540Y-67398537D01*
X137819568Y-67340480D01*
X137848597Y-67311451D01*
X137906654Y-67282422D01*
X138051797Y-67282422D01*
X138109854Y-67311451D01*
X138138882Y-67340480D01*
X138167911Y-67398537D01*
X138167911Y-67572708D01*
X138138882Y-67630765D01*
X138109854Y-67659794D01*
%TO.C,TS-2*%
X120353311Y-69488594D02*
X120353311Y-69140251D01*
X120962911Y-69314422D02*
X120353311Y-69314422D01*
X120933882Y-68966080D02*
X120962911Y-68878994D01*
X120962911Y-68733851D01*
X120933882Y-68675794D01*
X120904854Y-68646765D01*
X120846797Y-68617737D01*
X120788740Y-68617737D01*
X120730682Y-68646765D01*
X120701654Y-68675794D01*
X120672625Y-68733851D01*
X120643597Y-68849965D01*
X120614568Y-68908022D01*
X120585540Y-68937051D01*
X120527482Y-68966080D01*
X120469425Y-68966080D01*
X120411368Y-68937051D01*
X120382340Y-68908022D01*
X120353311Y-68849965D01*
X120353311Y-68704822D01*
X120382340Y-68617737D01*
X120730682Y-68356480D02*
X120730682Y-67892022D01*
X120411368Y-67630765D02*
X120382340Y-67601737D01*
X120353311Y-67543680D01*
X120353311Y-67398537D01*
X120382340Y-67340480D01*
X120411368Y-67311451D01*
X120469425Y-67282422D01*
X120527482Y-67282422D01*
X120614568Y-67311451D01*
X120962911Y-67659794D01*
X120962911Y-67282422D01*
%TO.C,TS-1*%
X103148311Y-69488594D02*
X103148311Y-69140251D01*
X103757911Y-69314422D02*
X103148311Y-69314422D01*
X103728882Y-68966080D02*
X103757911Y-68878994D01*
X103757911Y-68733851D01*
X103728882Y-68675794D01*
X103699854Y-68646765D01*
X103641797Y-68617737D01*
X103583740Y-68617737D01*
X103525682Y-68646765D01*
X103496654Y-68675794D01*
X103467625Y-68733851D01*
X103438597Y-68849965D01*
X103409568Y-68908022D01*
X103380540Y-68937051D01*
X103322482Y-68966080D01*
X103264425Y-68966080D01*
X103206368Y-68937051D01*
X103177340Y-68908022D01*
X103148311Y-68849965D01*
X103148311Y-68704822D01*
X103177340Y-68617737D01*
X103525682Y-68356480D02*
X103525682Y-67892022D01*
X103757911Y-67282422D02*
X103757911Y-67630765D01*
X103757911Y-67456594D02*
X103148311Y-67456594D01*
X103235397Y-67514651D01*
X103293454Y-67572708D01*
X103322482Y-67630765D01*
%TD*%
M02*
