%TF.GenerationSoftware,KiCad,Pcbnew,(5.1.10)-1*%
%TF.CreationDate,2021-10-20T08:10:08-05:00*%
%TF.ProjectId,Mk3,4d6b332e-6b69-4636-9164-5f7063625858,3*%
%TF.SameCoordinates,Original*%
%TF.FileFunction,Soldermask,Top*%
%TF.FilePolarity,Negative*%
%FSLAX46Y46*%
G04 Gerber Fmt 4.6, Leading zero omitted, Abs format (unit mm)*
G04 Created by KiCad (PCBNEW (5.1.10)-1) date 2021-10-20 08:10:08*
%MOMM*%
%LPD*%
G01*
G04 APERTURE LIST*
%ADD10C,5.700000*%
%ADD11C,2.500000*%
%ADD12R,2.500000X2.500000*%
%ADD13C,2.362200*%
%ADD14C,1.700000*%
%ADD15R,1.700000X2.000000*%
G04 APERTURE END LIST*
D10*
%TO.C,REF\u002A\u002A*%
X178163220Y-148356320D03*
%TD*%
%TO.C,REF\u002A\u002A*%
X102765860Y-148290280D03*
%TD*%
%TO.C,REF\u002A\u002A*%
X102725220Y-60906660D03*
%TD*%
%TO.C,REF\u002A\u002A*%
X178122580Y-60972700D03*
%TD*%
D11*
%TO.C,ST-ROW-1*%
X176743360Y-138181120D03*
X176743360Y-133181120D03*
X176743360Y-128181120D03*
X176743360Y-123181120D03*
D12*
X176743360Y-118181120D03*
%TD*%
D11*
%TO.C,ST-COL-1*%
X176743360Y-87605900D03*
X176743360Y-82605900D03*
X176743360Y-77605900D03*
D12*
X176743360Y-72605900D03*
%TD*%
D13*
%TO.C,TS-20*%
X164822800Y-130605740D03*
X164822800Y-143102540D03*
X159824080Y-130605740D03*
X159824080Y-143102540D03*
%TD*%
%TO.C,TS-19*%
X147617800Y-130605740D03*
X147617800Y-143102540D03*
X142619080Y-130605740D03*
X142619080Y-143102540D03*
%TD*%
%TO.C,TS-18*%
X130412800Y-130605740D03*
X130412800Y-143102540D03*
X125414080Y-130605740D03*
X125414080Y-143102540D03*
%TD*%
%TO.C,TS-17*%
X113207800Y-130605740D03*
X113207800Y-143102540D03*
X108209080Y-130605740D03*
X108209080Y-143102540D03*
%TD*%
%TO.C,TS-16*%
X164822800Y-114515740D03*
X164822800Y-127012540D03*
X159824080Y-114515740D03*
X159824080Y-127012540D03*
%TD*%
%TO.C,TS-15*%
X147617800Y-114515740D03*
X147617800Y-127012540D03*
X142619080Y-114515740D03*
X142619080Y-127012540D03*
%TD*%
%TO.C,TS-14*%
X130412800Y-114515740D03*
X130412800Y-127012540D03*
X125414080Y-114515740D03*
X125414080Y-127012540D03*
%TD*%
%TO.C,TS-13*%
X113207800Y-114515740D03*
X113207800Y-127012540D03*
X108209080Y-114515740D03*
X108209080Y-127012540D03*
%TD*%
%TO.C,TS-12*%
X164822800Y-98425740D03*
X164822800Y-110922540D03*
X159824080Y-98425740D03*
X159824080Y-110922540D03*
%TD*%
%TO.C,TS-11*%
X147617800Y-98425740D03*
X147617800Y-110922540D03*
X142619080Y-98425740D03*
X142619080Y-110922540D03*
%TD*%
%TO.C,TS-10*%
X130412800Y-98425740D03*
X130412800Y-110922540D03*
X125414080Y-98425740D03*
X125414080Y-110922540D03*
%TD*%
%TO.C,TS-9*%
X113207800Y-98425740D03*
X113207800Y-110922540D03*
X108209080Y-98425740D03*
X108209080Y-110922540D03*
%TD*%
%TO.C,TS-8*%
X164822800Y-82335740D03*
X164822800Y-94832540D03*
X159824080Y-82335740D03*
X159824080Y-94832540D03*
%TD*%
%TO.C,TS-7*%
X147617800Y-82335740D03*
X147617800Y-94832540D03*
X142619080Y-82335740D03*
X142619080Y-94832540D03*
%TD*%
%TO.C,TS-6*%
X130412800Y-82335740D03*
X130412800Y-94832540D03*
X125414080Y-82335740D03*
X125414080Y-94832540D03*
%TD*%
%TO.C,TS-5*%
X113207800Y-82335740D03*
X113207800Y-94832540D03*
X108209080Y-82335740D03*
X108209080Y-94832540D03*
%TD*%
%TO.C,TS-4*%
X164822800Y-66245740D03*
X164822800Y-78742540D03*
X159824080Y-66245740D03*
X159824080Y-78742540D03*
%TD*%
%TO.C,TS-3*%
X147617800Y-66245740D03*
X147617800Y-78742540D03*
X142619080Y-66245740D03*
X142619080Y-78742540D03*
%TD*%
%TO.C,TS-2*%
X130412800Y-66245740D03*
X130412800Y-78742540D03*
X125414080Y-66245740D03*
X125414080Y-78742540D03*
%TD*%
D14*
%TO.C,DO-20*%
X169598600Y-136894780D03*
D15*
X154998600Y-136894780D03*
%TD*%
D14*
%TO.C,DO-19*%
X152393600Y-136894780D03*
D15*
X137793600Y-136894780D03*
%TD*%
D14*
%TO.C,DO-18*%
X135188600Y-136894780D03*
D15*
X120588600Y-136894780D03*
%TD*%
D14*
%TO.C,DO-17*%
X117983600Y-136894780D03*
D15*
X103383600Y-136894780D03*
%TD*%
D14*
%TO.C,DO-16*%
X169598600Y-120804780D03*
D15*
X154998600Y-120804780D03*
%TD*%
D14*
%TO.C,DO-15*%
X152393600Y-120804780D03*
D15*
X137793600Y-120804780D03*
%TD*%
D14*
%TO.C,DO-14*%
X135188600Y-120804780D03*
D15*
X120588600Y-120804780D03*
%TD*%
D14*
%TO.C,DO-13*%
X117983600Y-120804780D03*
D15*
X103383600Y-120804780D03*
%TD*%
D14*
%TO.C,DO-12*%
X169598600Y-104714780D03*
D15*
X154998600Y-104714780D03*
%TD*%
D14*
%TO.C,DO-11*%
X152393600Y-104714780D03*
D15*
X137793600Y-104714780D03*
%TD*%
D14*
%TO.C,DO-10*%
X135188600Y-104714780D03*
D15*
X120588600Y-104714780D03*
%TD*%
D14*
%TO.C,DO-9*%
X117983600Y-104714780D03*
D15*
X103383600Y-104714780D03*
%TD*%
D14*
%TO.C,DO-8*%
X169598600Y-88624780D03*
D15*
X154998600Y-88624780D03*
%TD*%
D14*
%TO.C,DO-7*%
X152393600Y-88624780D03*
D15*
X137793600Y-88624780D03*
%TD*%
D14*
%TO.C,DO-6*%
X135188600Y-88624780D03*
D15*
X120588600Y-88624780D03*
%TD*%
D14*
%TO.C,DO-5*%
X117983600Y-88624780D03*
D15*
X103383600Y-88624780D03*
%TD*%
D14*
%TO.C,DO-4*%
X169598600Y-72534780D03*
D15*
X154998600Y-72534780D03*
%TD*%
D14*
%TO.C,DO-3*%
X152393600Y-72534780D03*
D15*
X137793600Y-72534780D03*
%TD*%
D14*
%TO.C,DO-2*%
X135188600Y-72534780D03*
D15*
X120588600Y-72534780D03*
%TD*%
D13*
%TO.C,TS-1*%
X108209080Y-78742540D03*
X108209080Y-66245740D03*
X113207800Y-78742540D03*
X113207800Y-66245740D03*
%TD*%
D15*
%TO.C,DO-1*%
X103383600Y-72534780D03*
D14*
X117983600Y-72534780D03*
%TD*%
M02*
