%TF.GenerationSoftware,KiCad,Pcbnew,(5.1.10)-1*%
%TF.CreationDate,2021-10-20T08:10:08-05:00*%
%TF.ProjectId,Mk3,4d6b332e-6b69-4636-9164-5f7063625858,3*%
%TF.SameCoordinates,Original*%
%TF.FileFunction,Legend,Bot*%
%TF.FilePolarity,Positive*%
%FSLAX46Y46*%
G04 Gerber Fmt 4.6, Leading zero omitted, Abs format (unit mm)*
G04 Created by KiCad (PCBNEW (5.1.10)-1) date 2021-10-20 08:10:08*
%MOMM*%
%LPD*%
G01*
G04 APERTURE LIST*
%ADD10C,0.100000*%
%ADD11C,0.050000*%
%ADD12C,0.150000*%
G04 APERTURE END LIST*
D10*
%TO.C,DO-20*%
X164768600Y-136094780D02*
X164768600Y-136894780D01*
X159388600Y-136094780D02*
X164768600Y-136094780D01*
X159398600Y-136894780D02*
X159398600Y-136094780D01*
X164768600Y-137694780D02*
X164768600Y-136894780D01*
X159388600Y-137694780D02*
X164768600Y-137694780D01*
X159398600Y-136894780D02*
X159398600Y-137694780D01*
D11*
X153798600Y-135644780D02*
X153798600Y-138144780D01*
X170808600Y-135644780D02*
X153808600Y-135644780D01*
X170798600Y-135644780D02*
X170798600Y-138144780D01*
X170808600Y-138144780D02*
X153808600Y-138144780D01*
D10*
X161768600Y-136894780D02*
X162768600Y-136194780D01*
X162768600Y-137594780D02*
X161768600Y-136894780D01*
X162768600Y-136194780D02*
X162768600Y-137594780D01*
X163198600Y-136894780D02*
X162768600Y-136894780D01*
X161768600Y-136894780D02*
X161198600Y-136894780D01*
X161768600Y-136894780D02*
X161768600Y-136294780D01*
X161768600Y-136894780D02*
X161768600Y-137494780D01*
%TO.C,DO-19*%
X147563600Y-136094780D02*
X147563600Y-136894780D01*
X142183600Y-136094780D02*
X147563600Y-136094780D01*
X142193600Y-136894780D02*
X142193600Y-136094780D01*
X147563600Y-137694780D02*
X147563600Y-136894780D01*
X142183600Y-137694780D02*
X147563600Y-137694780D01*
X142193600Y-136894780D02*
X142193600Y-137694780D01*
D11*
X136593600Y-135644780D02*
X136593600Y-138144780D01*
X153603600Y-135644780D02*
X136603600Y-135644780D01*
X153593600Y-135644780D02*
X153593600Y-138144780D01*
X153603600Y-138144780D02*
X136603600Y-138144780D01*
D10*
X144563600Y-136894780D02*
X145563600Y-136194780D01*
X145563600Y-137594780D02*
X144563600Y-136894780D01*
X145563600Y-136194780D02*
X145563600Y-137594780D01*
X145993600Y-136894780D02*
X145563600Y-136894780D01*
X144563600Y-136894780D02*
X143993600Y-136894780D01*
X144563600Y-136894780D02*
X144563600Y-136294780D01*
X144563600Y-136894780D02*
X144563600Y-137494780D01*
%TO.C,DO-18*%
X130358600Y-136094780D02*
X130358600Y-136894780D01*
X124978600Y-136094780D02*
X130358600Y-136094780D01*
X124988600Y-136894780D02*
X124988600Y-136094780D01*
X130358600Y-137694780D02*
X130358600Y-136894780D01*
X124978600Y-137694780D02*
X130358600Y-137694780D01*
X124988600Y-136894780D02*
X124988600Y-137694780D01*
D11*
X119388600Y-135644780D02*
X119388600Y-138144780D01*
X136398600Y-135644780D02*
X119398600Y-135644780D01*
X136388600Y-135644780D02*
X136388600Y-138144780D01*
X136398600Y-138144780D02*
X119398600Y-138144780D01*
D10*
X127358600Y-136894780D02*
X128358600Y-136194780D01*
X128358600Y-137594780D02*
X127358600Y-136894780D01*
X128358600Y-136194780D02*
X128358600Y-137594780D01*
X128788600Y-136894780D02*
X128358600Y-136894780D01*
X127358600Y-136894780D02*
X126788600Y-136894780D01*
X127358600Y-136894780D02*
X127358600Y-136294780D01*
X127358600Y-136894780D02*
X127358600Y-137494780D01*
%TO.C,DO-17*%
X113153600Y-136094780D02*
X113153600Y-136894780D01*
X107773600Y-136094780D02*
X113153600Y-136094780D01*
X107783600Y-136894780D02*
X107783600Y-136094780D01*
X113153600Y-137694780D02*
X113153600Y-136894780D01*
X107773600Y-137694780D02*
X113153600Y-137694780D01*
X107783600Y-136894780D02*
X107783600Y-137694780D01*
D11*
X102183600Y-135644780D02*
X102183600Y-138144780D01*
X119193600Y-135644780D02*
X102193600Y-135644780D01*
X119183600Y-135644780D02*
X119183600Y-138144780D01*
X119193600Y-138144780D02*
X102193600Y-138144780D01*
D10*
X110153600Y-136894780D02*
X111153600Y-136194780D01*
X111153600Y-137594780D02*
X110153600Y-136894780D01*
X111153600Y-136194780D02*
X111153600Y-137594780D01*
X111583600Y-136894780D02*
X111153600Y-136894780D01*
X110153600Y-136894780D02*
X109583600Y-136894780D01*
X110153600Y-136894780D02*
X110153600Y-136294780D01*
X110153600Y-136894780D02*
X110153600Y-137494780D01*
%TO.C,DO-16*%
X164768600Y-120004780D02*
X164768600Y-120804780D01*
X159388600Y-120004780D02*
X164768600Y-120004780D01*
X159398600Y-120804780D02*
X159398600Y-120004780D01*
X164768600Y-121604780D02*
X164768600Y-120804780D01*
X159388600Y-121604780D02*
X164768600Y-121604780D01*
X159398600Y-120804780D02*
X159398600Y-121604780D01*
D11*
X153798600Y-119554780D02*
X153798600Y-122054780D01*
X170808600Y-119554780D02*
X153808600Y-119554780D01*
X170798600Y-119554780D02*
X170798600Y-122054780D01*
X170808600Y-122054780D02*
X153808600Y-122054780D01*
D10*
X161768600Y-120804780D02*
X162768600Y-120104780D01*
X162768600Y-121504780D02*
X161768600Y-120804780D01*
X162768600Y-120104780D02*
X162768600Y-121504780D01*
X163198600Y-120804780D02*
X162768600Y-120804780D01*
X161768600Y-120804780D02*
X161198600Y-120804780D01*
X161768600Y-120804780D02*
X161768600Y-120204780D01*
X161768600Y-120804780D02*
X161768600Y-121404780D01*
%TO.C,DO-15*%
X147563600Y-120004780D02*
X147563600Y-120804780D01*
X142183600Y-120004780D02*
X147563600Y-120004780D01*
X142193600Y-120804780D02*
X142193600Y-120004780D01*
X147563600Y-121604780D02*
X147563600Y-120804780D01*
X142183600Y-121604780D02*
X147563600Y-121604780D01*
X142193600Y-120804780D02*
X142193600Y-121604780D01*
D11*
X136593600Y-119554780D02*
X136593600Y-122054780D01*
X153603600Y-119554780D02*
X136603600Y-119554780D01*
X153593600Y-119554780D02*
X153593600Y-122054780D01*
X153603600Y-122054780D02*
X136603600Y-122054780D01*
D10*
X144563600Y-120804780D02*
X145563600Y-120104780D01*
X145563600Y-121504780D02*
X144563600Y-120804780D01*
X145563600Y-120104780D02*
X145563600Y-121504780D01*
X145993600Y-120804780D02*
X145563600Y-120804780D01*
X144563600Y-120804780D02*
X143993600Y-120804780D01*
X144563600Y-120804780D02*
X144563600Y-120204780D01*
X144563600Y-120804780D02*
X144563600Y-121404780D01*
%TO.C,DO-14*%
X130358600Y-120004780D02*
X130358600Y-120804780D01*
X124978600Y-120004780D02*
X130358600Y-120004780D01*
X124988600Y-120804780D02*
X124988600Y-120004780D01*
X130358600Y-121604780D02*
X130358600Y-120804780D01*
X124978600Y-121604780D02*
X130358600Y-121604780D01*
X124988600Y-120804780D02*
X124988600Y-121604780D01*
D11*
X119388600Y-119554780D02*
X119388600Y-122054780D01*
X136398600Y-119554780D02*
X119398600Y-119554780D01*
X136388600Y-119554780D02*
X136388600Y-122054780D01*
X136398600Y-122054780D02*
X119398600Y-122054780D01*
D10*
X127358600Y-120804780D02*
X128358600Y-120104780D01*
X128358600Y-121504780D02*
X127358600Y-120804780D01*
X128358600Y-120104780D02*
X128358600Y-121504780D01*
X128788600Y-120804780D02*
X128358600Y-120804780D01*
X127358600Y-120804780D02*
X126788600Y-120804780D01*
X127358600Y-120804780D02*
X127358600Y-120204780D01*
X127358600Y-120804780D02*
X127358600Y-121404780D01*
%TO.C,DO-13*%
X113153600Y-120004780D02*
X113153600Y-120804780D01*
X107773600Y-120004780D02*
X113153600Y-120004780D01*
X107783600Y-120804780D02*
X107783600Y-120004780D01*
X113153600Y-121604780D02*
X113153600Y-120804780D01*
X107773600Y-121604780D02*
X113153600Y-121604780D01*
X107783600Y-120804780D02*
X107783600Y-121604780D01*
D11*
X102183600Y-119554780D02*
X102183600Y-122054780D01*
X119193600Y-119554780D02*
X102193600Y-119554780D01*
X119183600Y-119554780D02*
X119183600Y-122054780D01*
X119193600Y-122054780D02*
X102193600Y-122054780D01*
D10*
X110153600Y-120804780D02*
X111153600Y-120104780D01*
X111153600Y-121504780D02*
X110153600Y-120804780D01*
X111153600Y-120104780D02*
X111153600Y-121504780D01*
X111583600Y-120804780D02*
X111153600Y-120804780D01*
X110153600Y-120804780D02*
X109583600Y-120804780D01*
X110153600Y-120804780D02*
X110153600Y-120204780D01*
X110153600Y-120804780D02*
X110153600Y-121404780D01*
%TO.C,DO-12*%
X164768600Y-103914780D02*
X164768600Y-104714780D01*
X159388600Y-103914780D02*
X164768600Y-103914780D01*
X159398600Y-104714780D02*
X159398600Y-103914780D01*
X164768600Y-105514780D02*
X164768600Y-104714780D01*
X159388600Y-105514780D02*
X164768600Y-105514780D01*
X159398600Y-104714780D02*
X159398600Y-105514780D01*
D11*
X153798600Y-103464780D02*
X153798600Y-105964780D01*
X170808600Y-103464780D02*
X153808600Y-103464780D01*
X170798600Y-103464780D02*
X170798600Y-105964780D01*
X170808600Y-105964780D02*
X153808600Y-105964780D01*
D10*
X161768600Y-104714780D02*
X162768600Y-104014780D01*
X162768600Y-105414780D02*
X161768600Y-104714780D01*
X162768600Y-104014780D02*
X162768600Y-105414780D01*
X163198600Y-104714780D02*
X162768600Y-104714780D01*
X161768600Y-104714780D02*
X161198600Y-104714780D01*
X161768600Y-104714780D02*
X161768600Y-104114780D01*
X161768600Y-104714780D02*
X161768600Y-105314780D01*
%TO.C,DO-11*%
X147563600Y-103914780D02*
X147563600Y-104714780D01*
X142183600Y-103914780D02*
X147563600Y-103914780D01*
X142193600Y-104714780D02*
X142193600Y-103914780D01*
X147563600Y-105514780D02*
X147563600Y-104714780D01*
X142183600Y-105514780D02*
X147563600Y-105514780D01*
X142193600Y-104714780D02*
X142193600Y-105514780D01*
D11*
X136593600Y-103464780D02*
X136593600Y-105964780D01*
X153603600Y-103464780D02*
X136603600Y-103464780D01*
X153593600Y-103464780D02*
X153593600Y-105964780D01*
X153603600Y-105964780D02*
X136603600Y-105964780D01*
D10*
X144563600Y-104714780D02*
X145563600Y-104014780D01*
X145563600Y-105414780D02*
X144563600Y-104714780D01*
X145563600Y-104014780D02*
X145563600Y-105414780D01*
X145993600Y-104714780D02*
X145563600Y-104714780D01*
X144563600Y-104714780D02*
X143993600Y-104714780D01*
X144563600Y-104714780D02*
X144563600Y-104114780D01*
X144563600Y-104714780D02*
X144563600Y-105314780D01*
%TO.C,DO-10*%
X130358600Y-103914780D02*
X130358600Y-104714780D01*
X124978600Y-103914780D02*
X130358600Y-103914780D01*
X124988600Y-104714780D02*
X124988600Y-103914780D01*
X130358600Y-105514780D02*
X130358600Y-104714780D01*
X124978600Y-105514780D02*
X130358600Y-105514780D01*
X124988600Y-104714780D02*
X124988600Y-105514780D01*
D11*
X119388600Y-103464780D02*
X119388600Y-105964780D01*
X136398600Y-103464780D02*
X119398600Y-103464780D01*
X136388600Y-103464780D02*
X136388600Y-105964780D01*
X136398600Y-105964780D02*
X119398600Y-105964780D01*
D10*
X127358600Y-104714780D02*
X128358600Y-104014780D01*
X128358600Y-105414780D02*
X127358600Y-104714780D01*
X128358600Y-104014780D02*
X128358600Y-105414780D01*
X128788600Y-104714780D02*
X128358600Y-104714780D01*
X127358600Y-104714780D02*
X126788600Y-104714780D01*
X127358600Y-104714780D02*
X127358600Y-104114780D01*
X127358600Y-104714780D02*
X127358600Y-105314780D01*
%TO.C,DO-9*%
X113153600Y-103914780D02*
X113153600Y-104714780D01*
X107773600Y-103914780D02*
X113153600Y-103914780D01*
X107783600Y-104714780D02*
X107783600Y-103914780D01*
X113153600Y-105514780D02*
X113153600Y-104714780D01*
X107773600Y-105514780D02*
X113153600Y-105514780D01*
X107783600Y-104714780D02*
X107783600Y-105514780D01*
D11*
X102183600Y-103464780D02*
X102183600Y-105964780D01*
X119193600Y-103464780D02*
X102193600Y-103464780D01*
X119183600Y-103464780D02*
X119183600Y-105964780D01*
X119193600Y-105964780D02*
X102193600Y-105964780D01*
D10*
X110153600Y-104714780D02*
X111153600Y-104014780D01*
X111153600Y-105414780D02*
X110153600Y-104714780D01*
X111153600Y-104014780D02*
X111153600Y-105414780D01*
X111583600Y-104714780D02*
X111153600Y-104714780D01*
X110153600Y-104714780D02*
X109583600Y-104714780D01*
X110153600Y-104714780D02*
X110153600Y-104114780D01*
X110153600Y-104714780D02*
X110153600Y-105314780D01*
%TO.C,DO-8*%
X164768600Y-87824780D02*
X164768600Y-88624780D01*
X159388600Y-87824780D02*
X164768600Y-87824780D01*
X159398600Y-88624780D02*
X159398600Y-87824780D01*
X164768600Y-89424780D02*
X164768600Y-88624780D01*
X159388600Y-89424780D02*
X164768600Y-89424780D01*
X159398600Y-88624780D02*
X159398600Y-89424780D01*
D11*
X153798600Y-87374780D02*
X153798600Y-89874780D01*
X170808600Y-87374780D02*
X153808600Y-87374780D01*
X170798600Y-87374780D02*
X170798600Y-89874780D01*
X170808600Y-89874780D02*
X153808600Y-89874780D01*
D10*
X161768600Y-88624780D02*
X162768600Y-87924780D01*
X162768600Y-89324780D02*
X161768600Y-88624780D01*
X162768600Y-87924780D02*
X162768600Y-89324780D01*
X163198600Y-88624780D02*
X162768600Y-88624780D01*
X161768600Y-88624780D02*
X161198600Y-88624780D01*
X161768600Y-88624780D02*
X161768600Y-88024780D01*
X161768600Y-88624780D02*
X161768600Y-89224780D01*
%TO.C,DO-7*%
X147563600Y-87824780D02*
X147563600Y-88624780D01*
X142183600Y-87824780D02*
X147563600Y-87824780D01*
X142193600Y-88624780D02*
X142193600Y-87824780D01*
X147563600Y-89424780D02*
X147563600Y-88624780D01*
X142183600Y-89424780D02*
X147563600Y-89424780D01*
X142193600Y-88624780D02*
X142193600Y-89424780D01*
D11*
X136593600Y-87374780D02*
X136593600Y-89874780D01*
X153603600Y-87374780D02*
X136603600Y-87374780D01*
X153593600Y-87374780D02*
X153593600Y-89874780D01*
X153603600Y-89874780D02*
X136603600Y-89874780D01*
D10*
X144563600Y-88624780D02*
X145563600Y-87924780D01*
X145563600Y-89324780D02*
X144563600Y-88624780D01*
X145563600Y-87924780D02*
X145563600Y-89324780D01*
X145993600Y-88624780D02*
X145563600Y-88624780D01*
X144563600Y-88624780D02*
X143993600Y-88624780D01*
X144563600Y-88624780D02*
X144563600Y-88024780D01*
X144563600Y-88624780D02*
X144563600Y-89224780D01*
%TO.C,DO-6*%
X130358600Y-87824780D02*
X130358600Y-88624780D01*
X124978600Y-87824780D02*
X130358600Y-87824780D01*
X124988600Y-88624780D02*
X124988600Y-87824780D01*
X130358600Y-89424780D02*
X130358600Y-88624780D01*
X124978600Y-89424780D02*
X130358600Y-89424780D01*
X124988600Y-88624780D02*
X124988600Y-89424780D01*
D11*
X119388600Y-87374780D02*
X119388600Y-89874780D01*
X136398600Y-87374780D02*
X119398600Y-87374780D01*
X136388600Y-87374780D02*
X136388600Y-89874780D01*
X136398600Y-89874780D02*
X119398600Y-89874780D01*
D10*
X127358600Y-88624780D02*
X128358600Y-87924780D01*
X128358600Y-89324780D02*
X127358600Y-88624780D01*
X128358600Y-87924780D02*
X128358600Y-89324780D01*
X128788600Y-88624780D02*
X128358600Y-88624780D01*
X127358600Y-88624780D02*
X126788600Y-88624780D01*
X127358600Y-88624780D02*
X127358600Y-88024780D01*
X127358600Y-88624780D02*
X127358600Y-89224780D01*
%TO.C,DO-5*%
X113153600Y-87824780D02*
X113153600Y-88624780D01*
X107773600Y-87824780D02*
X113153600Y-87824780D01*
X107783600Y-88624780D02*
X107783600Y-87824780D01*
X113153600Y-89424780D02*
X113153600Y-88624780D01*
X107773600Y-89424780D02*
X113153600Y-89424780D01*
X107783600Y-88624780D02*
X107783600Y-89424780D01*
D11*
X102183600Y-87374780D02*
X102183600Y-89874780D01*
X119193600Y-87374780D02*
X102193600Y-87374780D01*
X119183600Y-87374780D02*
X119183600Y-89874780D01*
X119193600Y-89874780D02*
X102193600Y-89874780D01*
D10*
X110153600Y-88624780D02*
X111153600Y-87924780D01*
X111153600Y-89324780D02*
X110153600Y-88624780D01*
X111153600Y-87924780D02*
X111153600Y-89324780D01*
X111583600Y-88624780D02*
X111153600Y-88624780D01*
X110153600Y-88624780D02*
X109583600Y-88624780D01*
X110153600Y-88624780D02*
X110153600Y-88024780D01*
X110153600Y-88624780D02*
X110153600Y-89224780D01*
%TO.C,DO-4*%
X164768600Y-71734780D02*
X164768600Y-72534780D01*
X159388600Y-71734780D02*
X164768600Y-71734780D01*
X159398600Y-72534780D02*
X159398600Y-71734780D01*
X164768600Y-73334780D02*
X164768600Y-72534780D01*
X159388600Y-73334780D02*
X164768600Y-73334780D01*
X159398600Y-72534780D02*
X159398600Y-73334780D01*
D11*
X153798600Y-71284780D02*
X153798600Y-73784780D01*
X170808600Y-71284780D02*
X153808600Y-71284780D01*
X170798600Y-71284780D02*
X170798600Y-73784780D01*
X170808600Y-73784780D02*
X153808600Y-73784780D01*
D10*
X161768600Y-72534780D02*
X162768600Y-71834780D01*
X162768600Y-73234780D02*
X161768600Y-72534780D01*
X162768600Y-71834780D02*
X162768600Y-73234780D01*
X163198600Y-72534780D02*
X162768600Y-72534780D01*
X161768600Y-72534780D02*
X161198600Y-72534780D01*
X161768600Y-72534780D02*
X161768600Y-71934780D01*
X161768600Y-72534780D02*
X161768600Y-73134780D01*
%TO.C,DO-3*%
X147563600Y-71734780D02*
X147563600Y-72534780D01*
X142183600Y-71734780D02*
X147563600Y-71734780D01*
X142193600Y-72534780D02*
X142193600Y-71734780D01*
X147563600Y-73334780D02*
X147563600Y-72534780D01*
X142183600Y-73334780D02*
X147563600Y-73334780D01*
X142193600Y-72534780D02*
X142193600Y-73334780D01*
D11*
X136593600Y-71284780D02*
X136593600Y-73784780D01*
X153603600Y-71284780D02*
X136603600Y-71284780D01*
X153593600Y-71284780D02*
X153593600Y-73784780D01*
X153603600Y-73784780D02*
X136603600Y-73784780D01*
D10*
X144563600Y-72534780D02*
X145563600Y-71834780D01*
X145563600Y-73234780D02*
X144563600Y-72534780D01*
X145563600Y-71834780D02*
X145563600Y-73234780D01*
X145993600Y-72534780D02*
X145563600Y-72534780D01*
X144563600Y-72534780D02*
X143993600Y-72534780D01*
X144563600Y-72534780D02*
X144563600Y-71934780D01*
X144563600Y-72534780D02*
X144563600Y-73134780D01*
%TO.C,DO-2*%
X130358600Y-71734780D02*
X130358600Y-72534780D01*
X124978600Y-71734780D02*
X130358600Y-71734780D01*
X124988600Y-72534780D02*
X124988600Y-71734780D01*
X130358600Y-73334780D02*
X130358600Y-72534780D01*
X124978600Y-73334780D02*
X130358600Y-73334780D01*
X124988600Y-72534780D02*
X124988600Y-73334780D01*
D11*
X119388600Y-71284780D02*
X119388600Y-73784780D01*
X136398600Y-71284780D02*
X119398600Y-71284780D01*
X136388600Y-71284780D02*
X136388600Y-73784780D01*
X136398600Y-73784780D02*
X119398600Y-73784780D01*
D10*
X127358600Y-72534780D02*
X128358600Y-71834780D01*
X128358600Y-73234780D02*
X127358600Y-72534780D01*
X128358600Y-71834780D02*
X128358600Y-73234780D01*
X128788600Y-72534780D02*
X128358600Y-72534780D01*
X127358600Y-72534780D02*
X126788600Y-72534780D01*
X127358600Y-72534780D02*
X127358600Y-71934780D01*
X127358600Y-72534780D02*
X127358600Y-73134780D01*
%TO.C,DO-1*%
X110153600Y-72534780D02*
X110153600Y-73134780D01*
X110153600Y-72534780D02*
X110153600Y-71934780D01*
X110153600Y-72534780D02*
X109583600Y-72534780D01*
X111583600Y-72534780D02*
X111153600Y-72534780D01*
X111153600Y-71834780D02*
X111153600Y-73234780D01*
X111153600Y-73234780D02*
X110153600Y-72534780D01*
X110153600Y-72534780D02*
X111153600Y-71834780D01*
D11*
X119193600Y-73784780D02*
X102193600Y-73784780D01*
X119183600Y-71284780D02*
X119183600Y-73784780D01*
X119193600Y-71284780D02*
X102193600Y-71284780D01*
X102183600Y-71284780D02*
X102183600Y-73784780D01*
D10*
X107783600Y-72534780D02*
X107783600Y-73334780D01*
X107773600Y-73334780D02*
X113153600Y-73334780D01*
X113153600Y-73334780D02*
X113153600Y-72534780D01*
X107783600Y-72534780D02*
X107783600Y-71734780D01*
X107773600Y-71734780D02*
X113153600Y-71734780D01*
X113153600Y-71734780D02*
X113153600Y-72534780D01*
%TO.C,ST-ROW-1*%
D12*
X179812581Y-123762949D02*
X179860200Y-123905806D01*
X179860200Y-124143901D01*
X179812581Y-124239140D01*
X179764962Y-124286759D01*
X179669724Y-124334378D01*
X179574486Y-124334378D01*
X179479248Y-124286759D01*
X179431629Y-124239140D01*
X179384010Y-124143901D01*
X179336391Y-123953425D01*
X179288772Y-123858187D01*
X179241153Y-123810568D01*
X179145915Y-123762949D01*
X179050677Y-123762949D01*
X178955439Y-123810568D01*
X178907820Y-123858187D01*
X178860200Y-123953425D01*
X178860200Y-124191520D01*
X178907820Y-124334378D01*
X178860200Y-124620092D02*
X178860200Y-125191520D01*
X179860200Y-124905806D02*
X178860200Y-124905806D01*
X179479248Y-125524854D02*
X179479248Y-126286759D01*
X179860200Y-127334378D02*
X179384010Y-127001044D01*
X179860200Y-126762949D02*
X178860200Y-126762949D01*
X178860200Y-127143901D01*
X178907820Y-127239140D01*
X178955439Y-127286759D01*
X179050677Y-127334378D01*
X179193534Y-127334378D01*
X179288772Y-127286759D01*
X179336391Y-127239140D01*
X179384010Y-127143901D01*
X179384010Y-126762949D01*
X178860200Y-127953425D02*
X178860200Y-128143901D01*
X178907820Y-128239140D01*
X179003058Y-128334378D01*
X179193534Y-128381997D01*
X179526867Y-128381997D01*
X179717343Y-128334378D01*
X179812581Y-128239140D01*
X179860200Y-128143901D01*
X179860200Y-127953425D01*
X179812581Y-127858187D01*
X179717343Y-127762949D01*
X179526867Y-127715330D01*
X179193534Y-127715330D01*
X179003058Y-127762949D01*
X178907820Y-127858187D01*
X178860200Y-127953425D01*
X178860200Y-128715330D02*
X179860200Y-128953425D01*
X179145915Y-129143901D01*
X179860200Y-129334378D01*
X178860200Y-129572473D01*
X179479248Y-129953425D02*
X179479248Y-130715330D01*
X179860200Y-131715330D02*
X179860200Y-131143901D01*
X179860200Y-131429616D02*
X178860200Y-131429616D01*
X179003058Y-131334378D01*
X179098296Y-131239140D01*
X179145915Y-131143901D01*
%TO.C,ST-COL-1*%
X179990381Y-76248736D02*
X180038000Y-76391593D01*
X180038000Y-76629688D01*
X179990381Y-76724926D01*
X179942762Y-76772545D01*
X179847524Y-76820164D01*
X179752286Y-76820164D01*
X179657048Y-76772545D01*
X179609429Y-76724926D01*
X179561810Y-76629688D01*
X179514191Y-76439212D01*
X179466572Y-76343974D01*
X179418953Y-76296355D01*
X179323715Y-76248736D01*
X179228477Y-76248736D01*
X179133239Y-76296355D01*
X179085620Y-76343974D01*
X179038000Y-76439212D01*
X179038000Y-76677307D01*
X179085620Y-76820164D01*
X179038000Y-77105879D02*
X179038000Y-77677307D01*
X180038000Y-77391593D02*
X179038000Y-77391593D01*
X179657048Y-78010640D02*
X179657048Y-78772545D01*
X179942762Y-79820164D02*
X179990381Y-79772545D01*
X180038000Y-79629688D01*
X180038000Y-79534450D01*
X179990381Y-79391593D01*
X179895143Y-79296355D01*
X179799905Y-79248736D01*
X179609429Y-79201117D01*
X179466572Y-79201117D01*
X179276096Y-79248736D01*
X179180858Y-79296355D01*
X179085620Y-79391593D01*
X179038000Y-79534450D01*
X179038000Y-79629688D01*
X179085620Y-79772545D01*
X179133239Y-79820164D01*
X179038000Y-80439212D02*
X179038000Y-80629688D01*
X179085620Y-80724926D01*
X179180858Y-80820164D01*
X179371334Y-80867783D01*
X179704667Y-80867783D01*
X179895143Y-80820164D01*
X179990381Y-80724926D01*
X180038000Y-80629688D01*
X180038000Y-80439212D01*
X179990381Y-80343974D01*
X179895143Y-80248736D01*
X179704667Y-80201117D01*
X179371334Y-80201117D01*
X179180858Y-80248736D01*
X179085620Y-80343974D01*
X179038000Y-80439212D01*
X180038000Y-81772545D02*
X180038000Y-81296355D01*
X179038000Y-81296355D01*
X179657048Y-82105879D02*
X179657048Y-82867783D01*
X180038000Y-83867783D02*
X180038000Y-83296355D01*
X180038000Y-83582069D02*
X179038000Y-83582069D01*
X179180858Y-83486831D01*
X179276096Y-83391593D01*
X179323715Y-83296355D01*
%TO.C,DO-20*%
X164055742Y-134807160D02*
X164055742Y-133807160D01*
X163817647Y-133807160D01*
X163674790Y-133854780D01*
X163579552Y-133950018D01*
X163531933Y-134045256D01*
X163484314Y-134235732D01*
X163484314Y-134378589D01*
X163531933Y-134569065D01*
X163579552Y-134664303D01*
X163674790Y-134759541D01*
X163817647Y-134807160D01*
X164055742Y-134807160D01*
X162865266Y-133807160D02*
X162674790Y-133807160D01*
X162579552Y-133854780D01*
X162484314Y-133950018D01*
X162436695Y-134140494D01*
X162436695Y-134473827D01*
X162484314Y-134664303D01*
X162579552Y-134759541D01*
X162674790Y-134807160D01*
X162865266Y-134807160D01*
X162960504Y-134759541D01*
X163055742Y-134664303D01*
X163103361Y-134473827D01*
X163103361Y-134140494D01*
X163055742Y-133950018D01*
X162960504Y-133854780D01*
X162865266Y-133807160D01*
X162008123Y-134426208D02*
X161246219Y-134426208D01*
X160817647Y-133902399D02*
X160770028Y-133854780D01*
X160674790Y-133807160D01*
X160436695Y-133807160D01*
X160341457Y-133854780D01*
X160293838Y-133902399D01*
X160246219Y-133997637D01*
X160246219Y-134092875D01*
X160293838Y-134235732D01*
X160865266Y-134807160D01*
X160246219Y-134807160D01*
X159627171Y-133807160D02*
X159531933Y-133807160D01*
X159436695Y-133854780D01*
X159389076Y-133902399D01*
X159341457Y-133997637D01*
X159293838Y-134188113D01*
X159293838Y-134426208D01*
X159341457Y-134616684D01*
X159389076Y-134711922D01*
X159436695Y-134759541D01*
X159531933Y-134807160D01*
X159627171Y-134807160D01*
X159722409Y-134759541D01*
X159770028Y-134711922D01*
X159817647Y-134616684D01*
X159865266Y-134426208D01*
X159865266Y-134188113D01*
X159817647Y-133997637D01*
X159770028Y-133902399D01*
X159722409Y-133854780D01*
X159627171Y-133807160D01*
%TO.C,DO-19*%
X146850742Y-134807160D02*
X146850742Y-133807160D01*
X146612647Y-133807160D01*
X146469790Y-133854780D01*
X146374552Y-133950018D01*
X146326933Y-134045256D01*
X146279314Y-134235732D01*
X146279314Y-134378589D01*
X146326933Y-134569065D01*
X146374552Y-134664303D01*
X146469790Y-134759541D01*
X146612647Y-134807160D01*
X146850742Y-134807160D01*
X145660266Y-133807160D02*
X145469790Y-133807160D01*
X145374552Y-133854780D01*
X145279314Y-133950018D01*
X145231695Y-134140494D01*
X145231695Y-134473827D01*
X145279314Y-134664303D01*
X145374552Y-134759541D01*
X145469790Y-134807160D01*
X145660266Y-134807160D01*
X145755504Y-134759541D01*
X145850742Y-134664303D01*
X145898361Y-134473827D01*
X145898361Y-134140494D01*
X145850742Y-133950018D01*
X145755504Y-133854780D01*
X145660266Y-133807160D01*
X144803123Y-134426208D02*
X144041219Y-134426208D01*
X143041219Y-134807160D02*
X143612647Y-134807160D01*
X143326933Y-134807160D02*
X143326933Y-133807160D01*
X143422171Y-133950018D01*
X143517409Y-134045256D01*
X143612647Y-134092875D01*
X142565028Y-134807160D02*
X142374552Y-134807160D01*
X142279314Y-134759541D01*
X142231695Y-134711922D01*
X142136457Y-134569065D01*
X142088838Y-134378589D01*
X142088838Y-133997637D01*
X142136457Y-133902399D01*
X142184076Y-133854780D01*
X142279314Y-133807160D01*
X142469790Y-133807160D01*
X142565028Y-133854780D01*
X142612647Y-133902399D01*
X142660266Y-133997637D01*
X142660266Y-134235732D01*
X142612647Y-134330970D01*
X142565028Y-134378589D01*
X142469790Y-134426208D01*
X142279314Y-134426208D01*
X142184076Y-134378589D01*
X142136457Y-134330970D01*
X142088838Y-134235732D01*
%TO.C,DO-18*%
X129645742Y-134807160D02*
X129645742Y-133807160D01*
X129407647Y-133807160D01*
X129264790Y-133854780D01*
X129169552Y-133950018D01*
X129121933Y-134045256D01*
X129074314Y-134235732D01*
X129074314Y-134378589D01*
X129121933Y-134569065D01*
X129169552Y-134664303D01*
X129264790Y-134759541D01*
X129407647Y-134807160D01*
X129645742Y-134807160D01*
X128455266Y-133807160D02*
X128264790Y-133807160D01*
X128169552Y-133854780D01*
X128074314Y-133950018D01*
X128026695Y-134140494D01*
X128026695Y-134473827D01*
X128074314Y-134664303D01*
X128169552Y-134759541D01*
X128264790Y-134807160D01*
X128455266Y-134807160D01*
X128550504Y-134759541D01*
X128645742Y-134664303D01*
X128693361Y-134473827D01*
X128693361Y-134140494D01*
X128645742Y-133950018D01*
X128550504Y-133854780D01*
X128455266Y-133807160D01*
X127598123Y-134426208D02*
X126836219Y-134426208D01*
X125836219Y-134807160D02*
X126407647Y-134807160D01*
X126121933Y-134807160D02*
X126121933Y-133807160D01*
X126217171Y-133950018D01*
X126312409Y-134045256D01*
X126407647Y-134092875D01*
X125264790Y-134235732D02*
X125360028Y-134188113D01*
X125407647Y-134140494D01*
X125455266Y-134045256D01*
X125455266Y-133997637D01*
X125407647Y-133902399D01*
X125360028Y-133854780D01*
X125264790Y-133807160D01*
X125074314Y-133807160D01*
X124979076Y-133854780D01*
X124931457Y-133902399D01*
X124883838Y-133997637D01*
X124883838Y-134045256D01*
X124931457Y-134140494D01*
X124979076Y-134188113D01*
X125074314Y-134235732D01*
X125264790Y-134235732D01*
X125360028Y-134283351D01*
X125407647Y-134330970D01*
X125455266Y-134426208D01*
X125455266Y-134616684D01*
X125407647Y-134711922D01*
X125360028Y-134759541D01*
X125264790Y-134807160D01*
X125074314Y-134807160D01*
X124979076Y-134759541D01*
X124931457Y-134711922D01*
X124883838Y-134616684D01*
X124883838Y-134426208D01*
X124931457Y-134330970D01*
X124979076Y-134283351D01*
X125074314Y-134235732D01*
%TO.C,DO-17*%
X112440742Y-134807160D02*
X112440742Y-133807160D01*
X112202647Y-133807160D01*
X112059790Y-133854780D01*
X111964552Y-133950018D01*
X111916933Y-134045256D01*
X111869314Y-134235732D01*
X111869314Y-134378589D01*
X111916933Y-134569065D01*
X111964552Y-134664303D01*
X112059790Y-134759541D01*
X112202647Y-134807160D01*
X112440742Y-134807160D01*
X111250266Y-133807160D02*
X111059790Y-133807160D01*
X110964552Y-133854780D01*
X110869314Y-133950018D01*
X110821695Y-134140494D01*
X110821695Y-134473827D01*
X110869314Y-134664303D01*
X110964552Y-134759541D01*
X111059790Y-134807160D01*
X111250266Y-134807160D01*
X111345504Y-134759541D01*
X111440742Y-134664303D01*
X111488361Y-134473827D01*
X111488361Y-134140494D01*
X111440742Y-133950018D01*
X111345504Y-133854780D01*
X111250266Y-133807160D01*
X110393123Y-134426208D02*
X109631219Y-134426208D01*
X108631219Y-134807160D02*
X109202647Y-134807160D01*
X108916933Y-134807160D02*
X108916933Y-133807160D01*
X109012171Y-133950018D01*
X109107409Y-134045256D01*
X109202647Y-134092875D01*
X108297885Y-133807160D02*
X107631219Y-133807160D01*
X108059790Y-134807160D01*
%TO.C,DO-16*%
X164055742Y-118717160D02*
X164055742Y-117717160D01*
X163817647Y-117717160D01*
X163674790Y-117764780D01*
X163579552Y-117860018D01*
X163531933Y-117955256D01*
X163484314Y-118145732D01*
X163484314Y-118288589D01*
X163531933Y-118479065D01*
X163579552Y-118574303D01*
X163674790Y-118669541D01*
X163817647Y-118717160D01*
X164055742Y-118717160D01*
X162865266Y-117717160D02*
X162674790Y-117717160D01*
X162579552Y-117764780D01*
X162484314Y-117860018D01*
X162436695Y-118050494D01*
X162436695Y-118383827D01*
X162484314Y-118574303D01*
X162579552Y-118669541D01*
X162674790Y-118717160D01*
X162865266Y-118717160D01*
X162960504Y-118669541D01*
X163055742Y-118574303D01*
X163103361Y-118383827D01*
X163103361Y-118050494D01*
X163055742Y-117860018D01*
X162960504Y-117764780D01*
X162865266Y-117717160D01*
X162008123Y-118336208D02*
X161246219Y-118336208D01*
X160246219Y-118717160D02*
X160817647Y-118717160D01*
X160531933Y-118717160D02*
X160531933Y-117717160D01*
X160627171Y-117860018D01*
X160722409Y-117955256D01*
X160817647Y-118002875D01*
X159389076Y-117717160D02*
X159579552Y-117717160D01*
X159674790Y-117764780D01*
X159722409Y-117812399D01*
X159817647Y-117955256D01*
X159865266Y-118145732D01*
X159865266Y-118526684D01*
X159817647Y-118621922D01*
X159770028Y-118669541D01*
X159674790Y-118717160D01*
X159484314Y-118717160D01*
X159389076Y-118669541D01*
X159341457Y-118621922D01*
X159293838Y-118526684D01*
X159293838Y-118288589D01*
X159341457Y-118193351D01*
X159389076Y-118145732D01*
X159484314Y-118098113D01*
X159674790Y-118098113D01*
X159770028Y-118145732D01*
X159817647Y-118193351D01*
X159865266Y-118288589D01*
%TO.C,DO-15*%
X146850742Y-118717160D02*
X146850742Y-117717160D01*
X146612647Y-117717160D01*
X146469790Y-117764780D01*
X146374552Y-117860018D01*
X146326933Y-117955256D01*
X146279314Y-118145732D01*
X146279314Y-118288589D01*
X146326933Y-118479065D01*
X146374552Y-118574303D01*
X146469790Y-118669541D01*
X146612647Y-118717160D01*
X146850742Y-118717160D01*
X145660266Y-117717160D02*
X145469790Y-117717160D01*
X145374552Y-117764780D01*
X145279314Y-117860018D01*
X145231695Y-118050494D01*
X145231695Y-118383827D01*
X145279314Y-118574303D01*
X145374552Y-118669541D01*
X145469790Y-118717160D01*
X145660266Y-118717160D01*
X145755504Y-118669541D01*
X145850742Y-118574303D01*
X145898361Y-118383827D01*
X145898361Y-118050494D01*
X145850742Y-117860018D01*
X145755504Y-117764780D01*
X145660266Y-117717160D01*
X144803123Y-118336208D02*
X144041219Y-118336208D01*
X143041219Y-118717160D02*
X143612647Y-118717160D01*
X143326933Y-118717160D02*
X143326933Y-117717160D01*
X143422171Y-117860018D01*
X143517409Y-117955256D01*
X143612647Y-118002875D01*
X142136457Y-117717160D02*
X142612647Y-117717160D01*
X142660266Y-118193351D01*
X142612647Y-118145732D01*
X142517409Y-118098113D01*
X142279314Y-118098113D01*
X142184076Y-118145732D01*
X142136457Y-118193351D01*
X142088838Y-118288589D01*
X142088838Y-118526684D01*
X142136457Y-118621922D01*
X142184076Y-118669541D01*
X142279314Y-118717160D01*
X142517409Y-118717160D01*
X142612647Y-118669541D01*
X142660266Y-118621922D01*
%TO.C,DO-14*%
X129645742Y-118717160D02*
X129645742Y-117717160D01*
X129407647Y-117717160D01*
X129264790Y-117764780D01*
X129169552Y-117860018D01*
X129121933Y-117955256D01*
X129074314Y-118145732D01*
X129074314Y-118288589D01*
X129121933Y-118479065D01*
X129169552Y-118574303D01*
X129264790Y-118669541D01*
X129407647Y-118717160D01*
X129645742Y-118717160D01*
X128455266Y-117717160D02*
X128264790Y-117717160D01*
X128169552Y-117764780D01*
X128074314Y-117860018D01*
X128026695Y-118050494D01*
X128026695Y-118383827D01*
X128074314Y-118574303D01*
X128169552Y-118669541D01*
X128264790Y-118717160D01*
X128455266Y-118717160D01*
X128550504Y-118669541D01*
X128645742Y-118574303D01*
X128693361Y-118383827D01*
X128693361Y-118050494D01*
X128645742Y-117860018D01*
X128550504Y-117764780D01*
X128455266Y-117717160D01*
X127598123Y-118336208D02*
X126836219Y-118336208D01*
X125836219Y-118717160D02*
X126407647Y-118717160D01*
X126121933Y-118717160D02*
X126121933Y-117717160D01*
X126217171Y-117860018D01*
X126312409Y-117955256D01*
X126407647Y-118002875D01*
X124979076Y-118050494D02*
X124979076Y-118717160D01*
X125217171Y-117669541D02*
X125455266Y-118383827D01*
X124836219Y-118383827D01*
%TO.C,DO-13*%
X112440742Y-118717160D02*
X112440742Y-117717160D01*
X112202647Y-117717160D01*
X112059790Y-117764780D01*
X111964552Y-117860018D01*
X111916933Y-117955256D01*
X111869314Y-118145732D01*
X111869314Y-118288589D01*
X111916933Y-118479065D01*
X111964552Y-118574303D01*
X112059790Y-118669541D01*
X112202647Y-118717160D01*
X112440742Y-118717160D01*
X111250266Y-117717160D02*
X111059790Y-117717160D01*
X110964552Y-117764780D01*
X110869314Y-117860018D01*
X110821695Y-118050494D01*
X110821695Y-118383827D01*
X110869314Y-118574303D01*
X110964552Y-118669541D01*
X111059790Y-118717160D01*
X111250266Y-118717160D01*
X111345504Y-118669541D01*
X111440742Y-118574303D01*
X111488361Y-118383827D01*
X111488361Y-118050494D01*
X111440742Y-117860018D01*
X111345504Y-117764780D01*
X111250266Y-117717160D01*
X110393123Y-118336208D02*
X109631219Y-118336208D01*
X108631219Y-118717160D02*
X109202647Y-118717160D01*
X108916933Y-118717160D02*
X108916933Y-117717160D01*
X109012171Y-117860018D01*
X109107409Y-117955256D01*
X109202647Y-118002875D01*
X108297885Y-117717160D02*
X107678838Y-117717160D01*
X108012171Y-118098113D01*
X107869314Y-118098113D01*
X107774076Y-118145732D01*
X107726457Y-118193351D01*
X107678838Y-118288589D01*
X107678838Y-118526684D01*
X107726457Y-118621922D01*
X107774076Y-118669541D01*
X107869314Y-118717160D01*
X108155028Y-118717160D01*
X108250266Y-118669541D01*
X108297885Y-118621922D01*
%TO.C,DO-12*%
X164055742Y-102627160D02*
X164055742Y-101627160D01*
X163817647Y-101627160D01*
X163674790Y-101674780D01*
X163579552Y-101770018D01*
X163531933Y-101865256D01*
X163484314Y-102055732D01*
X163484314Y-102198589D01*
X163531933Y-102389065D01*
X163579552Y-102484303D01*
X163674790Y-102579541D01*
X163817647Y-102627160D01*
X164055742Y-102627160D01*
X162865266Y-101627160D02*
X162674790Y-101627160D01*
X162579552Y-101674780D01*
X162484314Y-101770018D01*
X162436695Y-101960494D01*
X162436695Y-102293827D01*
X162484314Y-102484303D01*
X162579552Y-102579541D01*
X162674790Y-102627160D01*
X162865266Y-102627160D01*
X162960504Y-102579541D01*
X163055742Y-102484303D01*
X163103361Y-102293827D01*
X163103361Y-101960494D01*
X163055742Y-101770018D01*
X162960504Y-101674780D01*
X162865266Y-101627160D01*
X162008123Y-102246208D02*
X161246219Y-102246208D01*
X160246219Y-102627160D02*
X160817647Y-102627160D01*
X160531933Y-102627160D02*
X160531933Y-101627160D01*
X160627171Y-101770018D01*
X160722409Y-101865256D01*
X160817647Y-101912875D01*
X159865266Y-101722399D02*
X159817647Y-101674780D01*
X159722409Y-101627160D01*
X159484314Y-101627160D01*
X159389076Y-101674780D01*
X159341457Y-101722399D01*
X159293838Y-101817637D01*
X159293838Y-101912875D01*
X159341457Y-102055732D01*
X159912885Y-102627160D01*
X159293838Y-102627160D01*
%TO.C,DO-11*%
X146850742Y-102627160D02*
X146850742Y-101627160D01*
X146612647Y-101627160D01*
X146469790Y-101674780D01*
X146374552Y-101770018D01*
X146326933Y-101865256D01*
X146279314Y-102055732D01*
X146279314Y-102198589D01*
X146326933Y-102389065D01*
X146374552Y-102484303D01*
X146469790Y-102579541D01*
X146612647Y-102627160D01*
X146850742Y-102627160D01*
X145660266Y-101627160D02*
X145469790Y-101627160D01*
X145374552Y-101674780D01*
X145279314Y-101770018D01*
X145231695Y-101960494D01*
X145231695Y-102293827D01*
X145279314Y-102484303D01*
X145374552Y-102579541D01*
X145469790Y-102627160D01*
X145660266Y-102627160D01*
X145755504Y-102579541D01*
X145850742Y-102484303D01*
X145898361Y-102293827D01*
X145898361Y-101960494D01*
X145850742Y-101770018D01*
X145755504Y-101674780D01*
X145660266Y-101627160D01*
X144803123Y-102246208D02*
X144041219Y-102246208D01*
X143041219Y-102627160D02*
X143612647Y-102627160D01*
X143326933Y-102627160D02*
X143326933Y-101627160D01*
X143422171Y-101770018D01*
X143517409Y-101865256D01*
X143612647Y-101912875D01*
X142088838Y-102627160D02*
X142660266Y-102627160D01*
X142374552Y-102627160D02*
X142374552Y-101627160D01*
X142469790Y-101770018D01*
X142565028Y-101865256D01*
X142660266Y-101912875D01*
%TO.C,DO-10*%
X129645742Y-102627160D02*
X129645742Y-101627160D01*
X129407647Y-101627160D01*
X129264790Y-101674780D01*
X129169552Y-101770018D01*
X129121933Y-101865256D01*
X129074314Y-102055732D01*
X129074314Y-102198589D01*
X129121933Y-102389065D01*
X129169552Y-102484303D01*
X129264790Y-102579541D01*
X129407647Y-102627160D01*
X129645742Y-102627160D01*
X128455266Y-101627160D02*
X128264790Y-101627160D01*
X128169552Y-101674780D01*
X128074314Y-101770018D01*
X128026695Y-101960494D01*
X128026695Y-102293827D01*
X128074314Y-102484303D01*
X128169552Y-102579541D01*
X128264790Y-102627160D01*
X128455266Y-102627160D01*
X128550504Y-102579541D01*
X128645742Y-102484303D01*
X128693361Y-102293827D01*
X128693361Y-101960494D01*
X128645742Y-101770018D01*
X128550504Y-101674780D01*
X128455266Y-101627160D01*
X127598123Y-102246208D02*
X126836219Y-102246208D01*
X125836219Y-102627160D02*
X126407647Y-102627160D01*
X126121933Y-102627160D02*
X126121933Y-101627160D01*
X126217171Y-101770018D01*
X126312409Y-101865256D01*
X126407647Y-101912875D01*
X125217171Y-101627160D02*
X125121933Y-101627160D01*
X125026695Y-101674780D01*
X124979076Y-101722399D01*
X124931457Y-101817637D01*
X124883838Y-102008113D01*
X124883838Y-102246208D01*
X124931457Y-102436684D01*
X124979076Y-102531922D01*
X125026695Y-102579541D01*
X125121933Y-102627160D01*
X125217171Y-102627160D01*
X125312409Y-102579541D01*
X125360028Y-102531922D01*
X125407647Y-102436684D01*
X125455266Y-102246208D01*
X125455266Y-102008113D01*
X125407647Y-101817637D01*
X125360028Y-101722399D01*
X125312409Y-101674780D01*
X125217171Y-101627160D01*
%TO.C,DO-9*%
X111964552Y-102627160D02*
X111964552Y-101627160D01*
X111726457Y-101627160D01*
X111583600Y-101674780D01*
X111488361Y-101770018D01*
X111440742Y-101865256D01*
X111393123Y-102055732D01*
X111393123Y-102198589D01*
X111440742Y-102389065D01*
X111488361Y-102484303D01*
X111583600Y-102579541D01*
X111726457Y-102627160D01*
X111964552Y-102627160D01*
X110774076Y-101627160D02*
X110583600Y-101627160D01*
X110488361Y-101674780D01*
X110393123Y-101770018D01*
X110345504Y-101960494D01*
X110345504Y-102293827D01*
X110393123Y-102484303D01*
X110488361Y-102579541D01*
X110583600Y-102627160D01*
X110774076Y-102627160D01*
X110869314Y-102579541D01*
X110964552Y-102484303D01*
X111012171Y-102293827D01*
X111012171Y-101960494D01*
X110964552Y-101770018D01*
X110869314Y-101674780D01*
X110774076Y-101627160D01*
X109916933Y-102246208D02*
X109155028Y-102246208D01*
X108631219Y-102627160D02*
X108440742Y-102627160D01*
X108345504Y-102579541D01*
X108297885Y-102531922D01*
X108202647Y-102389065D01*
X108155028Y-102198589D01*
X108155028Y-101817637D01*
X108202647Y-101722399D01*
X108250266Y-101674780D01*
X108345504Y-101627160D01*
X108535980Y-101627160D01*
X108631219Y-101674780D01*
X108678838Y-101722399D01*
X108726457Y-101817637D01*
X108726457Y-102055732D01*
X108678838Y-102150970D01*
X108631219Y-102198589D01*
X108535980Y-102246208D01*
X108345504Y-102246208D01*
X108250266Y-102198589D01*
X108202647Y-102150970D01*
X108155028Y-102055732D01*
%TO.C,DO-8*%
X163579552Y-86537160D02*
X163579552Y-85537160D01*
X163341457Y-85537160D01*
X163198600Y-85584780D01*
X163103361Y-85680018D01*
X163055742Y-85775256D01*
X163008123Y-85965732D01*
X163008123Y-86108589D01*
X163055742Y-86299065D01*
X163103361Y-86394303D01*
X163198600Y-86489541D01*
X163341457Y-86537160D01*
X163579552Y-86537160D01*
X162389076Y-85537160D02*
X162198600Y-85537160D01*
X162103361Y-85584780D01*
X162008123Y-85680018D01*
X161960504Y-85870494D01*
X161960504Y-86203827D01*
X162008123Y-86394303D01*
X162103361Y-86489541D01*
X162198600Y-86537160D01*
X162389076Y-86537160D01*
X162484314Y-86489541D01*
X162579552Y-86394303D01*
X162627171Y-86203827D01*
X162627171Y-85870494D01*
X162579552Y-85680018D01*
X162484314Y-85584780D01*
X162389076Y-85537160D01*
X161531933Y-86156208D02*
X160770028Y-86156208D01*
X160150980Y-85965732D02*
X160246219Y-85918113D01*
X160293838Y-85870494D01*
X160341457Y-85775256D01*
X160341457Y-85727637D01*
X160293838Y-85632399D01*
X160246219Y-85584780D01*
X160150980Y-85537160D01*
X159960504Y-85537160D01*
X159865266Y-85584780D01*
X159817647Y-85632399D01*
X159770028Y-85727637D01*
X159770028Y-85775256D01*
X159817647Y-85870494D01*
X159865266Y-85918113D01*
X159960504Y-85965732D01*
X160150980Y-85965732D01*
X160246219Y-86013351D01*
X160293838Y-86060970D01*
X160341457Y-86156208D01*
X160341457Y-86346684D01*
X160293838Y-86441922D01*
X160246219Y-86489541D01*
X160150980Y-86537160D01*
X159960504Y-86537160D01*
X159865266Y-86489541D01*
X159817647Y-86441922D01*
X159770028Y-86346684D01*
X159770028Y-86156208D01*
X159817647Y-86060970D01*
X159865266Y-86013351D01*
X159960504Y-85965732D01*
%TO.C,DO-7*%
X146374552Y-86537160D02*
X146374552Y-85537160D01*
X146136457Y-85537160D01*
X145993600Y-85584780D01*
X145898361Y-85680018D01*
X145850742Y-85775256D01*
X145803123Y-85965732D01*
X145803123Y-86108589D01*
X145850742Y-86299065D01*
X145898361Y-86394303D01*
X145993600Y-86489541D01*
X146136457Y-86537160D01*
X146374552Y-86537160D01*
X145184076Y-85537160D02*
X144993600Y-85537160D01*
X144898361Y-85584780D01*
X144803123Y-85680018D01*
X144755504Y-85870494D01*
X144755504Y-86203827D01*
X144803123Y-86394303D01*
X144898361Y-86489541D01*
X144993600Y-86537160D01*
X145184076Y-86537160D01*
X145279314Y-86489541D01*
X145374552Y-86394303D01*
X145422171Y-86203827D01*
X145422171Y-85870494D01*
X145374552Y-85680018D01*
X145279314Y-85584780D01*
X145184076Y-85537160D01*
X144326933Y-86156208D02*
X143565028Y-86156208D01*
X143184076Y-85537160D02*
X142517409Y-85537160D01*
X142945980Y-86537160D01*
%TO.C,DO-6*%
X129169552Y-86537160D02*
X129169552Y-85537160D01*
X128931457Y-85537160D01*
X128788600Y-85584780D01*
X128693361Y-85680018D01*
X128645742Y-85775256D01*
X128598123Y-85965732D01*
X128598123Y-86108589D01*
X128645742Y-86299065D01*
X128693361Y-86394303D01*
X128788600Y-86489541D01*
X128931457Y-86537160D01*
X129169552Y-86537160D01*
X127979076Y-85537160D02*
X127788600Y-85537160D01*
X127693361Y-85584780D01*
X127598123Y-85680018D01*
X127550504Y-85870494D01*
X127550504Y-86203827D01*
X127598123Y-86394303D01*
X127693361Y-86489541D01*
X127788600Y-86537160D01*
X127979076Y-86537160D01*
X128074314Y-86489541D01*
X128169552Y-86394303D01*
X128217171Y-86203827D01*
X128217171Y-85870494D01*
X128169552Y-85680018D01*
X128074314Y-85584780D01*
X127979076Y-85537160D01*
X127121933Y-86156208D02*
X126360028Y-86156208D01*
X125455266Y-85537160D02*
X125645742Y-85537160D01*
X125740980Y-85584780D01*
X125788600Y-85632399D01*
X125883838Y-85775256D01*
X125931457Y-85965732D01*
X125931457Y-86346684D01*
X125883838Y-86441922D01*
X125836219Y-86489541D01*
X125740980Y-86537160D01*
X125550504Y-86537160D01*
X125455266Y-86489541D01*
X125407647Y-86441922D01*
X125360028Y-86346684D01*
X125360028Y-86108589D01*
X125407647Y-86013351D01*
X125455266Y-85965732D01*
X125550504Y-85918113D01*
X125740980Y-85918113D01*
X125836219Y-85965732D01*
X125883838Y-86013351D01*
X125931457Y-86108589D01*
%TO.C,DO-5*%
X111964552Y-86537160D02*
X111964552Y-85537160D01*
X111726457Y-85537160D01*
X111583600Y-85584780D01*
X111488361Y-85680018D01*
X111440742Y-85775256D01*
X111393123Y-85965732D01*
X111393123Y-86108589D01*
X111440742Y-86299065D01*
X111488361Y-86394303D01*
X111583600Y-86489541D01*
X111726457Y-86537160D01*
X111964552Y-86537160D01*
X110774076Y-85537160D02*
X110583600Y-85537160D01*
X110488361Y-85584780D01*
X110393123Y-85680018D01*
X110345504Y-85870494D01*
X110345504Y-86203827D01*
X110393123Y-86394303D01*
X110488361Y-86489541D01*
X110583600Y-86537160D01*
X110774076Y-86537160D01*
X110869314Y-86489541D01*
X110964552Y-86394303D01*
X111012171Y-86203827D01*
X111012171Y-85870494D01*
X110964552Y-85680018D01*
X110869314Y-85584780D01*
X110774076Y-85537160D01*
X109916933Y-86156208D02*
X109155028Y-86156208D01*
X108202647Y-85537160D02*
X108678838Y-85537160D01*
X108726457Y-86013351D01*
X108678838Y-85965732D01*
X108583600Y-85918113D01*
X108345504Y-85918113D01*
X108250266Y-85965732D01*
X108202647Y-86013351D01*
X108155028Y-86108589D01*
X108155028Y-86346684D01*
X108202647Y-86441922D01*
X108250266Y-86489541D01*
X108345504Y-86537160D01*
X108583600Y-86537160D01*
X108678838Y-86489541D01*
X108726457Y-86441922D01*
%TO.C,DO-4*%
X163579552Y-70447160D02*
X163579552Y-69447160D01*
X163341457Y-69447160D01*
X163198600Y-69494780D01*
X163103361Y-69590018D01*
X163055742Y-69685256D01*
X163008123Y-69875732D01*
X163008123Y-70018589D01*
X163055742Y-70209065D01*
X163103361Y-70304303D01*
X163198600Y-70399541D01*
X163341457Y-70447160D01*
X163579552Y-70447160D01*
X162389076Y-69447160D02*
X162198600Y-69447160D01*
X162103361Y-69494780D01*
X162008123Y-69590018D01*
X161960504Y-69780494D01*
X161960504Y-70113827D01*
X162008123Y-70304303D01*
X162103361Y-70399541D01*
X162198600Y-70447160D01*
X162389076Y-70447160D01*
X162484314Y-70399541D01*
X162579552Y-70304303D01*
X162627171Y-70113827D01*
X162627171Y-69780494D01*
X162579552Y-69590018D01*
X162484314Y-69494780D01*
X162389076Y-69447160D01*
X161531933Y-70066208D02*
X160770028Y-70066208D01*
X159865266Y-69780494D02*
X159865266Y-70447160D01*
X160103361Y-69399541D02*
X160341457Y-70113827D01*
X159722409Y-70113827D01*
%TO.C,DO-3*%
X146374552Y-70447160D02*
X146374552Y-69447160D01*
X146136457Y-69447160D01*
X145993600Y-69494780D01*
X145898361Y-69590018D01*
X145850742Y-69685256D01*
X145803123Y-69875732D01*
X145803123Y-70018589D01*
X145850742Y-70209065D01*
X145898361Y-70304303D01*
X145993600Y-70399541D01*
X146136457Y-70447160D01*
X146374552Y-70447160D01*
X145184076Y-69447160D02*
X144993600Y-69447160D01*
X144898361Y-69494780D01*
X144803123Y-69590018D01*
X144755504Y-69780494D01*
X144755504Y-70113827D01*
X144803123Y-70304303D01*
X144898361Y-70399541D01*
X144993600Y-70447160D01*
X145184076Y-70447160D01*
X145279314Y-70399541D01*
X145374552Y-70304303D01*
X145422171Y-70113827D01*
X145422171Y-69780494D01*
X145374552Y-69590018D01*
X145279314Y-69494780D01*
X145184076Y-69447160D01*
X144326933Y-70066208D02*
X143565028Y-70066208D01*
X143184076Y-69447160D02*
X142565028Y-69447160D01*
X142898361Y-69828113D01*
X142755504Y-69828113D01*
X142660266Y-69875732D01*
X142612647Y-69923351D01*
X142565028Y-70018589D01*
X142565028Y-70256684D01*
X142612647Y-70351922D01*
X142660266Y-70399541D01*
X142755504Y-70447160D01*
X143041219Y-70447160D01*
X143136457Y-70399541D01*
X143184076Y-70351922D01*
%TO.C,DO-2*%
X129169552Y-70447160D02*
X129169552Y-69447160D01*
X128931457Y-69447160D01*
X128788600Y-69494780D01*
X128693361Y-69590018D01*
X128645742Y-69685256D01*
X128598123Y-69875732D01*
X128598123Y-70018589D01*
X128645742Y-70209065D01*
X128693361Y-70304303D01*
X128788600Y-70399541D01*
X128931457Y-70447160D01*
X129169552Y-70447160D01*
X127979076Y-69447160D02*
X127788600Y-69447160D01*
X127693361Y-69494780D01*
X127598123Y-69590018D01*
X127550504Y-69780494D01*
X127550504Y-70113827D01*
X127598123Y-70304303D01*
X127693361Y-70399541D01*
X127788600Y-70447160D01*
X127979076Y-70447160D01*
X128074314Y-70399541D01*
X128169552Y-70304303D01*
X128217171Y-70113827D01*
X128217171Y-69780494D01*
X128169552Y-69590018D01*
X128074314Y-69494780D01*
X127979076Y-69447160D01*
X127121933Y-70066208D02*
X126360028Y-70066208D01*
X125931457Y-69542399D02*
X125883838Y-69494780D01*
X125788600Y-69447160D01*
X125550504Y-69447160D01*
X125455266Y-69494780D01*
X125407647Y-69542399D01*
X125360028Y-69637637D01*
X125360028Y-69732875D01*
X125407647Y-69875732D01*
X125979076Y-70447160D01*
X125360028Y-70447160D01*
%TO.C,DO-1*%
X111964552Y-70447160D02*
X111964552Y-69447160D01*
X111726457Y-69447160D01*
X111583600Y-69494780D01*
X111488361Y-69590018D01*
X111440742Y-69685256D01*
X111393123Y-69875732D01*
X111393123Y-70018589D01*
X111440742Y-70209065D01*
X111488361Y-70304303D01*
X111583600Y-70399541D01*
X111726457Y-70447160D01*
X111964552Y-70447160D01*
X110774076Y-69447160D02*
X110583600Y-69447160D01*
X110488361Y-69494780D01*
X110393123Y-69590018D01*
X110345504Y-69780494D01*
X110345504Y-70113827D01*
X110393123Y-70304303D01*
X110488361Y-70399541D01*
X110583600Y-70447160D01*
X110774076Y-70447160D01*
X110869314Y-70399541D01*
X110964552Y-70304303D01*
X111012171Y-70113827D01*
X111012171Y-69780494D01*
X110964552Y-69590018D01*
X110869314Y-69494780D01*
X110774076Y-69447160D01*
X109916933Y-70066208D02*
X109155028Y-70066208D01*
X108155028Y-70447160D02*
X108726457Y-70447160D01*
X108440742Y-70447160D02*
X108440742Y-69447160D01*
X108535980Y-69590018D01*
X108631219Y-69685256D01*
X108726457Y-69732875D01*
%TD*%
M02*
